<svg width="874" height="114" viewBox="0 0 874 114" fill="none" xmlns="http://www.w3.org/2000/svg">
<g clip-path="url(#clip0)">
<path fill-rule="evenodd" clip-rule="evenodd" d="M450.1 0C451.6 0 452.8 1.2 452.8 2.7C452.8 4.2 451.6 5.4 450.1 5.4C448.6 5.4 447.4 4.2 447.4 2.7C447.4 1.2 448.6 0 450.1 0Z" fill="#F8D1C4"/>
<path fill-rule="evenodd" clip-rule="evenodd" d="M450.1 17.5C451.6 17.5 452.8 18.7 452.8 20.2C452.8 21.7 451.6 22.9 450.1 22.9C448.6 22.9 447.4 21.7 447.4 20.2C447.4 18.8 448.6 17.5 450.1 17.5Z" fill="#F8D1C4"/>
<path fill-rule="evenodd" clip-rule="evenodd" d="M450.1 31.7C451.2 31.7 452 32.5999 452 33.5999C452 34.6999 451.1 35.5 450.1 35.5C449 35.5 448.2 34.5999 448.2 33.5999C448.2 32.5999 449.1 31.7 450.1 31.7Z" fill="#F8D1C4"/>
<path fill-rule="evenodd" clip-rule="evenodd" d="M450.1 53.1001C451.2 53.1001 452 54.0001 452 55.0001C452 56.1001 451.1 56.9001 450.1 56.9001C449 56.9001 448.2 56.0001 448.2 55.0001C448.2 53.9001 449.1 53.1001 450.1 53.1001Z" fill="#F8D1C4"/>
<path fill-rule="evenodd" clip-rule="evenodd" d="M450.1 71.6001C450.8 71.6001 451.4 72.2001 451.4 72.9001C451.4 73.6001 450.8 74.2001 450.1 74.2001C449.4 74.2001 448.8 73.6001 448.8 72.9001C448.8 72.2001 449.4 71.6001 450.1 71.6001Z" fill="#F8D1C4"/>
<path fill-rule="evenodd" clip-rule="evenodd" d="M450.1 89.6001C450.8 89.6001 451.4 90.2001 451.4 90.9001C451.4 91.6001 450.8 92.2001 450.1 92.2001C449.4 92.2001 448.8 91.6001 448.8 90.9001C448.8 90.2001 449.4 89.6001 450.1 89.6001Z" fill="#F8D1C4"/>
<path fill-rule="evenodd" clip-rule="evenodd" d="M477.8 10.6001C479.3 10.6001 480.5 11.8001 480.5 13.3001C480.5 14.8001 479.3 16.0001 477.8 16.0001C476.3 16.0001 475.1 14.8001 475.1 13.3001C475 11.9001 476.2 10.6001 477.8 10.6001Z" fill="#6FA4A3"/>
<path fill-rule="evenodd" clip-rule="evenodd" d="M477.8 22.5C478.9 22.5 479.7 23.4 479.7 24.4C479.7 25.5 478.8 26.3 477.8 26.3C476.7 26.3 475.9 25.4 475.9 24.4C475.8 23.4 476.7 22.5 477.8 22.5Z" fill="#6FA4A3"/>
<path fill-rule="evenodd" clip-rule="evenodd" d="M477.8 34.6001C478.9 34.6001 479.7 35.5001 479.7 36.5001C479.7 37.6001 478.8 38.4001 477.8 38.4001C476.7 38.4001 475.9 37.5001 475.9 36.5001C475.8 35.5001 476.7 34.6001 477.8 34.6001Z" fill="#6FA4A3"/>
<path fill-rule="evenodd" clip-rule="evenodd" d="M477.8 46.2C478.9 46.2 479.7 47.0999 479.7 48.0999C479.7 49.1999 478.8 50 477.8 50C476.7 50 475.9 49.0999 475.9 48.0999C475.8 46.9999 476.7 46.2 477.8 46.2Z" fill="#6FA4A3"/>
<path fill-rule="evenodd" clip-rule="evenodd" d="M503.9 13.3C505.4 13.3 506.6 14.5 506.6 16C506.6 17.5 505.4 18.7 503.9 18.7C502.4 18.7 501.2 17.5 501.2 16C501.1 14.5 502.3 13.3 503.9 13.3Z" fill="#F8D1C4"/>
<path fill-rule="evenodd" clip-rule="evenodd" d="M503.9 23.5C505.4 23.5 506.6 24.7 506.6 26.2C506.6 27.7 505.4 28.9 503.9 28.9C502.4 28.9 501.2 27.7 501.2 26.2C501.1 24.7 502.3 23.5 503.9 23.5Z" fill="#F8D1C4"/>
<path fill-rule="evenodd" clip-rule="evenodd" d="M503.9 33.8C505.4 33.8 506.6 35 506.6 36.5C506.6 38 505.4 39.2001 503.9 39.2001C502.4 39.2001 501.2 38 501.2 36.5C501.1 35 502.3 33.8 503.9 33.8Z" fill="#F8D1C4"/>
<path fill-rule="evenodd" clip-rule="evenodd" d="M503.9 45.3999C505 45.3999 505.8 46.2999 505.8 47.2999C505.8 48.2999 504.9 49.1999 503.9 49.1999C502.8 49.1999 502 48.2999 502 47.2999C502 46.2999 502.8 45.3999 503.9 45.3999Z" fill="#F8D1C4"/>
<path fill-rule="evenodd" clip-rule="evenodd" d="M503.9 58.2C505 58.2 505.8 59.0999 505.8 60.0999C505.8 61.0999 504.9 62 503.9 62C502.8 62 502 61.0999 502 60.0999C502 59.0999 502.8 58.2 503.9 58.2Z" fill="#F8D1C4"/>
<path fill-rule="evenodd" clip-rule="evenodd" d="M503.9 82.7C504.6 82.7 505.2 83.3 505.2 84C505.2 84.7 504.6 85.3 503.9 85.3C503.2 85.3 502.6 84.7 502.6 84C502.6 83.3 503.1 82.7 503.9 82.7Z" fill="#F8D1C4"/>
<path fill-rule="evenodd" clip-rule="evenodd" d="M503.9 101.7C504.6 101.7 505.2 102.3 505.2 103C505.2 103.7 504.6 104.3 503.9 104.3C503.2 104.3 502.6 103.7 502.6 103C502.6 102.2 503.1 101.7 503.9 101.7Z" fill="#F8D1C4"/>
<path fill-rule="evenodd" clip-rule="evenodd" d="M503.9 110.6C504.6 110.6 505.2 111.2 505.2 111.9C505.2 112.6 504.6 113.2 503.9 113.2C503.2 113.2 502.6 112.6 502.6 111.9C502.6 111.2 503.1 110.6 503.9 110.6Z" fill="#F8D1C4"/>
<path fill-rule="evenodd" clip-rule="evenodd" d="M527.9 5.5C529.4 5.5 530.6 6.9 530.6 8.6C530.6 10.3 529.4 11.7 527.9 11.7C526.4 11.7 525.2 10.3 525.2 8.6C525.2 6.9 526.3 5.5 527.9 5.5Z" fill="#6FA4A3"/>
<path fill-rule="evenodd" clip-rule="evenodd" d="M546.9 9.30005C548.4 9.30005 549.6 10.5 549.6 12C549.6 13.5 548.4 14.7 546.9 14.7C545.4 14.7 544.2 13.5 544.2 12C544.2 10.5 545.4 9.30005 546.9 9.30005Z" fill="#F8D1C4"/>
<path fill-rule="evenodd" clip-rule="evenodd" d="M527.9 22.2C529.4 22.2 530.6 23.5999 530.6 25.2999C530.6 26.9999 529.4 28.4 527.9 28.4C526.4 28.4 525.2 26.9999 525.2 25.2999C525.2 23.5999 526.3 22.2 527.9 22.2Z" fill="#6FA4A3"/>
<path fill-rule="evenodd" clip-rule="evenodd" d="M546.9 22.1001C548 22.1001 548.8 23.0001 548.8 24.0001C548.8 25.1001 547.9 25.9001 546.9 25.9001C545.9 25.9001 545 25.1001 545 24.0001C545 22.9001 545.8 22.1001 546.9 22.1001Z" fill="#F8D1C4"/>
<path fill-rule="evenodd" clip-rule="evenodd" d="M546.9 41.8C548 41.8 548.8 42.7001 548.8 43.7001C548.8 44.7001 547.9 45.6 546.9 45.6C545.9 45.6 545 44.7001 545 43.7001C545 42.7001 545.8 41.8 546.9 41.8Z" fill="#F8D1C4"/>
<path fill-rule="evenodd" clip-rule="evenodd" d="M527.9 37.6001C529 37.6001 529.8 38.6001 529.8 39.8001C529.8 41.0001 528.9 42.0001 527.9 42.0001C526.8 42.0001 526 41.0001 526 39.8001C525.9 38.6001 526.8 37.6001 527.9 37.6001Z" fill="#6FA4A3"/>
<path fill-rule="evenodd" clip-rule="evenodd" d="M527.9 55.8999C529 55.8999 529.8 56.8999 529.8 58.0999C529.8 59.2999 528.9 60.2999 527.9 60.2999C526.8 60.2999 526 59.2999 526 58.0999C525.9 56.8999 526.8 55.8999 527.9 55.8999Z" fill="#6FA4A3"/>
<path fill-rule="evenodd" clip-rule="evenodd" d="M546.9 71.7C548 71.7 548.8 72.6 548.8 73.6C548.8 74.6 547.9 75.5 546.9 75.5C545.9 75.5 545 74.6 545 73.6C545 72.6 545.8 71.7 546.9 71.7Z" fill="#F8D1C4"/>
<path fill-rule="evenodd" clip-rule="evenodd" d="M546.9 85.5C547.6 85.5 548.2 86.1 548.2 86.8C548.2 87.5 547.6 88.1 546.9 88.1C546.2 88.1 545.6 87.5 545.6 86.8C545.6 86.1 546.2 85.5 546.9 85.5Z" fill="#F8D1C4"/>
<path fill-rule="evenodd" clip-rule="evenodd" d="M546.9 97.3999C547.6 97.3999 548.2 97.9999 548.2 98.6999C548.2 99.3999 547.6 99.9999 546.9 99.9999C546.2 99.9999 545.6 99.3999 545.6 98.6999C545.6 97.9999 546.2 97.3999 546.9 97.3999Z" fill="#F8D1C4"/>
<path fill-rule="evenodd" clip-rule="evenodd" d="M546.9 106.8C547.6 106.8 548.2 107.4 548.2 108.1C548.2 108.8 547.6 109.4 546.9 109.4C546.2 109.4 545.6 108.8 545.6 108.1C545.6 107.4 546.2 106.8 546.9 106.8Z" fill="#F8D1C4"/>
<path fill-rule="evenodd" clip-rule="evenodd" d="M572.2 3.80005C573.3 3.80005 574.1 4.70005 574.1 5.70005C574.1 6.80005 573.2 7.60005 572.2 7.60005C571.1 7.60005 570.3 6.70005 570.3 5.70005C570.2 4.70005 571.1 3.80005 572.2 3.80005Z" fill="#6FA4A3"/>
<path fill-rule="evenodd" clip-rule="evenodd" d="M572.2 20.3999C573.3 20.3999 574.1 21.2999 574.1 22.2999C574.1 23.3999 573.2 24.1999 572.2 24.1999C571.1 24.1999 570.3 23.2999 570.3 22.2999C570.2 21.2999 571.1 20.3999 572.2 20.3999Z" fill="#6FA4A3"/>
<path fill-rule="evenodd" clip-rule="evenodd" d="M572.2 32.5C573.3 32.5 574.1 33.4 574.1 34.4C574.1 35.4 573.2 36.3 572.2 36.3C571.1 36.3 570.3 35.4 570.3 34.4C570.3 33.4 571.1 32.5 572.2 32.5Z" fill="#6FA4A3"/>
<path fill-rule="evenodd" clip-rule="evenodd" d="M572.2 44.1001C572.9 44.1001 573.5 44.7001 573.5 45.4001C573.5 46.1001 572.9 46.7001 572.2 46.7001C571.5 46.7001 570.9 46.1001 570.9 45.4001C570.9 44.7001 571.4 44.1001 572.2 44.1001Z" fill="#6FA4A3"/>
<path fill-rule="evenodd" clip-rule="evenodd" d="M600.1 0C601.6 0 602.8 1.2 602.8 2.7C602.8 4.2 601.6 5.4 600.1 5.4C598.6 5.4 597.4 4.2 597.4 2.7C597.3 1.2 598.5 0 600.1 0Z" fill="#F8D1C4"/>
<path fill-rule="evenodd" clip-rule="evenodd" d="M600.1 17.5C601.6 17.5 602.8 18.7 602.8 20.2C602.8 21.7 601.6 22.9 600.1 22.9C598.6 22.9 597.4 21.7 597.4 20.2C597.3 18.8 598.5 17.5 600.1 17.5Z" fill="#F8D1C4"/>
<path fill-rule="evenodd" clip-rule="evenodd" d="M600.1 31.7C601.2 31.7 602 32.5999 602 33.5999C602 34.6999 601.1 35.5 600.1 35.5C599.1 35.5 598.2 34.5999 598.2 33.5999C598.1 32.5999 599 31.7 600.1 31.7Z" fill="#F8D1C4"/>
<path fill-rule="evenodd" clip-rule="evenodd" d="M600.1 53.1001C601.2 53.1001 602 54.0001 602 55.0001C602 56.1001 601.1 56.9001 600.1 56.9001C599.1 56.9001 598.2 56.0001 598.2 55.0001C598.1 53.9001 599 53.1001 600.1 53.1001Z" fill="#F8D1C4"/>
<path fill-rule="evenodd" clip-rule="evenodd" d="M600.1 71.6001C600.8 71.6001 601.4 72.2001 601.4 72.9001C601.4 73.6001 600.8 74.2001 600.1 74.2001C599.4 74.2001 598.8 73.6001 598.8 72.9001C598.8 72.2001 599.4 71.6001 600.1 71.6001Z" fill="#F8D1C4"/>
<path fill-rule="evenodd" clip-rule="evenodd" d="M600.1 89.6001C600.8 89.6001 601.4 90.2001 601.4 90.9001C601.4 91.6001 600.8 92.2001 600.1 92.2001C599.4 92.2001 598.8 91.6001 598.8 90.9001C598.8 90.2001 599.4 89.6001 600.1 89.6001Z" fill="#F8D1C4"/>
<path fill-rule="evenodd" clip-rule="evenodd" d="M626.4 10.6001C627.9 10.6001 629.1 11.8001 629.1 13.3001C629.1 14.8001 627.9 16.0001 626.4 16.0001C624.9 16.0001 623.7 14.8001 623.7 13.3001C623.7 11.9001 624.9 10.6001 626.4 10.6001Z" fill="#6FA4A3"/>
<path fill-rule="evenodd" clip-rule="evenodd" d="M626.4 22.5C627.5 22.5 628.3 23.4 628.3 24.4C628.3 25.5 627.4 26.3 626.4 26.3C625.3 26.3 624.5 25.4 624.5 24.4C624.5 23.4 625.4 22.5 626.4 22.5Z" fill="#6FA4A3"/>
<path fill-rule="evenodd" clip-rule="evenodd" d="M626.4 34.6001C627.5 34.6001 628.3 35.5001 628.3 36.5001C628.3 37.6001 627.4 38.4001 626.4 38.4001C625.3 38.4001 624.5 37.5001 624.5 36.5001C624.5 35.5001 625.4 34.6001 626.4 34.6001Z" fill="#6FA4A3"/>
<path fill-rule="evenodd" clip-rule="evenodd" d="M626.4 46.2C627.5 46.2 628.3 47.0999 628.3 48.0999C628.3 49.1999 627.4 50 626.4 50C625.3 50 624.5 49.0999 624.5 48.0999C624.5 46.9999 625.4 46.2 626.4 46.2Z" fill="#6FA4A3"/>
<path fill-rule="evenodd" clip-rule="evenodd" d="M652.5 13.3C654 13.3 655.2 14.5 655.2 16C655.2 17.5 654 18.7 652.5 18.7C651 18.7 649.8 17.5 649.8 16C649.8 14.5 651 13.3 652.5 13.3Z" fill="#F8D1C4"/>
<path fill-rule="evenodd" clip-rule="evenodd" d="M652.5 23.5C654 23.5 655.2 24.7 655.2 26.2C655.2 27.7 654 28.9 652.5 28.9C651 28.9 649.8 27.7 649.8 26.2C649.8 24.7 651 23.5 652.5 23.5Z" fill="#F8D1C4"/>
<path fill-rule="evenodd" clip-rule="evenodd" d="M652.5 33.8C654 33.8 655.2 35 655.2 36.5C655.2 38 654 39.2001 652.5 39.2001C651 39.2001 649.8 38 649.8 36.5C649.8 35 651 33.8 652.5 33.8Z" fill="#F8D1C4"/>
<path fill-rule="evenodd" clip-rule="evenodd" d="M652.5 45.3999C653.6 45.3999 654.4 46.2999 654.4 47.2999C654.4 48.2999 653.5 49.1999 652.5 49.1999C651.5 49.1999 650.6 48.2999 650.6 47.2999C650.6 46.2999 651.5 45.3999 652.5 45.3999Z" fill="#F8D1C4"/>
<path fill-rule="evenodd" clip-rule="evenodd" d="M652.5 58.2C653.6 58.2 654.4 59.0999 654.4 60.0999C654.4 61.0999 653.5 62 652.5 62C651.5 62 650.6 61.0999 650.6 60.0999C650.6 59.0999 651.5 58.2 652.5 58.2Z" fill="#F8D1C4"/>
<path fill-rule="evenodd" clip-rule="evenodd" d="M652.5 82.7C653.2 82.7 653.8 83.3 653.8 84C653.8 84.7 653.2 85.3 652.5 85.3C651.8 85.3 651.2 84.7 651.2 84C651.2 83.3 651.8 82.7 652.5 82.7Z" fill="#F8D1C4"/>
<path fill-rule="evenodd" clip-rule="evenodd" d="M652.5 101.7C653.2 101.7 653.8 102.3 653.8 103C653.8 103.7 653.2 104.3 652.5 104.3C651.8 104.3 651.2 103.7 651.2 103C651.2 102.2 651.8 101.7 652.5 101.7Z" fill="#F8D1C4"/>
<path fill-rule="evenodd" clip-rule="evenodd" d="M652.5 110.6C653.2 110.6 653.8 111.2 653.8 111.9C653.8 112.6 653.2 113.2 652.5 113.2C651.8 113.2 651.2 112.6 651.2 111.9C651.2 111.2 651.8 110.6 652.5 110.6Z" fill="#F8D1C4"/>
<path fill-rule="evenodd" clip-rule="evenodd" d="M679 12C680.5 12 681.7 13.2 681.7 14.7C681.7 16.2 680.5 17.4 679 17.4C677.5 17.4 676.3 16.2 676.3 14.7C676.3 13.2 677.5 12 679 12Z" fill="#6FA4A3"/>
<path fill-rule="evenodd" clip-rule="evenodd" d="M695.6 9.30005C697.1 9.30005 698.3 10.5 698.3 12C698.3 13.5 697.1 14.7 695.6 14.7C694.1 14.7 692.9 13.5 692.9 12C692.8 10.5 694.1 9.30005 695.6 9.30005Z" fill="#F8D1C4"/>
<path fill-rule="evenodd" clip-rule="evenodd" d="M679 26.8C680.5 26.8 681.7 28 681.7 29.5C681.7 31 680.5 32.2001 679 32.2001C677.5 32.2001 676.3 31 676.3 29.5C676.3 28 677.5 26.8 679 26.8Z" fill="#6FA4A3"/>
<path fill-rule="evenodd" clip-rule="evenodd" d="M695.6 22.1001C696.7 22.1001 697.5 23.0001 697.5 24.0001C697.5 25.1001 696.6 25.9001 695.6 25.9001C694.5 25.9001 693.7 25.0001 693.7 24.0001C693.6 22.9001 694.5 22.1001 695.6 22.1001Z" fill="#F8D1C4"/>
<path fill-rule="evenodd" clip-rule="evenodd" d="M695.6 41.8C696.7 41.8 697.5 42.7001 697.5 43.7001C697.5 44.7001 696.6 45.6 695.6 45.6C694.5 45.6 693.7 44.7001 693.7 43.7001C693.7 42.7001 694.5 41.8 695.6 41.8Z" fill="#F8D1C4"/>
<path fill-rule="evenodd" clip-rule="evenodd" d="M679 40.3999C680.1 40.3999 680.9 41.2999 680.9 42.2999C680.9 43.3999 680 44.1999 679 44.1999C677.9 44.1999 677.1 43.2999 677.1 42.2999C677.1 41.1999 678 40.3999 679 40.3999Z" fill="#6FA4A3"/>
<path fill-rule="evenodd" clip-rule="evenodd" d="M679 56.5C680.1 56.5 680.9 57.4 680.9 58.4C680.9 59.5 680 60.3 679 60.3C677.9 60.3 677.1 59.4 677.1 58.4C677.1 57.3 678 56.5 679 56.5Z" fill="#6FA4A3"/>
<path fill-rule="evenodd" clip-rule="evenodd" d="M695.6 71.7C696.7 71.7 697.5 72.6 697.5 73.6C697.5 74.6 696.6 75.5 695.6 75.5C694.5 75.5 693.7 74.6 693.7 73.6C693.7 72.6 694.5 71.7 695.6 71.7Z" fill="#F8D1C4"/>
<path fill-rule="evenodd" clip-rule="evenodd" d="M695.6 85.5C696.3 85.5 696.9 86.1 696.9 86.8C696.9 87.5 696.3 88.1 695.6 88.1C694.9 88.1 694.3 87.5 694.3 86.8C694.3 86.1 694.9 85.5 695.6 85.5Z" fill="#F8D1C4"/>
<path fill-rule="evenodd" clip-rule="evenodd" d="M695.6 97.3999C696.3 97.3999 696.9 97.9999 696.9 98.6999C696.9 99.3999 696.3 99.9999 695.6 99.9999C694.9 99.9999 694.3 99.3999 694.3 98.6999C694.3 97.9999 694.9 97.3999 695.6 97.3999Z" fill="#F8D1C4"/>
<path fill-rule="evenodd" clip-rule="evenodd" d="M695.6 106.8C696.3 106.8 696.9 107.4 696.9 108.1C696.9 108.8 696.3 109.4 695.6 109.4C694.9 109.4 694.3 108.8 694.3 108.1C694.3 107.4 694.9 106.8 695.6 106.8Z" fill="#F8D1C4"/>
<path fill-rule="evenodd" clip-rule="evenodd" d="M720.8 3.80005C721.9 3.80005 722.7 4.70005 722.7 5.70005C722.7 6.80005 721.8 7.60005 720.8 7.60005C719.7 7.60005 718.9 6.70005 718.9 5.70005C718.9 4.70005 719.8 3.80005 720.8 3.80005Z" fill="#6FA4A3"/>
<path fill-rule="evenodd" clip-rule="evenodd" d="M720.8 20.3999C721.9 20.3999 722.7 21.2999 722.7 22.2999C722.7 23.3999 721.8 24.1999 720.8 24.1999C719.7 24.1999 718.9 23.2999 718.9 22.2999C718.9 21.2999 719.8 20.3999 720.8 20.3999Z" fill="#6FA4A3"/>
<path fill-rule="evenodd" clip-rule="evenodd" d="M720.8 32.5C721.9 32.5 722.7 33.4 722.7 34.4C722.7 35.4 721.8 36.3 720.8 36.3C719.7 36.3 718.9 35.4 718.9 34.4C718.9 33.4 719.8 32.5 720.8 32.5Z" fill="#6FA4A3"/>
<path fill-rule="evenodd" clip-rule="evenodd" d="M720.8 44.1001C721.5 44.1001 722.1 44.7001 722.1 45.4001C722.1 46.1001 721.5 46.7001 720.8 46.7001C720.1 46.7001 719.5 46.1001 719.5 45.4001C719.6 44.7001 720.1 44.1001 720.8 44.1001Z" fill="#6FA4A3"/>
<path fill-rule="evenodd" clip-rule="evenodd" d="M750.1 0C751.6 0 752.8 1.2 752.8 2.7C752.8 4.2 751.6 5.4 750.1 5.4C748.6 5.4 747.4 4.2 747.4 2.7C747.3 1.2 748.6 0 750.1 0Z" fill="#F8D1C4"/>
<path fill-rule="evenodd" clip-rule="evenodd" d="M750.1 17.5C751.6 17.5 752.8 18.7 752.8 20.2C752.8 21.7 751.6 22.9 750.1 22.9C748.6 22.9 747.4 21.7 747.4 20.2C747.3 18.8 748.6 17.5 750.1 17.5Z" fill="#F8D1C4"/>
<path fill-rule="evenodd" clip-rule="evenodd" d="M750.1 31.7C751.2 31.7 752 32.5999 752 33.5999C752 34.6999 751.1 35.5 750.1 35.5C749.1 35.5 748.2 34.5999 748.2 33.5999C748.1 32.5999 749 31.7 750.1 31.7Z" fill="#F8D1C4"/>
<path fill-rule="evenodd" clip-rule="evenodd" d="M750.1 53.1001C751.2 53.1001 752 54.0001 752 55.0001C752 56.1001 751.1 56.9001 750.1 56.9001C749.1 56.9001 748.2 56.0001 748.2 55.0001C748.1 53.9001 749 53.1001 750.1 53.1001Z" fill="#F8D1C4"/>
<path fill-rule="evenodd" clip-rule="evenodd" d="M750.1 71.6001C750.8 71.6001 751.4 72.2001 751.4 72.9001C751.4 73.6001 750.8 74.2001 750.1 74.2001C749.4 74.2001 748.8 73.6001 748.8 72.9001C748.8 72.2001 749.4 71.6001 750.1 71.6001Z" fill="#F8D1C4"/>
<path fill-rule="evenodd" clip-rule="evenodd" d="M750.1 89.6001C750.8 89.6001 751.4 90.2001 751.4 90.9001C751.4 91.6001 750.8 92.2001 750.1 92.2001C749.4 92.2001 748.8 91.6001 748.8 90.9001C748.8 90.2001 749.4 89.6001 750.1 89.6001Z" fill="#F8D1C4"/>
<path fill-rule="evenodd" clip-rule="evenodd" d="M777.7 10.6001C779.2 10.6001 780.4 11.8001 780.4 13.3001C780.4 14.8001 779.2 16.0001 777.7 16.0001C776.2 16.0001 775 14.8001 775 13.3001C775 11.9001 776.2 10.6001 777.7 10.6001Z" fill="#6FA4A3"/>
<path fill-rule="evenodd" clip-rule="evenodd" d="M777.7 22.5C778.8 22.5 779.6 23.4 779.6 24.4C779.6 25.5 778.7 26.3 777.7 26.3C776.6 26.3 775.8 25.4 775.8 24.4C775.8 23.4 776.6 22.5 777.7 22.5Z" fill="#6FA4A3"/>
<path fill-rule="evenodd" clip-rule="evenodd" d="M777.7 34.6001C778.8 34.6001 779.6 35.5001 779.6 36.5001C779.6 37.6001 778.7 38.4001 777.7 38.4001C776.6 38.4001 775.8 37.5001 775.8 36.5001C775.8 35.5001 776.6 34.6001 777.7 34.6001Z" fill="#6FA4A3"/>
<path fill-rule="evenodd" clip-rule="evenodd" d="M777.7 46.2C778.8 46.2 779.6 47.0999 779.6 48.0999C779.6 49.1999 778.7 50 777.7 50C776.6 50 775.8 49.0999 775.8 48.0999C775.8 46.9999 776.6 46.2 777.7 46.2Z" fill="#6FA4A3"/>
<path fill-rule="evenodd" clip-rule="evenodd" d="M803.8 13.3C805.3 13.3 806.5 14.5 806.5 16C806.5 17.5 805.3 18.7 803.8 18.7C802.3 18.7 801.1 17.5 801.1 16C801.1 14.5 802.3 13.3 803.8 13.3Z" fill="#F8D1C4"/>
<path fill-rule="evenodd" clip-rule="evenodd" d="M803.8 23.5C805.3 23.5 806.5 24.7 806.5 26.2C806.5 27.7 805.3 28.9 803.8 28.9C802.3 28.9 801.1 27.7 801.1 26.2C801.1 24.7 802.3 23.5 803.8 23.5Z" fill="#F8D1C4"/>
<path fill-rule="evenodd" clip-rule="evenodd" d="M803.8 33.8C805.3 33.8 806.5 35 806.5 36.5C806.5 38 805.3 39.2001 803.8 39.2001C802.3 39.2001 801.1 38 801.1 36.5C801.1 35 802.3 33.8 803.8 33.8Z" fill="#F8D1C4"/>
<path fill-rule="evenodd" clip-rule="evenodd" d="M803.8 45.3999C804.9 45.3999 805.7 46.2999 805.7 47.2999C805.7 48.2999 804.8 49.1999 803.8 49.1999C802.7 49.1999 801.9 48.2999 801.9 47.2999C801.9 46.2999 802.7 45.3999 803.8 45.3999Z" fill="#F8D1C4"/>
<path fill-rule="evenodd" clip-rule="evenodd" d="M803.8 58.2C804.9 58.2 805.7 59.0999 805.7 60.0999C805.7 61.0999 804.8 62 803.8 62C802.7 62 801.9 61.0999 801.9 60.0999C801.9 59.0999 802.7 58.2 803.8 58.2Z" fill="#F8D1C4"/>
<path fill-rule="evenodd" clip-rule="evenodd" d="M803.8 82.7C804.5 82.7 805.1 83.3 805.1 84C805.1 84.7 804.5 85.3 803.8 85.3C803.1 85.3 802.5 84.7 802.5 84C802.5 83.3 803.1 82.7 803.8 82.7Z" fill="#F8D1C4"/>
<path fill-rule="evenodd" clip-rule="evenodd" d="M803.8 101.7C804.5 101.7 805.1 102.3 805.1 103C805.1 103.7 804.5 104.3 803.8 104.3C803.1 104.3 802.5 103.7 802.5 103C802.5 102.2 803.1 101.7 803.8 101.7Z" fill="#F8D1C4"/>
<path fill-rule="evenodd" clip-rule="evenodd" d="M803.8 110.6C804.5 110.6 805.1 111.2 805.1 111.9C805.1 112.6 804.5 113.2 803.8 113.2C803.1 113.2 802.5 112.6 802.5 111.9C802.5 111.2 803.1 110.6 803.8 110.6Z" fill="#F8D1C4"/>
<path fill-rule="evenodd" clip-rule="evenodd" d="M827.8 5.5C829.3 5.5 830.5 6.9 830.5 8.6C830.5 10.3 829.3 11.7 827.8 11.7C826.3 11.7 825.1 10.3 825.1 8.6C825.1 6.9 826.3 5.5 827.8 5.5Z" fill="#6FA4A3"/>
<path fill-rule="evenodd" clip-rule="evenodd" d="M846.8 9.30005C848.3 9.30005 849.5 10.5 849.5 12C849.5 13.5 848.3 14.7 846.8 14.7C845.3 14.7 844.1 13.5 844.1 12C844.1 10.5 845.3 9.30005 846.8 9.30005Z" fill="#F8D1C4"/>
<path fill-rule="evenodd" clip-rule="evenodd" d="M827.8 22.2C829.3 22.2 830.5 23.5999 830.5 25.2999C830.5 26.9999 829.3 28.4 827.8 28.4C826.3 28.4 825.1 26.9999 825.1 25.2999C825.1 23.5999 826.3 22.2 827.8 22.2Z" fill="#6FA4A3"/>
<path fill-rule="evenodd" clip-rule="evenodd" d="M846.8 22.1001C847.9 22.1001 848.7 23.0001 848.7 24.0001C848.7 25.1001 847.8 25.9001 846.8 25.9001C845.8 25.9001 844.9 25.0001 844.9 24.0001C844.9 22.9001 845.8 22.1001 846.8 22.1001Z" fill="#F8D1C4"/>
<path fill-rule="evenodd" clip-rule="evenodd" d="M846.8 41.8C847.9 41.8 848.7 42.7001 848.7 43.7001C848.7 44.7001 847.8 45.6 846.8 45.6C845.8 45.6 844.9 44.7001 844.9 43.7001C844.9 42.7001 845.8 41.8 846.8 41.8Z" fill="#F8D1C4"/>
<path fill-rule="evenodd" clip-rule="evenodd" d="M827.8 37.6001C828.9 37.6001 829.7 38.6001 829.7 39.8001C829.7 41.0001 828.8 42.0001 827.8 42.0001C826.7 42.0001 825.9 41.0001 825.9 39.8001C825.9 38.6001 826.7 37.6001 827.8 37.6001Z" fill="#6FA4A3"/>
<path fill-rule="evenodd" clip-rule="evenodd" d="M827.8 55.8999C828.9 55.8999 829.7 56.8999 829.7 58.0999C829.7 59.2999 828.8 60.2999 827.8 60.2999C826.7 60.2999 825.9 59.2999 825.9 58.0999C825.9 56.8999 826.7 55.8999 827.8 55.8999Z" fill="#6FA4A3"/>
<path fill-rule="evenodd" clip-rule="evenodd" d="M846.8 71.7C847.9 71.7 848.7 72.6 848.7 73.6C848.7 74.6 847.8 75.5 846.8 75.5C845.8 75.5 844.9 74.6 844.9 73.6C844.9 72.6 845.8 71.7 846.8 71.7Z" fill="#F8D1C4"/>
<path fill-rule="evenodd" clip-rule="evenodd" d="M846.8 85.5C847.5 85.5 848.1 86.1 848.1 86.8C848.1 87.5 847.5 88.1 846.8 88.1C846.1 88.1 845.5 87.5 845.5 86.8C845.6 86.1 846.1 85.5 846.8 85.5Z" fill="#F8D1C4"/>
<path fill-rule="evenodd" clip-rule="evenodd" d="M846.8 97.3999C847.5 97.3999 848.1 97.9999 848.1 98.6999C848.1 99.3999 847.5 99.9999 846.8 99.9999C846.1 99.9999 845.5 99.3999 845.5 98.6999C845.6 97.9999 846.1 97.3999 846.8 97.3999Z" fill="#F8D1C4"/>
<path fill-rule="evenodd" clip-rule="evenodd" d="M846.8 106.8C847.5 106.8 848.1 107.4 848.1 108.1C848.1 108.8 847.5 109.4 846.8 109.4C846.1 109.4 845.5 108.8 845.5 108.1C845.6 107.4 846.1 106.8 846.8 106.8Z" fill="#F8D1C4"/>
<path fill-rule="evenodd" clip-rule="evenodd" d="M872.1 3.80005C873.2 3.80005 874 4.70005 874 5.70005C874 6.80005 873.1 7.60005 872.1 7.60005C871.1 7.60005 870.2 6.70005 870.2 5.70005C870.2 4.70005 871 3.80005 872.1 3.80005Z" fill="#6FA4A3"/>
<path fill-rule="evenodd" clip-rule="evenodd" d="M872.1 20.3999C873.2 20.3999 874 21.2999 874 22.2999C874 23.3999 873.1 24.1999 872.1 24.1999C871.1 24.1999 870.2 23.2999 870.2 22.2999C870.2 21.2999 871 20.3999 872.1 20.3999Z" fill="#6FA4A3"/>
<path fill-rule="evenodd" clip-rule="evenodd" d="M872.1 32.5C873.2 32.5 874 33.4 874 34.4C874 35.4 873.1 36.3 872.1 36.3C871.1 36.3 870.2 35.4 870.2 34.4C870.2 33.4 871 32.5 872.1 32.5Z" fill="#6FA4A3"/>
<path fill-rule="evenodd" clip-rule="evenodd" d="M872.1 44.1001C872.8 44.1001 873.4 44.7001 873.4 45.4001C873.4 46.1001 872.8 46.7001 872.1 46.7001C871.4 46.7001 870.8 46.1001 870.8 45.4001C870.8 44.7001 871.4 44.1001 872.1 44.1001Z" fill="#6FA4A3"/>
<path fill-rule="evenodd" clip-rule="evenodd" d="M2.7 0C4.2 0 5.4 1.2 5.4 2.7C5.4 4.2 4.2 5.4 2.7 5.4C1.2 5.5 0 4.3 0 2.7C0 1.2 1.2 0 2.7 0Z" fill="#F8D1C4"/>
<path fill-rule="evenodd" clip-rule="evenodd" d="M2.7 17.5C4.2 17.5 5.4 18.7 5.4 20.2C5.4 21.7 4.2 22.9 2.7 22.9C1.2 23 0 21.8 0 20.3C0 18.8 1.2 17.5 2.7 17.5Z" fill="#F8D1C4"/>
<path fill-rule="evenodd" clip-rule="evenodd" d="M2.7 31.7C3.8 31.7 4.6 32.5999 4.6 33.5999C4.6 34.6999 3.7 35.5 2.7 35.5C1.6 35.5 0.800003 34.5999 0.800003 33.5999C0.800003 32.5999 1.7 31.7 2.7 31.7Z" fill="#F8D1C4"/>
<path fill-rule="evenodd" clip-rule="evenodd" d="M2.7 53.1001C3.8 53.1001 4.6 54.0001 4.6 55.0001C4.6 56.1001 3.7 56.9001 2.7 56.9001C1.6 56.9001 0.800003 56.0001 0.800003 55.0001C0.800003 53.9001 1.7 53.1001 2.7 53.1001Z" fill="#F8D1C4"/>
<path fill-rule="evenodd" clip-rule="evenodd" d="M2.7 71.6001C3.4 71.6001 4 72.2001 4 72.9001C4 73.6001 3.4 74.2001 2.7 74.2001C2 74.2001 1.4 73.6001 1.4 72.9001C1.5 72.2001 2 71.6001 2.7 71.6001Z" fill="#F8D1C4"/>
<path fill-rule="evenodd" clip-rule="evenodd" d="M2.7 89.6001C3.4 89.6001 4 90.2001 4 90.9001C4 91.6001 3.4 92.2001 2.7 92.2001C2 92.2001 1.4 91.6001 1.4 90.9001C1.5 90.2001 2 89.6001 2.7 89.6001Z" fill="#F8D1C4"/>
<path fill-rule="evenodd" clip-rule="evenodd" d="M30.4 10.6001C31.9 10.6001 33.1 11.8001 33.1 13.3001C33.1 14.8001 31.9 16.0001 30.4 16.0001C28.9 16.0001 27.7 14.8001 27.7 13.3001C27.6 11.9001 28.9 10.6001 30.4 10.6001Z" fill="#6FA4A3"/>
<path fill-rule="evenodd" clip-rule="evenodd" d="M30.4 22.5C31.5 22.5 32.3 23.4 32.3 24.4C32.3 25.5 31.4 26.3 30.4 26.3C29.3 26.3 28.5 25.4 28.5 24.4C28.4 23.4 29.3 22.5 30.4 22.5Z" fill="#6FA4A3"/>
<path fill-rule="evenodd" clip-rule="evenodd" d="M30.4 34.6001C31.5 34.6001 32.3 35.5001 32.3 36.5001C32.3 37.6001 31.4 38.4001 30.4 38.4001C29.3 38.4001 28.5 37.5001 28.5 36.5001C28.4 35.5001 29.3 34.6001 30.4 34.6001Z" fill="#6FA4A3"/>
<path fill-rule="evenodd" clip-rule="evenodd" d="M30.4 46.2C31.5 46.2 32.3 47.0999 32.3 48.0999C32.3 49.1999 31.4 50 30.4 50C29.3 50 28.5 49.0999 28.5 48.0999C28.4 46.9999 29.3 46.2 30.4 46.2Z" fill="#6FA4A3"/>
<path fill-rule="evenodd" clip-rule="evenodd" d="M56.5 13.3C58 13.3 59.2 14.5 59.2 16C59.2 17.5 58 18.7 56.5 18.7C55 18.7 53.8 17.5 53.8 16C53.7 14.5 55 13.3 56.5 13.3Z" fill="#F8D1C4"/>
<path fill-rule="evenodd" clip-rule="evenodd" d="M56.5 23.5C58 23.5 59.2 24.7 59.2 26.2C59.2 27.7 58 28.9 56.5 28.9C55 28.9 53.8 27.7 53.8 26.2C53.7 24.7 55 23.5 56.5 23.5Z" fill="#F8D1C4"/>
<path fill-rule="evenodd" clip-rule="evenodd" d="M56.5 33.8C58 33.8 59.2 35 59.2 36.5C59.2 38 58 39.2001 56.5 39.2001C55 39.2001 53.8 38 53.8 36.5C53.7 35 55 33.8 56.5 33.8Z" fill="#F8D1C4"/>
<path fill-rule="evenodd" clip-rule="evenodd" d="M56.5 45.3999C57.6 45.3999 58.4 46.2999 58.4 47.2999C58.4 48.2999 57.5 49.1999 56.5 49.1999C55.4 49.1999 54.6 48.2999 54.6 47.2999C54.6 46.2999 55.4 45.3999 56.5 45.3999Z" fill="#F8D1C4"/>
<path fill-rule="evenodd" clip-rule="evenodd" d="M56.5 58.2C57.6 58.2 58.4 59.0999 58.4 60.0999C58.4 61.0999 57.5 62 56.5 62C55.4 62 54.6 61.0999 54.6 60.0999C54.6 59.0999 55.4 58.2 56.5 58.2Z" fill="#F8D1C4"/>
<path fill-rule="evenodd" clip-rule="evenodd" d="M56.5 82.7C57.2 82.7 57.8 83.3 57.8 84C57.8 84.7 57.2 85.3 56.5 85.3C55.8 85.3 55.2 84.7 55.2 84C55.2 83.3 55.8 82.7 56.5 82.7Z" fill="#F8D1C4"/>
<path fill-rule="evenodd" clip-rule="evenodd" d="M56.5 101.7C57.2 101.7 57.8 102.3 57.8 103C57.8 103.7 57.2 104.3 56.5 104.3C55.8 104.3 55.2 103.7 55.2 103C55.2 102.2 55.8 101.7 56.5 101.7Z" fill="#F8D1C4"/>
<path fill-rule="evenodd" clip-rule="evenodd" d="M56.5 110.6C57.2 110.6 57.8 111.2 57.8 111.9C57.8 112.6 57.2 113.2 56.5 113.2C55.8 113.2 55.2 112.6 55.2 111.9C55.2 111.2 55.8 110.6 56.5 110.6Z" fill="#F8D1C4"/>
<path fill-rule="evenodd" clip-rule="evenodd" d="M80.5 5.5C82 5.5 83.2 6.9 83.2 8.6C83.2 10.3 82 11.7 80.5 11.7C79 11.7 77.8 10.3 77.8 8.6C77.8 6.9 79 5.5 80.5 5.5Z" fill="#6FA4A3"/>
<path fill-rule="evenodd" clip-rule="evenodd" d="M99.5 9.30005C101 9.30005 102.2 10.5 102.2 12C102.2 13.5 101 14.7 99.5 14.7C98 14.7 96.8 13.5 96.8 12C96.8 10.5 98 9.30005 99.5 9.30005Z" fill="#F8D1C4"/>
<path fill-rule="evenodd" clip-rule="evenodd" d="M80.5 22.2C82 22.2 83.2 23.5999 83.2 25.2999C83.2 26.9999 82 28.4 80.5 28.4C79 28.4 77.8 26.9999 77.8 25.2999C77.8 23.5999 79 22.2 80.5 22.2Z" fill="#6FA4A3"/>
<path fill-rule="evenodd" clip-rule="evenodd" d="M99.5 22.1001C100.6 22.1001 101.4 23.0001 101.4 24.0001C101.4 25.1001 100.5 25.9001 99.5 25.9001C98.4 25.9001 97.6 25.0001 97.6 24.0001C97.6 22.9001 98.4 22.1001 99.5 22.1001Z" fill="#F8D1C4"/>
<path fill-rule="evenodd" clip-rule="evenodd" d="M99.5 41.8C100.6 41.8 101.4 42.7001 101.4 43.7001C101.4 44.7001 100.5 45.6 99.5 45.6C98.4 45.6 97.6 44.7001 97.6 43.7001C97.6 42.7001 98.4 41.8 99.5 41.8Z" fill="#F8D1C4"/>
<path fill-rule="evenodd" clip-rule="evenodd" d="M80.5 37.6001C81.6 37.6001 82.4 38.6001 82.4 39.8001C82.4 41.0001 81.5 42.0001 80.5 42.0001C79.4 42.0001 78.6 41.0001 78.6 39.8001C78.5 38.6001 79.4 37.6001 80.5 37.6001Z" fill="#6FA4A3"/>
<path fill-rule="evenodd" clip-rule="evenodd" d="M80.5 55.8999C81.6 55.8999 82.4 56.8999 82.4 58.0999C82.4 59.2999 81.5 60.2999 80.5 60.2999C79.4 60.2999 78.6 59.2999 78.6 58.0999C78.5 56.8999 79.4 55.8999 80.5 55.8999Z" fill="#6FA4A3"/>
<path fill-rule="evenodd" clip-rule="evenodd" d="M99.5 71.7C100.6 71.7 101.4 72.6 101.4 73.6C101.4 74.6 100.5 75.5 99.5 75.5C98.4 75.5 97.6 74.6 97.6 73.6C97.6 72.6 98.4 71.7 99.5 71.7Z" fill="#F8D1C4"/>
<path fill-rule="evenodd" clip-rule="evenodd" d="M99.5 85.5C100.2 85.5 100.8 86.1 100.8 86.8C100.8 87.5 100.2 88.1 99.5 88.1C98.8 88.1 98.2 87.5 98.2 86.8C98.2 86.1 98.8 85.5 99.5 85.5Z" fill="#F8D1C4"/>
<path fill-rule="evenodd" clip-rule="evenodd" d="M99.5 97.3999C100.2 97.3999 100.8 97.9999 100.8 98.6999C100.8 99.3999 100.2 99.9999 99.5 99.9999C98.8 99.9999 98.2 99.3999 98.2 98.6999C98.2 97.9999 98.8 97.3999 99.5 97.3999Z" fill="#F8D1C4"/>
<path fill-rule="evenodd" clip-rule="evenodd" d="M99.5 106.8C100.2 106.8 100.8 107.4 100.8 108.1C100.8 108.8 100.2 109.4 99.5 109.4C98.8 109.4 98.2 108.8 98.2 108.1C98.2 107.4 98.8 106.8 99.5 106.8Z" fill="#F8D1C4"/>
<path fill-rule="evenodd" clip-rule="evenodd" d="M124.8 3.80005C125.9 3.80005 126.7 4.70005 126.7 5.70005C126.7 6.80005 125.8 7.60005 124.8 7.60005C123.7 7.60005 122.9 6.70005 122.9 5.70005C122.8 4.70005 123.7 3.80005 124.8 3.80005Z" fill="#6FA4A3"/>
<path fill-rule="evenodd" clip-rule="evenodd" d="M124.8 20.3999C125.9 20.3999 126.7 21.2999 126.7 22.2999C126.7 23.3999 125.8 24.1999 124.8 24.1999C123.7 24.1999 122.9 23.2999 122.9 22.2999C122.8 21.2999 123.7 20.3999 124.8 20.3999Z" fill="#6FA4A3"/>
<path fill-rule="evenodd" clip-rule="evenodd" d="M124.8 32.5C125.9 32.5 126.7 33.4 126.7 34.4C126.7 35.4 125.8 36.3 124.8 36.3C123.7 36.3 122.9 35.4 122.9 34.4C122.9 33.4 123.7 32.5 124.8 32.5Z" fill="#6FA4A3"/>
<path fill-rule="evenodd" clip-rule="evenodd" d="M124.8 44.1001C125.5 44.1001 126.1 44.7001 126.1 45.4001C126.1 46.1001 125.5 46.7001 124.8 46.7001C124.1 46.7001 123.5 46.1001 123.5 45.4001C123.5 44.7001 124.1 44.1001 124.8 44.1001Z" fill="#6FA4A3"/>
<path fill-rule="evenodd" clip-rule="evenodd" d="M152.7 0C154.2 0 155.4 1.2 155.4 2.7C155.4 4.2 154.2 5.4 152.7 5.4C151.2 5.4 150 4.2 150 2.7C149.9 1.2 151.2 0 152.7 0Z" fill="#F8D1C4"/>
<path fill-rule="evenodd" clip-rule="evenodd" d="M152.7 17.5C154.2 17.5 155.4 18.7 155.4 20.2C155.4 21.7 154.2 22.9 152.7 22.9C151.2 22.9 150 21.7 150 20.2C149.9 18.8 151.2 17.5 152.7 17.5Z" fill="#F8D1C4"/>
<path fill-rule="evenodd" clip-rule="evenodd" d="M152.7 31.7C153.8 31.7 154.6 32.5999 154.6 33.5999C154.6 34.6999 153.7 35.5 152.7 35.5C151.6 35.5 150.8 34.5999 150.8 33.5999C150.7 32.5999 151.6 31.7 152.7 31.7Z" fill="#F8D1C4"/>
<path fill-rule="evenodd" clip-rule="evenodd" d="M152.7 53.1001C153.8 53.1001 154.6 54.0001 154.6 55.0001C154.6 56.1001 153.7 56.9001 152.7 56.9001C151.6 56.9001 150.8 56.0001 150.8 55.0001C150.7 53.9001 151.6 53.1001 152.7 53.1001Z" fill="#F8D1C4"/>
<path fill-rule="evenodd" clip-rule="evenodd" d="M152.7 71.6001C153.4 71.6001 154 72.2001 154 72.9001C154 73.6001 153.4 74.2001 152.7 74.2001C152 74.2001 151.4 73.6001 151.4 72.9001C151.4 72.2001 152 71.6001 152.7 71.6001Z" fill="#F8D1C4"/>
<path fill-rule="evenodd" clip-rule="evenodd" d="M152.7 89.6001C153.4 89.6001 154 90.2001 154 90.9001C154 91.6001 153.4 92.2001 152.7 92.2001C152 92.2001 151.4 91.6001 151.4 90.9001C151.4 90.2001 152 89.6001 152.7 89.6001Z" fill="#F8D1C4"/>
<path fill-rule="evenodd" clip-rule="evenodd" d="M179.1 10.6001C180.6 10.6001 181.8 11.8001 181.8 13.3001C181.8 14.8001 180.6 16.0001 179.1 16.0001C177.6 16.0001 176.4 14.8001 176.4 13.3001C176.3 11.9001 177.5 10.6001 179.1 10.6001Z" fill="#6FA4A3"/>
<path fill-rule="evenodd" clip-rule="evenodd" d="M179.1 22.5C180.2 22.5 181 23.4 181 24.4C181 25.5 180.1 26.3 179.1 26.3C178 26.3 177.2 25.4 177.2 24.4C177.1 23.4 178 22.5 179.1 22.5Z" fill="#6FA4A3"/>
<path fill-rule="evenodd" clip-rule="evenodd" d="M179.1 34.6001C180.2 34.6001 181 35.5001 181 36.5001C181 37.6001 180.1 38.4001 179.1 38.4001C178 38.4001 177.2 37.5001 177.2 36.5001C177.1 35.5001 178 34.6001 179.1 34.6001Z" fill="#6FA4A3"/>
<path fill-rule="evenodd" clip-rule="evenodd" d="M179.1 46.2C180.2 46.2 181 47.0999 181 48.0999C181 49.1999 180.1 50 179.1 50C178 50 177.2 49.0999 177.2 48.0999C177.1 46.9999 178 46.2 179.1 46.2Z" fill="#6FA4A3"/>
<path fill-rule="evenodd" clip-rule="evenodd" d="M205.2 13.3C206.7 13.3 207.9 14.5 207.9 16C207.9 17.5 206.7 18.7 205.2 18.7C203.7 18.7 202.5 17.5 202.5 16C202.4 14.5 203.6 13.3 205.2 13.3Z" fill="#F8D1C4"/>
<path fill-rule="evenodd" clip-rule="evenodd" d="M205.2 23.5C206.7 23.5 207.9 24.7 207.9 26.2C207.9 27.7 206.7 28.9 205.2 28.9C203.7 28.9 202.5 27.7 202.5 26.2C202.4 24.7 203.6 23.5 205.2 23.5Z" fill="#F8D1C4"/>
<path fill-rule="evenodd" clip-rule="evenodd" d="M205.2 33.8C206.7 33.8 207.9 35 207.9 36.5C207.9 38 206.7 39.2001 205.2 39.2001C203.7 39.2001 202.5 38 202.5 36.5C202.4 35 203.6 33.8 205.2 33.8Z" fill="#F8D1C4"/>
<path fill-rule="evenodd" clip-rule="evenodd" d="M205.2 45.3999C206.3 45.3999 207.1 46.2999 207.1 47.2999C207.1 48.2999 206.2 49.1999 205.2 49.1999C204.1 49.1999 203.3 48.2999 203.3 47.2999C203.3 46.2999 204.1 45.3999 205.2 45.3999Z" fill="#F8D1C4"/>
<path fill-rule="evenodd" clip-rule="evenodd" d="M205.2 58.2C206.3 58.2 207.1 59.0999 207.1 60.0999C207.1 61.0999 206.2 62 205.2 62C204.1 62 203.3 61.0999 203.3 60.0999C203.3 59.0999 204.1 58.2 205.2 58.2Z" fill="#F8D1C4"/>
<path fill-rule="evenodd" clip-rule="evenodd" d="M205.2 82.7C205.9 82.7 206.5 83.3 206.5 84C206.5 84.7 205.9 85.3 205.2 85.3C204.5 85.3 203.9 84.7 203.9 84C203.9 83.3 204.4 82.7 205.2 82.7Z" fill="#F8D1C4"/>
<path fill-rule="evenodd" clip-rule="evenodd" d="M205.2 101.7C205.9 101.7 206.5 102.3 206.5 103C206.5 103.7 205.9 104.3 205.2 104.3C204.5 104.3 203.9 103.7 203.9 103C203.9 102.2 204.4 101.7 205.2 101.7Z" fill="#F8D1C4"/>
<path fill-rule="evenodd" clip-rule="evenodd" d="M205.2 110.6C205.9 110.6 206.5 111.2 206.5 111.9C206.5 112.6 205.9 113.2 205.2 113.2C204.5 113.2 203.9 112.6 203.9 111.9C203.9 111.2 204.4 110.6 205.2 110.6Z" fill="#F8D1C4"/>
<path fill-rule="evenodd" clip-rule="evenodd" d="M231.7 12C233.2 12 234.4 13.2 234.4 14.7C234.4 16.2 233.2 17.4 231.7 17.4C230.2 17.4 229 16.2 229 14.7C229 13.2 230.1 12 231.7 12Z" fill="#6FA4A3"/>
<path fill-rule="evenodd" clip-rule="evenodd" d="M248.2 9.30005C249.7 9.30005 250.9 10.5 250.9 12C250.9 13.5 249.7 14.7 248.2 14.7C246.7 14.7 245.5 13.5 245.5 12C245.5 10.5 246.7 9.30005 248.2 9.30005Z" fill="#F8D1C4"/>
<path fill-rule="evenodd" clip-rule="evenodd" d="M231.7 26.8C233.2 26.8 234.4 28 234.4 29.5C234.4 31 233.2 32.2001 231.7 32.2001C230.2 32.2001 229 31 229 29.5C229 28 230.1 26.8 231.7 26.8Z" fill="#6FA4A3"/>
<path fill-rule="evenodd" clip-rule="evenodd" d="M248.2 22.1001C249.3 22.1001 250.1 23.0001 250.1 24.0001C250.1 25.1001 249.2 25.9001 248.2 25.9001C247.1 25.9001 246.3 25.0001 246.3 24.0001C246.3 22.9001 247.1 22.1001 248.2 22.1001Z" fill="#F8D1C4"/>
<path fill-rule="evenodd" clip-rule="evenodd" d="M248.2 41.8C249.3 41.8 250.1 42.7001 250.1 43.7001C250.1 44.7001 249.2 45.6 248.2 45.6C247.1 45.6 246.3 44.7001 246.3 43.7001C246.3 42.7001 247.1 41.8 248.2 41.8Z" fill="#F8D1C4"/>
<path fill-rule="evenodd" clip-rule="evenodd" d="M231.7 40.3999C232.8 40.3999 233.6 41.2999 233.6 42.2999C233.6 43.3999 232.7 44.1999 231.7 44.1999C230.6 44.1999 229.8 43.2999 229.8 42.2999C229.7 41.1999 230.6 40.3999 231.7 40.3999Z" fill="#6FA4A3"/>
<path fill-rule="evenodd" clip-rule="evenodd" d="M231.7 56.5C232.8 56.5 233.6 57.4 233.6 58.4C233.6 59.5 232.7 60.3 231.7 60.3C230.6 60.3 229.8 59.4 229.8 58.4C229.7 57.3 230.6 56.5 231.7 56.5Z" fill="#6FA4A3"/>
<path fill-rule="evenodd" clip-rule="evenodd" d="M248.2 71.7C249.3 71.7 250.1 72.6 250.1 73.6C250.1 74.6 249.2 75.5 248.2 75.5C247.1 75.5 246.3 74.6 246.3 73.6C246.3 72.6 247.1 71.7 248.2 71.7Z" fill="#F8D1C4"/>
<path fill-rule="evenodd" clip-rule="evenodd" d="M248.2 85.5C248.9 85.5 249.5 86.1 249.5 86.8C249.5 87.5 248.9 88.1 248.2 88.1C247.5 88.1 246.9 87.5 246.9 86.8C246.9 86.1 247.5 85.5 248.2 85.5Z" fill="#F8D1C4"/>
<path fill-rule="evenodd" clip-rule="evenodd" d="M248.2 97.3999C248.9 97.3999 249.5 97.9999 249.5 98.6999C249.5 99.3999 248.9 99.9999 248.2 99.9999C247.5 99.9999 246.9 99.3999 246.9 98.6999C246.9 97.9999 247.5 97.3999 248.2 97.3999Z" fill="#F8D1C4"/>
<path fill-rule="evenodd" clip-rule="evenodd" d="M248.2 106.8C248.9 106.8 249.5 107.4 249.5 108.1C249.5 108.8 248.9 109.4 248.2 109.4C247.5 109.4 246.9 108.8 246.9 108.1C246.9 107.4 247.5 106.8 248.2 106.8Z" fill="#F8D1C4"/>
<path fill-rule="evenodd" clip-rule="evenodd" d="M273.5 3.80005C274.6 3.80005 275.4 4.70005 275.4 5.70005C275.4 6.80005 274.5 7.60005 273.5 7.60005C272.4 7.60005 271.6 6.70005 271.6 5.70005C271.5 4.70005 272.4 3.80005 273.5 3.80005Z" fill="#6FA4A3"/>
<path fill-rule="evenodd" clip-rule="evenodd" d="M273.5 20.3999C274.6 20.3999 275.4 21.2999 275.4 22.2999C275.4 23.3999 274.5 24.1999 273.5 24.1999C272.4 24.1999 271.6 23.2999 271.6 22.2999C271.5 21.2999 272.4 20.3999 273.5 20.3999Z" fill="#6FA4A3"/>
<path fill-rule="evenodd" clip-rule="evenodd" d="M273.5 32.5C274.6 32.5 275.4 33.4 275.4 34.4C275.4 35.4 274.5 36.3 273.5 36.3C272.4 36.3 271.6 35.4 271.6 34.4C271.6 33.4 272.4 32.5 273.5 32.5Z" fill="#6FA4A3"/>
<path fill-rule="evenodd" clip-rule="evenodd" d="M273.5 44.1001C274.2 44.1001 274.8 44.7001 274.8 45.4001C274.8 46.1001 274.2 46.7001 273.5 46.7001C272.8 46.7001 272.2 46.1001 272.2 45.4001C272.2 44.7001 272.7 44.1001 273.5 44.1001Z" fill="#6FA4A3"/>
<path fill-rule="evenodd" clip-rule="evenodd" d="M302.7 0C304.2 0 305.4 1.2 305.4 2.7C305.4 4.2 304.2 5.4 302.7 5.4C301.2 5.4 300 4.2 300 2.7C299.9 1.2 301.2 0 302.7 0Z" fill="#F8D1C4"/>
<path fill-rule="evenodd" clip-rule="evenodd" d="M302.7 17.5C304.2 17.5 305.4 18.7 305.4 20.2C305.4 21.7 304.2 22.9 302.7 22.9C301.2 22.9 300 21.7 300 20.2C299.9 18.8 301.2 17.5 302.7 17.5Z" fill="#F8D1C4"/>
<path fill-rule="evenodd" clip-rule="evenodd" d="M302.7 31.7C303.8 31.7 304.6 32.5999 304.6 33.5999C304.6 34.6999 303.7 35.5 302.7 35.5C301.6 35.5 300.8 34.5999 300.8 33.5999C300.8 32.5999 301.6 31.7 302.7 31.7Z" fill="#F8D1C4"/>
<path fill-rule="evenodd" clip-rule="evenodd" d="M302.7 53.1001C303.8 53.1001 304.6 54.0001 304.6 55.0001C304.6 56.1001 303.7 56.9001 302.7 56.9001C301.6 56.9001 300.8 56.0001 300.8 55.0001C300.8 53.9001 301.6 53.1001 302.7 53.1001Z" fill="#F8D1C4"/>
<path fill-rule="evenodd" clip-rule="evenodd" d="M302.7 71.6001C303.4 71.6001 304 72.2001 304 72.9001C304 73.6001 303.4 74.2001 302.7 74.2001C302 74.2001 301.4 73.6001 301.4 72.9001C301.4 72.2001 302 71.6001 302.7 71.6001Z" fill="#F8D1C4"/>
<path fill-rule="evenodd" clip-rule="evenodd" d="M302.7 89.6001C303.4 89.6001 304 90.2001 304 90.9001C304 91.6001 303.4 92.2001 302.7 92.2001C302 92.2001 301.4 91.6001 301.4 90.9001C301.4 90.2001 302 89.6001 302.7 89.6001Z" fill="#F8D1C4"/>
<path fill-rule="evenodd" clip-rule="evenodd" d="M330.3 10.6001C331.8 10.6001 333 11.8001 333 13.3001C333 14.8001 331.8 16.0001 330.3 16.0001C328.8 16.0001 327.6 14.8001 327.6 13.3001C327.6 11.9001 328.8 10.6001 330.3 10.6001Z" fill="#6FA4A3"/>
<path fill-rule="evenodd" clip-rule="evenodd" d="M330.3 22.5C331.4 22.5 332.2 23.4 332.2 24.4C332.2 25.5 331.3 26.3 330.3 26.3C329.2 26.3 328.4 25.4 328.4 24.4C328.4 23.4 329.3 22.5 330.3 22.5Z" fill="#6FA4A3"/>
<path fill-rule="evenodd" clip-rule="evenodd" d="M330.3 34.6001C331.4 34.6001 332.2 35.5001 332.2 36.5001C332.2 37.6001 331.3 38.4001 330.3 38.4001C329.2 38.4001 328.4 37.5001 328.4 36.5001C328.4 35.5001 329.3 34.6001 330.3 34.6001Z" fill="#6FA4A3"/>
<path fill-rule="evenodd" clip-rule="evenodd" d="M330.3 46.2C331.4 46.2 332.2 47.0999 332.2 48.0999C332.2 49.1999 331.3 50 330.3 50C329.2 50 328.4 49.0999 328.4 48.0999C328.4 46.9999 329.3 46.2 330.3 46.2Z" fill="#6FA4A3"/>
<path fill-rule="evenodd" clip-rule="evenodd" d="M356.4 13.3C357.9 13.3 359.1 14.5 359.1 16C359.1 17.5 357.9 18.7 356.4 18.7C354.9 18.7 353.7 17.5 353.7 16C353.7 14.5 354.9 13.3 356.4 13.3Z" fill="#F8D1C4"/>
<path fill-rule="evenodd" clip-rule="evenodd" d="M356.4 23.5C357.9 23.5 359.1 24.7 359.1 26.2C359.1 27.7 357.9 28.9 356.4 28.9C354.9 28.9 353.7 27.7 353.7 26.2C353.7 24.7 354.9 23.5 356.4 23.5Z" fill="#F8D1C4"/>
<path fill-rule="evenodd" clip-rule="evenodd" d="M356.4 33.8C357.9 33.8 359.1 35 359.1 36.5C359.1 38 357.9 39.2001 356.4 39.2001C354.9 39.2001 353.7 38 353.7 36.5C353.7 35 354.9 33.8 356.4 33.8Z" fill="#F8D1C4"/>
<path fill-rule="evenodd" clip-rule="evenodd" d="M356.4 45.3999C357.5 45.3999 358.3 46.2999 358.3 47.2999C358.3 48.2999 357.4 49.1999 356.4 49.1999C355.3 49.1999 354.5 48.2999 354.5 47.2999C354.5 46.2999 355.3 45.3999 356.4 45.3999Z" fill="#F8D1C4"/>
<path fill-rule="evenodd" clip-rule="evenodd" d="M356.4 58.2C357.5 58.2 358.3 59.0999 358.3 60.0999C358.3 61.0999 357.4 62 356.4 62C355.3 62 354.5 61.0999 354.5 60.0999C354.5 59.0999 355.3 58.2 356.4 58.2Z" fill="#F8D1C4"/>
<path fill-rule="evenodd" clip-rule="evenodd" d="M356.4 82.7C357.1 82.7 357.7 83.3 357.7 84C357.7 84.7 357.1 85.3 356.4 85.3C355.7 85.3 355.1 84.7 355.1 84C355.1 83.3 355.7 82.7 356.4 82.7Z" fill="#F8D1C4"/>
<path fill-rule="evenodd" clip-rule="evenodd" d="M356.4 101.7C357.1 101.7 357.7 102.3 357.7 103C357.7 103.7 357.1 104.3 356.4 104.3C355.7 104.3 355.1 103.7 355.1 103C355.1 102.2 355.7 101.7 356.4 101.7Z" fill="#F8D1C4"/>
<path fill-rule="evenodd" clip-rule="evenodd" d="M356.4 110.6C357.1 110.6 357.7 111.2 357.7 111.9C357.7 112.6 357.1 113.2 356.4 113.2C355.7 113.2 355.1 112.6 355.1 111.9C355.1 111.2 355.7 110.6 356.4 110.6Z" fill="#F8D1C4"/>
<path fill-rule="evenodd" clip-rule="evenodd" d="M380.4 5.5C381.9 5.5 383.1 6.9 383.1 8.6C383.1 10.3 381.9 11.7 380.4 11.7C378.9 11.7 377.7 10.3 377.7 8.6C377.7 6.9 378.9 5.5 380.4 5.5Z" fill="#6FA4A3"/>
<path fill-rule="evenodd" clip-rule="evenodd" d="M399.5 9.30005C401 9.30005 402.2 10.5 402.2 12C402.2 13.5 401 14.7 399.5 14.7C398 14.7 396.8 13.5 396.8 12C396.7 10.5 397.9 9.30005 399.5 9.30005Z" fill="#F8D1C4"/>
<path fill-rule="evenodd" clip-rule="evenodd" d="M380.4 22.2C381.9 22.2 383.1 23.5999 383.1 25.2999C383.1 26.9999 381.9 28.4 380.4 28.4C378.9 28.4 377.7 26.9999 377.7 25.2999C377.7 23.5999 378.9 22.2 380.4 22.2Z" fill="#6FA4A3"/>
<path fill-rule="evenodd" clip-rule="evenodd" d="M399.5 22.1001C400.6 22.1001 401.4 23.0001 401.4 24.0001C401.4 25.1001 400.5 25.9001 399.5 25.9001C398.5 25.9001 397.6 25.0001 397.6 24.0001C397.5 22.9001 398.4 22.1001 399.5 22.1001Z" fill="#F8D1C4"/>
<path fill-rule="evenodd" clip-rule="evenodd" d="M399.5 41.8C400.6 41.8 401.4 42.7001 401.4 43.7001C401.4 44.7001 400.5 45.6 399.5 45.6C398.5 45.6 397.6 44.7001 397.6 43.7001C397.6 42.7001 398.4 41.8 399.5 41.8Z" fill="#F8D1C4"/>
<path fill-rule="evenodd" clip-rule="evenodd" d="M380.4 37.6001C381.5 37.6001 382.3 38.6001 382.3 39.8001C382.3 41.0001 381.4 42.0001 380.4 42.0001C379.3 42.0001 378.5 41.0001 378.5 39.8001C378.5 38.6001 379.4 37.6001 380.4 37.6001Z" fill="#6FA4A3"/>
<path fill-rule="evenodd" clip-rule="evenodd" d="M380.4 55.8999C381.5 55.8999 382.3 56.8999 382.3 58.0999C382.3 59.2999 381.4 60.2999 380.4 60.2999C379.3 60.2999 378.5 59.2999 378.5 58.0999C378.5 56.8999 379.4 55.8999 380.4 55.8999Z" fill="#6FA4A3"/>
<path fill-rule="evenodd" clip-rule="evenodd" d="M399.5 71.7C400.6 71.7 401.4 72.6 401.4 73.6C401.4 74.6 400.5 75.5 399.5 75.5C398.5 75.5 397.6 74.6 397.6 73.6C397.6 72.6 398.4 71.7 399.5 71.7Z" fill="#F8D1C4"/>
<path fill-rule="evenodd" clip-rule="evenodd" d="M399.5 85.5C400.2 85.5 400.8 86.1 400.8 86.8C400.8 87.5 400.2 88.1 399.5 88.1C398.8 88.1 398.2 87.5 398.2 86.8C398.2 86.1 398.8 85.5 399.5 85.5Z" fill="#F8D1C4"/>
<path fill-rule="evenodd" clip-rule="evenodd" d="M399.5 97.3999C400.2 97.3999 400.8 97.9999 400.8 98.6999C400.8 99.3999 400.2 99.9999 399.5 99.9999C398.8 99.9999 398.2 99.3999 398.2 98.6999C398.2 97.9999 398.8 97.3999 399.5 97.3999Z" fill="#F8D1C4"/>
<path fill-rule="evenodd" clip-rule="evenodd" d="M399.5 106.8C400.2 106.8 400.8 107.4 400.8 108.1C400.8 108.8 400.2 109.4 399.5 109.4C398.8 109.4 398.2 108.8 398.2 108.1C398.2 107.4 398.8 106.8 399.5 106.8Z" fill="#F8D1C4"/>
<path fill-rule="evenodd" clip-rule="evenodd" d="M424.7 3.80005C425.8 3.80005 426.6 4.70005 426.6 5.70005C426.6 6.80005 425.7 7.60005 424.7 7.60005C423.6 7.60005 422.8 6.70005 422.8 5.70005C422.8 4.70005 423.7 3.80005 424.7 3.80005Z" fill="#6FA4A3"/>
<path fill-rule="evenodd" clip-rule="evenodd" d="M424.7 20.3999C425.8 20.3999 426.6 21.2999 426.6 22.2999C426.6 23.3999 425.7 24.1999 424.7 24.1999C423.6 24.1999 422.8 23.2999 422.8 22.2999C422.8 21.2999 423.7 20.3999 424.7 20.3999Z" fill="#6FA4A3"/>
<path fill-rule="evenodd" clip-rule="evenodd" d="M424.7 32.5C425.8 32.5 426.6 33.4 426.6 34.4C426.6 35.4 425.7 36.3 424.7 36.3C423.6 36.3 422.8 35.4 422.8 34.4C422.8 33.4 423.7 32.5 424.7 32.5Z" fill="#6FA4A3"/>
<path fill-rule="evenodd" clip-rule="evenodd" d="M424.7 44.1001C425.4 44.1001 426 44.7001 426 45.4001C426 46.1001 425.4 46.7001 424.7 46.7001C424 46.7001 423.4 46.1001 423.4 45.4001C423.4 44.7001 424 44.1001 424.7 44.1001Z" fill="#6FA4A3"/>
</g>
<defs>
<clipPath id="clip0">
<rect width="874" height="113.2" fill="white"/>
</clipPath>
</defs>
</svg>
