<?xml version="1.0" encoding="utf-8"?>
<!-- Generator: Adobe Illustrator 24.0.1, SVG Export Plug-In . SVG Version: 6.00 Build 0)  -->
<svg version="1.1" id="Layer_1" xmlns="http://www.w3.org/2000/svg" xmlns:xlink="http://www.w3.org/1999/xlink" x="0px" y="0px"
	 viewBox="0 0 15 36" style="enable-background:new 0 0 15 36;" xml:space="preserve">
<style type="text/css">
	.st0{fill:#53BCBA;}
</style>
<g>
	<path class="st0" d="M14.4,0.3H1c-0.2,0-0.3,0.2-0.3,0.3v1.6c0,0.2,0.2,0.3,0.3,0.3h13.4c0.2,0,0.3-0.2,0.3-0.3V0.6
		c0-0.1,0-0.2-0.1-0.2C14.6,0.3,14.5,0.3,14.4,0.3z"/>
	<path class="st0" d="M1,35.8h13.4c0.2,0,0.3-0.2,0.3-0.3v-1.6c0-0.1,0-0.2-0.1-0.3c-0.1-0.1-0.1-0.1-0.2-0.1H1
		c-0.2,0-0.3,0.2-0.3,0.3v1.6C0.7,35.6,0.8,35.8,1,35.8z"/>
	<path class="st0" d="M6.9,30.5c0.4,0.4,1.2,0.4,1.6,0l4.1-4.1c0.3-0.3,0.3-0.6,0.3-0.8c0-0.3-0.1-0.5-0.3-0.8
		c-0.4-0.4-1.1-0.4-1.6,0l-2.2,2.2V9l2.2,2.2c0.4,0.4,1.2,0.4,1.6,0c0.4-0.4,0.4-1.1,0-1.6L8.4,5.5C8,5.1,7.3,5.1,6.9,5.5L2.8,9.6
		c-0.3,0.3-0.3,0.6-0.3,0.8s0.1,0.5,0.3,0.8c0.4,0.4,1.2,0.4,1.6,0l2.2-2.2v18l-2.3-2.2c-0.2-0.2-0.5-0.3-0.8-0.3
		c-0.3,0-0.6,0.1-0.8,0.3c-0.2,0.2-0.3,0.5-0.3,0.8c0,0.3,0.1,0.6,0.3,0.8L6.9,30.5z"/>
</g>
</svg>
