<?xml version="1.0" encoding="utf-8"?>
<!-- Generator: Adobe Illustrator 24.0.1, SVG Export Plug-In . SVG Version: 6.00 Build 0)  -->
<svg version="1.1" id="Layer_1" xmlns="http://www.w3.org/2000/svg" xmlns:xlink="http://www.w3.org/1999/xlink" x="0px" y="0px"
	 viewBox="0 0 42.2 19.8" style="enable-background:new 0 0 42.2 19.8;" xml:space="preserve">
<style type="text/css">
	.st0{fill:#56B9B7;}
</style>
<path class="st0" d="M27.2,13.4c0.2-0.3,0.5-0.3,0.8-0.2c0.3,0.2,0.4,0.5,0.2,0.8c-0.7,1.2-1.6,2.1-2.8,2.8
	c-0.1,0.1-0.2,0.1-0.3,0.1c-0.2,0-0.4-0.1-0.5-0.3c-0.2-0.3-0.1-0.6,0.2-0.8C25.8,15.2,26.6,14.4,27.2,13.4z M19.7,1.9
	c-1.1,0.2-2.2,0.6-3.1,1.2c-0.3,0.2-0.3,0.5-0.1,0.8c0.1,0.2,0.3,0.2,0.5,0.2c0.1,0,0.2,0,0.3-0.1C18,3.5,18.9,3.2,19.9,3
	c0.1,0,0.3-0.1,0.4-0.2c0.1-0.1,0.1-0.3,0.1-0.4C20.3,2.1,20,1.9,19.7,1.9z M31,9.9c0,5.5-4.4,9.9-9.9,9.9s-9.9-4.4-9.9-9.9
	S15.7,0,21.1,0S31,4.4,31,9.9z M21.1,1.5c-4.6,0-8.4,3.8-8.4,8.4s3.8,8.4,8.4,8.4s8.4-3.8,8.4-8.4S25.7,1.5,21.1,1.5z M42.2,9.8
	c-0.1,0.8-0.5,1.5-0.8,1.9c0.9,2.2-0.6,4.1-0.6,4.1l-0.4,0.5l-0.1,0l-9.2-4.5l0.1-0.6c0.1-0.5,0.1-1,0.1-1.4c0-0.5,0-1-0.1-1.4
	l-0.1-0.6l0.1,0l9.2-4.5l0.4,0.5c0.1,0.1,1.6,2,0.6,4.1c0.4,0.4,0.8,1.1,0.8,1.9V9.8L42.2,9.8z M40.7,9.8C40.6,9.1,40,8.6,40,8.6
	l-0.5-0.4l0.3-0.6c0.6-0.9,0.4-1.8,0.1-2.4l-7,3.5c0.1,0.4,0.1,0.8,0.1,1.2c0,0.4,0,0.8-0.1,1.2l7,3.5c0.3-0.5,0.5-1.5-0.1-2.4
	l-0.4-0.6L40,11C40,11,40.6,10.5,40.7,9.8z M11,8.3c-0.1,0.5-0.1,1-0.1,1.4c0,0.5,0,1,0.1,1.4l0.1,0.6l-0.1,0l-9.2,4.5l-0.4-0.5
	c-0.1-0.1-1.6-2-0.6-4.1C0.5,11.3,0.1,10.7,0,9.8l0,0l0-0.1c0.1-0.8,0.5-1.5,0.8-1.9c-0.9-2.2,0.6-4.1,0.6-4.1l0.4-0.5l9.2,4.6
	L11,8.3z M2.3,14.4l7-3.5c-0.1-0.4-0.1-0.8-0.1-1.2c0-0.4,0-0.8,0.1-1.2l-7-3.5C2.1,5.7,1.8,6.6,2.4,7.6l0.4,0.6L2.2,8.6
	C2.1,8.6,1.6,9.2,1.5,9.8C1.6,10.5,2.2,11,2.2,11l0.5,0.4L2.4,12C1.9,12.9,2.1,13.8,2.3,14.4z M21.1,1.8c-0.3,0-0.5,0.2-0.5,0.5
	s0.2,0.5,0.5,0.5s0.5-0.2,0.5-0.5S21.4,1.8,21.1,1.8z M28.2,13.1c0.3,0,0.5-0.2,0.5-0.5S28.5,12,28.2,12s-0.5,0.2-0.5,0.5
	S27.9,13.1,28.2,13.1z M4,8.8l2.5,0.6c0,0,0.1,0,0.1,0c0.2,0,0.5-0.2,0.5-0.4c0.1-0.3-0.1-0.6-0.4-0.7L4.3,7.8
	C4,7.7,3.7,7.9,3.6,8.2C3.6,8.5,3.7,8.8,4,8.8z M6.6,10.1l-2.5,0.5c-0.3,0.1-0.5,0.4-0.4,0.7c0.1,0.3,0.3,0.4,0.5,0.4
	c0,0,0.1,0,0.1,0l2.5-0.5c0.3-0.1,0.5-0.4,0.4-0.7C7.2,10.3,6.9,10.1,6.6,10.1z M37.9,7.8l-2.5,0.6c-0.1,0-0.3,0.1-0.3,0.3
	C35,8.8,35,9,35,9.1c0.1,0.2,0.3,0.4,0.5,0.4c0,0,0.1,0,0.1,0l2.5-0.6c0.1,0,0.3-0.1,0.3-0.3c0.1-0.1,0.1-0.3,0.1-0.4
	C38.5,7.9,38.2,7.7,37.9,7.8z M38.1,10.7l-2.5-0.5c-0.3-0.1-0.6,0.1-0.7,0.4c-0.1,0.3,0.1,0.6,0.4,0.7l2.5,0.5c0,0,0.1,0,0.1,0
	c0.3,0,0.5-0.2,0.5-0.4C38.6,11.1,38.4,10.8,38.1,10.7z"/>
</svg>
