<?xml version="1.0" encoding="utf-8"?>
<!-- Generator: Adobe Illustrator 24.0.1, SVG Export Plug-In . SVG Version: 6.00 Build 0)  -->
<svg version="1.1" id="Layer_1" xmlns="http://www.w3.org/2000/svg" xmlns:xlink="http://www.w3.org/1999/xlink" x="0px" y="0px"
	 viewBox="0 0 24.5 27.2" style="enable-background:new 0 0 24.5 27.2;" xml:space="preserve">
<style type="text/css">
	.st0{fill:#56B9B7;}
</style>
<g>
	<path class="st0" d="M18.7,19.5c0.2,1.4,0.2,1.6-0.8,2.5c0.5,1,0.3,1.8-0.6,2.5c0.1,0.3,0.2,0.5,0.2,0.7c0.2,1-0.5,1.9-1.5,1.9
		c-2.4,0-4.9,0-7.3,0c-0.9,0-1.6-0.4-2.2-1c-0.5-0.5-1.2-0.6-1.9-0.6c-0.1,0-0.3,0.2-0.4,0.3c-0.2,0.2-0.4,0.4-0.7,0.4
		c-0.9,0.1-1.8,0-2.8,0c-0.5,0-0.7-0.2-0.7-0.7c0-1.2,0-2.5,0-3.7c0-0.2,0.2-0.4,0.4-0.6c0.1,0.2,0.4,0.4,0.4,0.6c0,1.2,0,2.4,0,3.6
		c0.9,0,1.7,0,2.5,0c0-3.1,0-6.1,0-9.2c-0.8,0-1.6,0-2.5,0c0,0.3,0,0.7,0,1c0,0.8,0,1.7,0,2.5c0,0.2-0.2,0.3-0.4,0.5
		C0.3,20.1,0,20,0,19.8c0-1.2,0-2.5,0-3.7c0-0.4,0.2-0.6,0.6-0.6c1,0,2,0,3,0c0.2,0,0.5,0.2,0.5,0.3c0.1,0.4,0.4,0.4,0.7,0.4
		c0.3,0,0.6,0,0.9,0c1.9-0.3,2.6-1.1,2.9-3c0-0.1,0-0.2,0-0.4c0.2-1.2,1.3-1.6,2.2-0.8c1.1,1,1.4,2.2,1.3,3.6c0,0.2-0.1,0.3-0.1,0.5
		c1.8,0,3.6,0,5.4,0c0-0.7,0-1.3,0-1.9c-0.7-0.3-1.4-0.4-2-0.7c-1.3-0.7-2-1.8-2-3.3c0-2.6,0-5.3,0-7.9c0-1.3,1-2.3,2.3-2.3
		c2.1,0,4.3,0,6.4,0c1.3,0,2.3,1,2.3,2.3c0,2.6,0,5.2,0,7.8c0,2-1.5,3.6-3.5,3.9c-0.4,0.1-0.6,0.2-0.5,0.6c0,0.2,0,0.4,0,0.6
		c0,0.6,0,1,0.7,1.2c0.7,0.2,1,1,0.8,1.7c-0.1,0.8-0.7,1.3-1.5,1.4C19.9,19.6,19.3,19.5,18.7,19.5z M11.2,21.8
		c-0.2-0.4-0.4-0.7-0.4-1c-0.2-1.1,0.6-2,1.9-2c2.4,0,4.8,0,7.2,0c0.3,0,0.6,0.1,0.7-0.1c0.2-0.2,0.5-0.5,0.6-0.7
		c0-0.3-0.2-0.6-0.5-0.8c-0.3-0.2-0.5,0-0.7,0.3c-0.6,0.6-1.5,0.6-2.1,0c-0.2-0.2-0.5-0.3-0.8-0.3c-1.8,0-3.6,0-5.4,0
		c-0.8,0-0.9-0.2-0.6-0.9c0.4-1,0.3-2.1-0.4-3c-0.2-0.3-0.6-0.5-1-0.7c-0.1,0.3-0.4,0.6-0.4,1C9,15.7,7.7,16.8,5.1,17
		c-0.3,0-0.6,0-0.9,0c0,2.6,0,5,0,7.5c0,0.4,0.3,0.4,0.5,0.4c0.8,0,1.6,0.2,2.2,0.8c1.2,1,2.5,0.9,4,0.8c-0.3-0.8-0.2-1.5,0.4-2.1
		C10.5,23.4,10.6,22.5,11.2,21.8z M20.5,13.3c0.2,0,0.4,0,0.6-0.1c1.5-0.4,2.4-1.6,2.5-3.2c0-2.5,0-4.9,0-7.4c0-1.2-0.6-1.8-1.8-1.8
		c-2,0-3.9,0-5.9,0c-1.2,0-1.8,0.6-1.8,1.8c0,1.6,0,3.3,0,4.9c0,0.9,0,1.9,0,2.8c0.1,1.7,1.7,3.1,3.2,2.9c0-0.4-0.1-0.9,0-1.3
		c0.1-0.6,0.6-0.5,1.1-0.5c0.5,0,1.3-0.1,1.6,0.2C20.4,11.9,20.4,12.6,20.5,13.3z M14.8,21.3c0.7,0,1.5,0,2.2,0c0.6,0,1-0.3,1-0.8
		c0-0.5-0.4-0.9-1-0.9c-1.5,0-3,0-4.5,0c-0.6,0-1,0.4-1,0.9c0,0.5,0.4,0.9,1,0.9C13.3,21.3,14,21.3,14.8,21.3z M14.5,22.1
		c-0.6,0-1.3,0-1.9,0c-0.6,0-1,0.4-1,0.9c0,0.5,0.4,0.9,1,0.9c1.3,0,2.6,0,3.9,0c0.6,0,1-0.4,1-0.9c0-0.5-0.3-0.8-1-0.9
		C15.8,22.1,15.1,22.1,14.5,22.1z M14.1,24.7C14.1,24.7,14.1,24.7,14.1,24.7c-0.5,0-1.1,0-1.6,0c-0.6,0-1,0.4-1,0.9
		c0,0.5,0.4,0.9,1,0.9c1.1,0,2.2,0,3.4,0c0.6,0,0.9-0.4,0.9-0.8c0-0.5-0.3-0.9-1-0.9C15.3,24.6,14.7,24.7,14.1,24.7z M18.2,12.1
		c0,1.4,0,2.7,0,4c0,0.5,0.2,0.8,0.7,0.8c0.5,0,0.7-0.4,0.7-0.8c0-1,0-2,0-2.9c0-0.3,0-0.7,0-1.1C19.1,12.1,18.7,12.1,18.2,12.1z"/>
	<path class="st0" d="M16.2,5.3c0.6,0,1.1,0,1.6,0c0.2,0,0.4,0.2,0.5,0.4c-0.2,0.1-0.4,0.3-0.6,0.4c-0.5,0-1.1,0-1.7,0
		c-0.5,0-0.7-0.2-0.8-0.7c0-0.8,0-1.7,0-2.5c0-0.5,0.3-0.7,0.7-0.7c1.8,0,3.6,0,5.4,0c0.5,0,0.7,0.3,0.7,0.7c0,0.8,0,1.7,0,2.5
		c0,0.4-0.2,0.7-0.6,0.7c-0.6,0-1.1,0-1.7,0c-0.2,0-0.3-0.2-0.4-0.3c0.2-0.1,0.3-0.4,0.5-0.4c0.3-0.1,0.7,0,1.1,0
		c0.2,0,0.4-0.2,0.4-0.4c0-0.5,0-1.1,0-1.6c0-0.1-0.2-0.4-0.4-0.4c-1.5,0-3,0-4.5,0c-0.1,0-0.3,0.2-0.4,0.3
		C16.2,3.9,16.2,4.6,16.2,5.3z"/>
	<path class="st0" d="M16.9,7.6c0.8,0,1.5,0.7,1.4,1.5c0,0.8-0.7,1.4-1.4,1.4c-0.8,0-1.5-0.7-1.4-1.5C15.5,8.3,16.1,7.6,16.9,7.6z
		 M17.6,9.2c0-0.1,0-0.2,0-0.3c-0.2-0.2-0.5-0.5-0.7-0.5c-0.4-0.1-0.6,0.2-0.6,0.6c0,0.4,0.2,0.7,0.6,0.6
		C17.1,9.7,17.4,9.4,17.6,9.2z"/>
	<path class="st0" d="M22.3,9.1c0,0.8-0.7,1.5-1.5,1.5c-0.8,0-1.4-0.7-1.4-1.4c0-0.8,0.7-1.5,1.5-1.5C21.7,7.6,22.3,8.3,22.3,9.1z
		 M21,8.3c-0.1,0-0.2,0-0.3,0c-0.2,0.2-0.4,0.5-0.5,0.7c0,0.4,0.2,0.7,0.7,0.6c0.4,0,0.6-0.3,0.6-0.7C21.5,8.8,21.2,8.6,21,8.3z"/>
</g>
</svg>
