<?xml version="1.0" encoding="utf-8"?>
<!-- Generator: Adobe Illustrator 24.0.1, SVG Export Plug-In . SVG Version: 6.00 Build 0)  -->
<svg version="1.1" id="Layer_1" xmlns="http://www.w3.org/2000/svg" xmlns:xlink="http://www.w3.org/1999/xlink" x="0px" y="0px"
	 viewBox="0 0 38 38" style="enable-background:new 0 0 38 38;" xml:space="preserve">
<style type="text/css">
	.st0{fill:#57B8B6;}
</style>
<path class="st0" d="M37.9,25.6C36.2,12.5,25.5,1.8,12.5,0.1C10.4-0.4,8.8,1,8.6,2.9C8.5,3.7,8.7,4.5,9.2,5L0,37
	c-0.1,0.3,0,0.6,0.2,0.8C0.5,38,0.8,38,1,38L33,28.9c0.7,0.4,1.4,0.7,2.2,0.6C36.9,29.3,38.3,27.7,37.9,25.6z M8.6,12.5
	c0.9,0.4,1.4,1.3,1.4,2.3c0,1.4-1.2,2.6-2.6,2.6c-0.1,0-0.1,0-0.2,0L8.6,12.5z M6.8,18.8c0.2,0,0.4,0.1,0.7,0.1
	c2.3,0,4.2-1.9,4.2-4.2c0-1.7-1-3.2-2.6-3.8l1.4-4.8c0.3,0.1,0.4,0.2,0.9,0.2c10.5,1.2,19.1,9.8,20.3,20.3c0,0.3,0.1,0.6,0.2,0.9
	l-2.4,0.7c-0.7-2.2-2.8-3.8-5.1-3.8c-3,0-5.4,2.4-5.4,5.4c0,0.4,0.1,0.9,0.1,1.3L2,36L6.8,18.8z M20.7,30.7
	c-0.1-0.3-0.1-0.6-0.1-0.9c0-2.1,1.7-3.8,3.8-3.8c1.7,0,3.1,1.1,3.6,2.6L20.7,30.7z M35,27.9c-0.9,0.1-1.7-0.6-1.8-1.4
	C31.9,15.3,22.8,6.1,11.6,4.8C10.7,4.8,10,4,10.2,3.1c0.1-0.8,0.8-1.6,2.1-1.3c12.4,1.6,22.5,11.8,24.1,24.2
	C36.6,27.1,35.8,27.8,35,27.9z"/>
<path class="st0" d="M7.9,26c-1.8,0-3.2,1.5-3.2,3.2c0,1.8,1.5,3.2,3.2,3.2c1.8,0,3.2-1.5,3.2-3.2C11.2,27.5,9.7,26,7.9,26z
	 M7.9,30.9c-0.9,0-1.7-0.7-1.7-1.7s0.7-1.7,1.7-1.7c0.9,0,1.7,0.7,1.7,1.7S8.9,30.9,7.9,30.9z"/>
<path class="st0" d="M24.3,20.7c1.4,0,2.6-1.2,2.6-2.6c0-1.4-1.2-2.6-2.6-2.6c-1.4,0-2.6,1.2-2.6,2.6C21.8,19.5,23,20.7,24.3,20.7z
	 M24.3,17.2c0.5,0,0.9,0.4,0.9,0.9c0,0.5-0.4,0.9-0.9,0.9c-0.5,0-0.9-0.4-0.9-0.9C23.4,17.6,23.8,17.2,24.3,17.2z"/>
<path class="st0" d="M16,15.6c-2,0-3.6,1.6-3.6,3.6s1.6,3.6,3.6,3.6c2,0,3.6-1.6,3.6-3.6S18,15.6,16,15.6z M16,21.3
	c-1.1,0-2-0.9-2-2c0-1.1,0.9-2,2-2c1.2,0,2,0.9,2,2C18.1,20.3,17.1,21.3,16,21.3z"/>
<path class="st0" d="M16,11.1c0.9,0,1.8,0.8,1.8,1.8c0,0.4,0.4,0.8,0.8,0.8c0.4,0,0.8-0.4,0.8-0.8c0-1.8-1.5-3.4-3.4-3.4
	c-0.4,0-0.8,0.4-0.8,0.8C15.2,10.7,15.6,11.1,16,11.1z"/>
<path class="st0" d="M14.1,24.7l-1.5,1.7c-0.3,0.3-0.3,0.8,0.1,1.1c0.3,0.3,0.8,0.3,1.1-0.1l1.5-1.7c0.3-0.3,0.3-0.8-0.1-1.1
	C14.9,24.4,14.4,24.4,14.1,24.7z"/>
</svg>
