<?xml version="1.0" encoding="utf-8"?>
<!-- Generator: Adobe Illustrator 24.0.1, SVG Export Plug-In . SVG Version: 6.00 Build 0)  -->
<svg version="1.1" id="Layer_1" xmlns="http://www.w3.org/2000/svg" xmlns:xlink="http://www.w3.org/1999/xlink" x="0px" y="0px"
	 viewBox="0 0 28 38" style="enable-background:new 0 0 28 38;" xml:space="preserve">
<style type="text/css">
	.st0{fill:#57B8B7;}
</style>
<path class="st0" d="M27,8V3.4C27,1.5,25.5,0,23.6,0c-1.7,0-3.1,1.3-3.3,2.9H6.7C6.5,1.3,5.1,0,3.4,0C1.5,0,0,1.5,0,3.4V8
	c0,4.4,2,8.3,5.1,11C2,21.7,0,25.6,0,30v4.6C0,36.5,1.5,38,3.4,38c1.7,0,3.1-1.3,3.3-3h13.6c0.2,1.6,1.6,3,3.3,3
	c1.9,0,3.4-1.5,3.4-3.4V30c0-4.4-2-8.3-5.1-11C25,16.3,27,12.4,27,8z M6.8,4.6h13.5v2.5H6.8V4.6z M7.5,11.4
	c-0.4-0.8-0.6-1.6-0.7-2.5h13.4c-0.1,0.9-0.3,1.7-0.7,2.5H7.5z M18.4,13.1c-1.2,1.4-2.9,2.3-4.9,2.5c-1.9-0.2-3.6-1.1-4.9-2.5H18.4z
	 M1.7,8V3.4c0-0.9,0.8-1.7,1.7-1.7s1.7,0.8,1.7,1.7V8c0,3.6,2,6.7,5,8.2c-1.3,0.4-2.4,1-3.5,1.7C3.5,15.6,1.7,12,1.7,8z M20.3,33.4
	H6.8v-2.5h13.5V33.4z M19.5,26.6c0.4,0.8,0.6,1.6,0.7,2.5H6.8c0.1-0.9,0.3-1.8,0.7-2.5H19.5z M8.7,24.9c1.2-1.4,2.9-2.3,4.8-2.5
	c1.9,0.2,3.6,1.1,4.8,2.5H8.7z M25.3,30v4.6c0,0.9-0.8,1.7-1.7,1.7c-0.9,0-1.7-0.8-1.7-1.7V30c0-3.6-2-6.7-5-8.2
	c1.3-0.4,2.4-1,3.5-1.7C23.5,22.4,25.3,26,25.3,30z M13.5,20.7c-0.1,0-0.2,0-0.3,0.1c-4.6,0.6-8.1,4.5-8.1,9.2v4.6
	c0,0.9-0.8,1.7-1.7,1.7s-1.7-0.8-1.7-1.7V30c0-6.7,5.2-12.2,11.9-12.7c0.1,0,0.2,0,0.3-0.1C18.5,16.6,22,12.8,22,8V3.4
	c0-0.9,0.8-1.7,1.7-1.7c0.9,0,1.7,0.8,1.7,1.7V8C25.3,14.7,20.1,20.3,13.5,20.7z"/>
</svg>
