<?xml version="1.0" encoding="utf-8"?>
<!-- Generator: Adobe Illustrator 24.0.1, SVG Export Plug-In . SVG Version: 6.00 Build 0)  -->
<svg version="1.1" id="Layer_1" xmlns="http://www.w3.org/2000/svg" xmlns:xlink="http://www.w3.org/1999/xlink" x="0px" y="0px"
	 viewBox="0 0 67.5 75" style="enable-background:new 0 0 67.5 75;" xml:space="preserve">
<style type="text/css">
	.st0{fill:#58B7B6;}
</style>
<path class="st0" d="M27.8,62.1c-1.1,3.7-1.5,7.2-1.5,10.8c0,1.9-0.2,2.1-2.1,2.1c-1.4,0-2.7,0-4.1,0c-0.8,0-1.3-0.4-1.3-1.2
	c0-4.6-0.1-9.2,0.2-13.7c0.2-4.3,1.4-8.4,3.1-12.3c0.1-0.2,0.1-0.4,0.3-0.8c-3.3-0.3-6.5-0.5-9.8-0.8c0,0.6,0,0.9,0,1.2
	c0,7,0,14,0,21c0,3.4-2.1,6-5.2,6.5c-3.6,0.7-7.1-2.1-7.3-5.8c0-0.2,0-0.5,0-0.7C0,47.8,0,27.2,0,6.5c0-1.4,0.3-2.6,1.1-3.8
	c1.6-2.3,4.4-3.3,7-2.5c2.7,0.8,4.4,3.2,4.4,6.1c0,9.9,0,19.9,0,29.8c0,0.4,0,0.8,0,1.2c0.2,0,0.3,0.1,0.4,0.1
	c4.6,0.4,9.1,0.8,13.7,1.1c0.3,0,0.6-0.1,0.8-0.3c0.3-0.4,0.5-0.8,0.8-1.3c-0.7-0.5-1.3-1-1.9-1.4c-0.1-0.1-0.4-0.1-0.5,0
	c-4.1,1.8-6.6-0.1-8.4-2.8c-2.9-4.4-3.8-9.4-3.5-14.6c0.2-3.4,0.8-6.7,2.4-9.7c2.3-4.3,5.9-6.8,10.6-7.8c7.6-1.7,14.4,0,20.1,5.5
	c1.8,1.7,3.1,3.6,3.2,6.1c0,0.3,0.5,0.7,0.9,1c4.3,2.9,8,6.4,10.9,10.7c3.7,5.5,5.5,11.5,5.6,18.1c0.1,5.7-0.5,11.3-2.2,16.8
	c-1.4,4.5-3.5,8.5-6.9,11.8c-3.1,2.9-6.8,4.6-11.1,4.5c-4.5,0-8.7-0.8-12.6-3.2c-3.5-2-5.7-5-6.7-8.9C27.9,62.7,27.9,62.6,27.8,62.1
	z M35.1,37.2c0.1-0.3,0.1-0.5,0.2-0.7c0.8-3.1,3.7-5.3,6.9-5.2c0.9,0,1.5,0.5,1.5,1.2c0,0.7-0.5,1.2-1.4,1.3c-0.1,0-0.3,0-0.4,0
	c-2.4,0.2-4.4,2.1-4.3,4.4c0.1,2.8,0.3,5.5,0.6,8.3c0.4,3,2.3,4.6,5.3,4.8c0.9,0.1,1.5,0.5,1.5,1.3c0,0.8-0.6,1.2-1.6,1.2
	c-2.5-0.1-4.5-1.1-6.1-3c-0.3-0.3-0.4-0.7-1-0.5c-3.4,1.4-5.8,3.8-6.2,7.5c-0.6,5.1,1.4,9.1,5.8,11.9c3.3,2,6.9,2.7,10.7,2.9
	c3.4,0.2,6.4-0.8,9-2.9c3.4-2.7,5.5-6.4,6.9-10.5c1.5-4.2,2-8.5,2.4-12.8c0.7-9.3-1.6-17.6-7.9-24.6c-2.1-2.4-4.5-4.5-7.2-6.2
	c-0.1,0.2-0.2,0.3-0.2,0.4c-1.8,4-5,5.7-9.3,5.1c-0.9-0.1-1.9-0.3-2.8-0.4c-0.3,0.8-0.6,1.5-1,2.2c-1.3,2.3-3.4,3.5-5.8,4.4
	c-0.3,0.1-0.7,0.4-0.7,0.7c-0.2,2.1-0.7,4.2-1.9,6C30.2,35.4,32.5,36.5,35.1,37.2z M27.7,27.5c-0.6-0.1-0.8-0.1-1.1-0.1
	c-1.2-0.4-2.3-0.8-3.4-1.3c-0.8-0.4-0.8-1.2-0.4-1.8c0.4-0.6,1.1-0.6,1.8-0.3c0.5,0.3,1,0.5,1.6,0.7c2.1,0.7,4,0.1,5.9-1
	c3-1.8,3.8-4.9,2-8c-0.4-0.7-0.3-1.4,0.3-1.8c0.6-0.4,1.4-0.3,1.7,0.4c0.5,0.9,1,1.8,1.3,2.8c0.2,0.5,0.4,0.8,0.9,0.9
	c0.9,0.2,1.9,0.4,2.8,0.5c2.5,0.3,4.7-0.8,5.9-3c1.1-2.1,1-4.6-0.6-6.4c-1.9-2.2-4.2-4-6.9-5.2c-4.2-1.9-8.6-1.8-12.9-0.7
	c-4.7,1.2-7.7,4.3-9.1,8.9c-1.2,3.9-1.4,7.8-0.7,11.8c0.5,3.1,1.5,6,3.5,8.4c1.8,2.2,5,1.9,6.3-0.7C27,30.4,27.2,29,27.7,27.5z
	 M10,10.5c-2.5,1-5,1-7.5,0c0,0.5,0,1,0,1.4c0,18.7,0,37.4,0,56.1c0,0.5-0.1,1,0.1,1.4c0.3,0.8,0.7,1.6,1.2,2.2
	c1.1,1.1,2.6,1.2,4,0.6c1.6-0.7,2.2-2.1,2.2-3.8c0-7.3,0-14.6,0-21.9c0-0.6-0.2-1-0.7-1.3C8,44.3,6.8,43.2,6,41.8
	c-0.9-1.6-0.4-3.1,1.4-3.7c0.8-0.3,1.7-0.5,2.6-0.7C10,28.5,10,19.6,10,10.5z M23.7,72.5c0-0.5,0.1-0.9,0.1-1.3
	c0.2-4.3,0.7-8.5,2.6-12.5c0.4-0.9,1.1-1.7,1.4-2.7c1.3-3.8,3.8-6.4,7.5-8c0.2-0.1,0.4-0.5,0.4-0.7c-0.2-2.3-0.5-4.7-0.8-7
	c0-0.3-0.3-0.6-0.5-0.7c-1.1-0.5-2.3-0.8-3.4-1.3c-0.5-0.2-0.7-0.1-1,0.3c-0.6,1.1-1.3,2.1-2,3.2c-3.3,4.9-5.5,10.2-6.4,16.1
	c-0.7,4.8-0.4,9.6-0.4,14.4c0,0,0.1,0.1,0.1,0.2C22.1,72.5,22.9,72.5,23.7,72.5z M8,40.4c1,1.6,2.3,2.5,3.7,3.4c0.1,0.1,0.3,0,0.4,0
	c3.6,0.3,7.2,0.6,10.9,0.8c0.2,0,0.6,0,0.7-0.2c0.7-1.1,1.3-2.2,2-3.3C25.4,41,25.3,41,25.2,41c-4.8-0.3-9.7-0.7-14.5-1
	C9.9,40,9,40.2,8,40.4z M6.3,8.7C6.3,8.8,6.3,8.8,6.3,8.7c0.8-0.1,1.6-0.2,2.4-0.4c0.9-0.3,1.3-1,1.4-1.8c0.1-1.7-1.1-3.4-2.8-3.8
	C5.5,2.2,3.6,3,2.9,4.7c-0.9,2-0.2,3.6,2,4C5.3,8.7,5.8,8.7,6.3,8.7z"/>
</svg>
