<svg width="411" height="91" viewBox="0 0 411 91" fill="none" xmlns="http://www.w3.org/2000/svg">
<g clip-path="url(#clip0)">
<path d="M96 53.6C93.2907 54.7499 90.3917 55.3874 87.45 55.48C86.0814 55.5289 84.7181 55.2869 83.45 54.77C82.6163 54.4595 81.8927 53.9099 81.37 53.19C81.1649 52.933 81.0649 52.6078 81.09 52.28C81.1158 51.9546 81.2578 51.6494 81.49 51.42C81.7679 51.1062 82.1086 50.8541 82.49 50.68C82.8677 50.508 83.2591 50.3675 83.66 50.26C84.163 50.1563 84.6766 50.1126 85.19 50.13C85.8167 50.13 86.3566 50.15 86.81 50.19C87.4542 50.2465 88.0951 50.3366 88.73 50.46C89.57 50.6 90.23 50.72 90.73 50.82L92.96 51.27C94.15 51.53 95.1 51.73 95.82 51.87C96.3058 51.9701 96.8109 51.9105 97.26 51.7L97.6 51.54C100.713 50.1133 104.18 47.2667 108 43C108.059 42.9275 108.096 42.8395 108.107 42.7465C108.118 42.6535 108.102 42.5593 108.061 42.4752C108.02 42.391 107.956 42.3203 107.876 42.2716C107.796 42.2228 107.704 42.198 107.61 42.2C106.27 42.2323 104.929 42.1284 103.61 41.89C102.615 41.7264 101.645 41.441 100.72 41.04C100.021 40.7233 99.3762 40.2981 98.81 39.78C98.3456 39.3755 97.9444 38.9035 97.62 38.38C97.3535 37.9493 97.1451 37.4853 97 37C96.6044 35.696 96.6044 34.304 97 33C97.4205 31.5254 98.1576 30.1603 99.16 29C100.178 27.794 101.439 26.8161 102.86 26.13C103.014 26.0698 103.186 26.0698 103.34 26.13C103.495 26.1842 103.623 26.2949 103.7 26.44C103.734 26.5154 103.752 26.5972 103.752 26.68C103.752 26.7628 103.734 26.8446 103.7 26.92C103.676 27.0022 103.636 27.0786 103.58 27.1441C103.525 27.2095 103.457 27.2627 103.38 27.3C102.145 27.8964 101.045 28.7405 100.15 29.78C99.2675 30.7767 98.6063 31.9491 98.21 33.22C97.8487 34.3108 97.8243 35.4851 98.14 36.59C98.4015 37.3928 98.8524 38.1209 99.4546 38.7127C100.057 39.3045 100.793 39.7426 101.6 39.99C103.933 40.7813 106.408 41.0643 108.86 40.82C109.153 40.8101 109.44 40.7359 109.701 40.6029C109.962 40.4698 110.19 40.2811 110.37 40.05C111.06 39.22 111.92 38.17 112.94 36.91C115.833 33.37 117.95 30.9267 119.29 29.58C122.06 26.82 124.52 25.45 126.69 25.47C127.111 25.471 127.53 25.5179 127.94 25.61C128.06 25.6291 128.175 25.6697 128.28 25.73C128.408 25.8124 128.529 25.9061 128.64 26.01C128.797 26.1569 128.911 26.3435 128.97 26.55C129.053 26.8217 129.084 27.1068 129.06 27.39C128.986 28.1633 128.769 28.9162 128.42 29.61C127.955 30.5887 127.406 31.5255 126.78 32.41C126.009 33.4923 125.135 34.497 124.17 35.41C123.116 36.4377 121.982 37.3806 120.78 38.23C118.093 40.0922 115.014 41.3104 111.78 41.79H111.34C110.732 41.8627 110.175 42.1629 109.78 42.63C106.16 46.8167 102.87 49.7867 99.91 51.54C99.8193 51.5914 99.7478 51.6709 99.7063 51.7665C99.6648 51.8621 99.6556 51.9687 99.68 52.07C99.694 52.1727 99.7439 52.2671 99.8207 52.3366C99.8975 52.4061 99.9964 52.4463 100.1 52.45C101.72 52.7376 103.357 52.9213 105 53C106.569 53.0174 108.137 52.9137 109.69 52.69C113.03 52.2003 116.185 50.8454 118.84 48.76C118.969 48.6546 119.135 48.604 119.301 48.619C119.468 48.6339 119.621 48.7132 119.73 48.84C119.782 48.9055 119.821 48.9809 119.843 49.0617C119.865 49.1425 119.871 49.2269 119.86 49.31C119.839 49.4768 119.757 49.63 119.63 49.74C118.33 50.7836 116.893 51.6448 115.36 52.3C113.94 52.9374 112.455 53.4169 110.93 53.73C109.408 54.0303 107.861 54.1909 106.31 54.21C104.802 54.2503 103.292 54.2002 101.79 54.06C100.44 53.92 98.97 53.72 97.38 53.45C96.915 53.3704 96.437 53.4223 96 53.6V53.6ZM85.28 51.39C84.6065 51.3862 83.935 51.4634 83.28 51.62C82.68 51.7733 82.38 51.9933 82.38 52.28C82.3976 52.4578 82.4626 52.6277 82.5681 52.7719C82.6736 52.9161 82.8158 53.0294 82.98 53.1C85.5 54.54 88.96 54.5633 93.36 53.17C93.57 53.11 93.62 53.01 93.53 52.88C93.2946 52.675 93.0008 52.5491 92.69 52.52C90.2679 51.8774 87.7835 51.4986 85.28 51.39V51.39ZM126.78 26.79C126.336 26.795 125.895 26.8623 125.47 26.99C125.024 27.1219 124.589 27.2891 124.17 27.49C123.68 27.7298 123.218 28.0215 122.79 28.36L121.44 29.42C120.933 29.8509 120.452 30.3117 120 30.8L118.58 32.3C118.21 32.7 117.71 33.3 117.07 34.05L115.58 35.84L114 37.79C113.54 38.37 113.06 38.95 112.56 39.55C112.497 39.6372 112.462 39.7422 112.462 39.85C112.462 39.9578 112.497 40.0628 112.56 40.15C112.607 40.2471 112.688 40.3243 112.786 40.3682C112.885 40.4121 112.996 40.4198 113.1 40.39C114.568 40.0643 115.994 39.571 117.35 38.92C118.645 38.3218 119.87 37.5805 121 36.71C122.026 35.9153 122.995 35.0498 123.9 34.12C124.673 33.2934 125.375 32.4036 126 31.46C126.517 30.7205 126.968 29.9375 127.35 29.12C127.627 28.581 127.797 27.9936 127.85 27.39C127.85 27.09 127.85 26.93 127.71 26.91C127.406 26.8321 127.094 26.7918 126.78 26.79V26.79Z" fill="#4F4641"/>
<path d="M142.37 47.49C142.453 47.4845 142.536 47.4968 142.614 47.5262C142.691 47.5555 142.762 47.6011 142.82 47.66C142.884 47.7142 142.934 47.7817 142.969 47.8578C143.004 47.9338 143.021 48.0165 143.02 48.1C143.022 48.269 142.961 48.4327 142.85 48.56C141.881 49.5408 140.831 50.4374 139.71 51.24C138.412 52.1706 137.013 52.9522 135.54 53.57C134.221 54.1808 132.793 54.5209 131.34 54.57H131.29C130.635 54.607 129.979 54.4969 129.372 54.2478C128.765 53.9986 128.221 53.6167 127.78 53.13C127.387 52.6954 127.136 52.1512 127.06 51.57C127.052 51.4683 127.012 51.3718 126.945 51.2945C126.879 51.2172 126.789 51.1631 126.69 51.14C126.593 51.1067 126.489 51.1022 126.389 51.1271C126.29 51.1519 126.2 51.205 126.13 51.28C124.22 53.28 122.72 53.93 121.63 53.28C121.438 53.163 121.277 53.0024 121.159 52.8113C121.04 52.6202 120.969 52.4039 120.95 52.18C120.889 51.6088 120.958 51.0312 121.15 50.49C121.33 49.9341 121.544 49.3897 121.79 48.86C122.01 48.39 122.24 47.93 122.5 47.46C122.565 47.3595 122.657 47.2795 122.765 47.2293C122.874 47.1791 122.994 47.1608 123.113 47.1766C123.231 47.1923 123.343 47.2414 123.434 47.3182C123.526 47.3949 123.594 47.4961 123.63 47.61C123.689 47.7645 123.689 47.9355 123.63 48.09C123.263 48.709 122.948 49.358 122.69 50.03C122.487 50.5047 122.339 51.0013 122.25 51.51C122.196 51.7405 122.217 51.9823 122.31 52.2C122.71 52.44 123.46 52.05 124.56 51.04C125.723 49.9501 126.76 48.7324 127.65 47.41C127.691 47.3437 127.745 47.2865 127.808 47.2417C127.872 47.197 127.944 47.1658 128.02 47.15C128.169 47.1194 128.324 47.1406 128.46 47.21C128.529 47.2399 128.592 47.2838 128.643 47.3388C128.695 47.3939 128.735 47.4589 128.76 47.53C128.81 47.6725 128.81 47.8275 128.76 47.97C128.614 48.3882 128.497 48.8158 128.41 49.25C128.296 49.7988 128.255 50.3605 128.29 50.92C128.266 51.4117 128.415 51.8963 128.71 52.29C129.046 52.6306 129.451 52.8958 129.898 53.0682C130.344 53.2406 130.822 53.3162 131.3 53.29H131.35C132.682 53.2267 133.987 52.8861 135.18 52.29C136.522 51.7105 137.802 50.9969 139 50.16C140.033 49.4299 140.994 48.6028 141.87 47.69C142.005 47.5612 142.184 47.4895 142.37 47.49V47.49Z" fill="#4F4641"/>
<path d="M161.28 48.21C161.446 48.2196 161.603 48.2909 161.72 48.41C161.779 48.4704 161.825 48.5426 161.854 48.6218C161.883 48.7011 161.896 48.7857 161.89 48.87C161.888 48.9547 161.866 49.0378 161.826 49.1125C161.786 49.1871 161.729 49.2514 161.66 49.3C157.729 52.5802 152.78 54.3904 147.66 54.42C146.409 54.4214 145.16 54.3076 143.93 54.08C143.299 53.9851 142.685 53.7964 142.11 53.52C141.689 53.3287 141.316 53.045 141.02 52.69C140.809 52.4387 140.646 52.1505 140.54 51.84C140.45 51.5793 140.403 51.3058 140.4 51.03C140.434 50.1297 140.749 49.2626 141.3 48.55C141.883 47.7141 142.607 46.9865 143.44 46.4C144.126 45.8868 144.908 45.5162 145.74 45.31C146.188 45.1712 146.663 45.1451 147.124 45.2341C147.584 45.3231 148.016 45.5243 148.38 45.82C148.703 46.1085 148.959 46.4635 149.132 46.8605C149.305 47.2575 149.389 47.6872 149.38 48.12C149.365 48.2899 149.29 48.4492 149.17 48.57C149.113 48.6284 149.044 48.6745 148.969 48.7054C148.893 48.7364 148.812 48.7516 148.73 48.75C148.646 48.753 148.562 48.7375 148.484 48.7047C148.406 48.6719 148.337 48.6225 148.28 48.56C148.162 48.4363 148.097 48.2711 148.1 48.1C148.112 47.8548 148.07 47.6101 147.979 47.3823C147.887 47.1545 147.748 46.9491 147.57 46.78C147.341 46.6251 147.079 46.5247 146.806 46.4866C146.532 46.4484 146.253 46.4735 145.99 46.56C144.893 46.8478 143.908 47.4573 143.16 48.31C142.328 48.989 141.79 49.9637 141.66 51.03C141.66 51.95 142.51 52.55 144.16 52.86C145.188 53.0318 146.228 53.1287 147.27 53.15C148.236 53.1664 149.202 53.1129 150.16 52.99C151.037 52.8707 151.905 52.697 152.76 52.47C153.546 52.2756 154.318 52.0283 155.07 51.73C155.74 51.46 156.4 51.16 157.07 50.83C157.74 50.5 158.23 50.21 158.65 49.95C159.06 49.7076 159.457 49.4439 159.84 49.16C160.213 48.8933 160.463 48.7033 160.59 48.59L160.85 48.37C160.907 48.316 160.975 48.274 161.049 48.2465C161.123 48.219 161.201 48.2066 161.28 48.21V48.21Z" fill="#4F4641"/>
<path d="M160.92 46C160.778 46.0092 160.638 45.9651 160.527 45.8763C160.416 45.7875 160.342 45.6604 160.32 45.52C160.272 45.383 160.278 45.233 160.335 45.0997C160.392 44.9664 160.498 44.8595 160.63 44.8C161.08 44.578 161.487 44.2765 161.83 43.91C161.948 43.7921 162.108 43.726 162.275 43.726C162.442 43.726 162.602 43.7921 162.72 43.91C162.782 43.9635 162.832 44.0295 162.866 44.1036C162.9 44.1777 162.919 44.2583 162.92 44.34C162.925 44.4236 162.911 44.5073 162.88 44.5851C162.849 44.6629 162.801 44.7328 162.74 44.79C162.3 45.2451 161.791 45.6266 161.23 45.92C161.136 45.9747 161.029 46.0024 160.92 46V46ZM175.83 47.71C175.994 47.7113 176.152 47.7757 176.27 47.89C176.333 47.9467 176.382 48.0163 176.415 48.094C176.448 48.1717 176.463 48.2557 176.46 48.34C176.465 48.5066 176.404 48.6684 176.29 48.79L175.55 49.5C175.25 49.78 174.69 50.24 173.88 50.87C173.107 51.4768 172.299 52.0377 171.46 52.55C170.566 53.0862 169.617 53.5254 168.63 53.86C167.648 54.2287 166.609 54.4249 165.56 54.44C164.118 54.4736 162.707 54.0151 161.56 53.14C161.1 52.8342 160.749 52.3892 160.56 51.87C160.381 51.4006 160.289 50.9024 160.29 50.4C160.315 49.9117 160.399 49.4281 160.54 48.96C160.68 48.45 160.8 48.09 160.88 47.88C160.96 47.67 161.05 47.5 161.11 47.37C161.202 47.2324 161.34 47.1328 161.5 47.09C161.573 47.058 161.651 47.0415 161.73 47.0415C161.809 47.0415 161.888 47.058 161.96 47.09C162.11 47.1629 162.225 47.2924 162.28 47.45C162.312 47.5225 162.329 47.6008 162.329 47.68C162.329 47.7592 162.312 47.8375 162.28 47.91C162.234 48.03 162.181 48.147 162.12 48.26C162.013 48.5215 161.919 48.7886 161.84 49.06C161.725 49.4143 161.648 49.7796 161.61 50.15C161.579 50.5071 161.616 50.8669 161.72 51.21C161.806 51.5642 162.015 51.8763 162.31 52.09C162.996 52.6165 163.805 52.9605 164.66 53.09C165.49 53.2099 166.334 53.1726 167.15 52.98C167.997 52.77 168.819 52.4682 169.6 52.08C170.365 51.7112 171.103 51.2902 171.81 50.82C172.44 50.39 173.05 49.93 173.63 49.45C174.21 48.97 174.63 48.61 174.87 48.38L175.35 47.91C175.413 47.8488 175.489 47.8019 175.571 47.7725C175.654 47.7432 175.743 47.7321 175.83 47.74V47.71Z" fill="#4F4641"/>
<path d="M194.81 48C194.975 48.0184 195.126 48.101 195.23 48.23C195.284 48.295 195.324 48.3701 195.348 48.4508C195.372 48.5315 195.379 48.6163 195.37 48.7C195.366 48.7854 195.342 48.8687 195.301 48.9434C195.259 49.018 195.201 49.0819 195.13 49.13C194.89 49.33 194.59 49.55 194.24 49.81C193.89 50.07 193.24 50.49 192.24 51.09C191.271 51.6727 190.269 52.2002 189.24 52.67C188.068 53.1729 186.857 53.5809 185.62 53.89C184.315 54.2424 182.971 54.4272 181.62 54.44C180.006 54.4615 178.405 54.1588 176.91 53.55C176.476 53.3833 176.068 53.1542 175.7 52.87C175.416 52.6555 175.169 52.3953 174.97 52.1C174.68 51.6459 174.524 51.1189 174.52 50.58C174.53 50.3677 174.561 50.1567 174.61 49.95C174.826 49.1109 175.257 48.3425 175.86 47.72C176.46 47.0189 177.186 46.4356 178 46C178.663 45.6192 179.415 45.4192 180.18 45.42C180.388 45.4176 180.594 45.4571 180.787 45.5361C180.979 45.6151 181.154 45.7321 181.3 45.88C181.608 46.1779 181.79 46.5821 181.81 47.01C181.817 47.4452 181.699 47.8732 181.47 48.2435C181.242 48.6139 180.912 48.9111 180.52 49.1C179.171 49.9441 177.587 50.3364 176 50.22C175.965 50.2051 175.928 50.1975 175.89 50.1975C175.852 50.1975 175.815 50.2051 175.78 50.22C175.75 50.2426 175.727 50.2737 175.715 50.3093C175.702 50.345 175.701 50.3835 175.71 50.42C175.6 51.23 176.12 51.87 177.29 52.34C178.363 52.7767 179.503 53.0302 180.66 53.09C181.773 53.2022 182.895 53.172 184 53C185.09 52.7985 186.16 52.5041 187.2 52.12C188.159 51.775 189.094 51.3675 190 50.9C190.77 50.49 191.53 50.06 192.25 49.6C192.97 49.14 193.48 48.82 193.74 48.6C193.938 48.4669 194.128 48.3234 194.31 48.17C194.378 48.1097 194.457 48.0637 194.543 48.0345C194.629 48.0053 194.72 47.9936 194.81 48V48ZM176.56 48.75C176.35 49.04 176.44 49.17 176.82 49.13C177.725 49.0155 178.598 48.7232 179.39 48.27L179.8 48.03C180.3 47.69 180.53 47.39 180.5 47.12C180.501 46.9931 180.459 46.8697 180.38 46.77C180.289 46.7047 180.182 46.6665 180.07 46.66C179.432 46.6632 178.81 46.8545 178.28 47.21C177.607 47.5992 177.021 48.1236 176.56 48.75V48.75Z" fill="#4F4641"/>
<path d="M210.4 48.08C210.568 48.0787 210.729 48.1433 210.85 48.26C210.91 48.3167 210.957 48.3849 210.99 48.4606C211.023 48.5362 211.04 48.6176 211.04 48.7C211.039 48.8723 210.971 49.0373 210.85 49.16L210.11 49.83C209.83 50.09 209.29 50.53 208.48 51.15C207.72 51.7435 206.925 52.2911 206.1 52.79C205.228 53.2936 204.31 53.7154 203.36 54.05C202.419 54.4015 201.425 54.5908 200.42 54.61C199.835 54.611 199.253 54.5302 198.69 54.37C197.633 54.0563 196.713 53.3936 196.08 52.49C195.32 51.3802 194.802 50.123 194.56 48.8C194.524 48.7251 194.507 48.6428 194.51 48.56C194.364 47.7735 194.267 46.9786 194.22 46.18C194.127 44.3482 194.224 42.5117 194.51 40.7C194.752 38.943 195.212 37.2231 195.88 35.58C196.224 34.4359 196.979 33.4598 198 32.84C198.336 32.7019 198.708 32.6773 199.06 32.77C199.413 32.8592 199.726 33.0633 199.95 33.35C200.317 33.7944 200.515 34.3539 200.51 34.93C200.537 35.7482 200.45 36.5661 200.25 37.36C200.03 38.27 199.77 39.2 199.48 40.15C199.19 41.1 198.81 42.09 198.36 43.15C197.91 44.21 197.52 45.07 197.2 45.79C196.88 46.51 196.54 47.22 196.2 47.9C196.072 48.146 195.994 48.4148 195.97 48.6911C195.946 48.9673 195.976 49.2456 196.06 49.51C196.647 51.51 197.647 52.7367 199.06 53.19C199.552 53.3857 200.087 53.4478 200.61 53.37C201.19 53.3 201.74 53.21 202.24 53.11C202.809 52.9812 203.36 52.7831 203.88 52.52C204.46 52.2267 204.98 51.9567 205.44 51.71C205.936 51.4327 206.417 51.1289 206.88 50.8C207.38 50.44 207.8 50.13 208.12 49.87C208.44 49.61 208.76 49.35 209.12 49.07L209.75 48.51L210.01 48.27C210.112 48.1602 210.251 48.0925 210.4 48.08V48.08ZM195.56 45.82C195.567 45.8695 195.586 45.9164 195.616 45.9566C195.646 45.9967 195.685 46.0288 195.73 46.05C195.75 46.0665 195.774 46.0784 195.799 46.0849C195.824 46.0914 195.851 46.0923 195.877 46.0875C195.902 46.0828 195.927 46.0725 195.948 46.0574C195.969 46.0423 195.987 46.0227 196 46C196.643 44.8373 197.162 43.6106 197.55 42.34C198.126 40.6602 198.6 38.947 198.97 37.21C199.31 35.54 199.34 34.56 199.05 34.21C199.004 34.1445 198.944 34.0893 198.875 34.048C198.806 34.0067 198.73 33.9801 198.65 33.97C198.6 33.9605 198.55 33.9605 198.5 33.97C198.1 34.14 197.62 34.97 197.06 36.29C196.443 37.8506 195.997 39.4734 195.73 41.13C195.392 42.6704 195.334 44.2592 195.56 45.82V45.82Z" fill="#4F4641"/>
<path d="M229.5 48C229.665 48.0184 229.816 48.101 229.92 48.23C230.027 48.3624 230.081 48.5301 230.07 48.7C230.062 48.7844 230.037 48.8663 229.995 48.9403C229.954 49.0143 229.898 49.0789 229.83 49.13C229.59 49.33 229.29 49.55 228.94 49.81C228.59 50.07 227.94 50.49 226.89 51.09C225.922 51.6747 224.92 52.2023 223.89 52.67C222.719 53.1744 221.508 53.5825 220.27 53.89C218.966 54.2431 217.621 54.4279 216.27 54.44C214.656 54.4631 213.054 54.1604 211.56 53.55C211.123 53.3833 210.712 53.1542 210.34 52.87C210.058 52.6528 209.812 52.393 209.61 52.1C209.451 51.8576 209.333 51.5907 209.26 51.31C209.195 51.0722 209.165 50.8264 209.17 50.58C209.177 50.368 209.204 50.157 209.25 49.95C209.472 49.1133 209.902 48.3462 210.5 47.72C211.118 47.0101 211.864 46.4231 212.7 45.99C213.36 45.6096 214.108 45.4096 214.87 45.41C215.078 45.4058 215.285 45.4445 215.478 45.5237C215.671 45.6028 215.845 45.7207 215.99 45.87C216.301 46.1669 216.487 46.5709 216.51 47C216.515 47.436 216.395 47.8643 216.165 48.2345C215.934 48.6047 215.603 48.9015 215.21 49.09C213.877 49.9299 212.312 50.3255 210.74 50.22C210.67 50.1911 210.591 50.1911 210.52 50.22C210.492 50.2441 210.47 50.2754 210.458 50.3105C210.446 50.3457 210.443 50.3834 210.45 50.42C210.343 51.2333 210.873 51.8733 212.04 52.34C213.11 52.7767 214.246 53.0303 215.4 53.09C216.523 53.1742 217.652 53.1137 218.76 52.91C219.85 52.7098 220.921 52.4153 221.96 52.03C222.919 51.685 223.854 51.2775 224.76 50.81C225.54 50.4 226.29 49.97 227.02 49.51C227.75 49.05 228.24 48.73 228.51 48.51C228.78 48.29 228.96 48.18 229.07 48.08C229.201 48.0081 229.352 47.9801 229.5 48V48ZM211.25 48.75C211.04 49.04 211.13 49.17 211.52 49.13C212.425 49.0135 213.298 48.7213 214.09 48.27C214.25 48.17 214.38 48.09 214.5 48.03C214.99 47.69 215.22 47.39 215.19 47.12C215.195 47.0565 215.187 46.9927 215.167 46.9324C215.146 46.8722 215.113 46.8169 215.07 46.77C214.98 46.7031 214.872 46.6648 214.76 46.66C214.122 46.6643 213.5 46.8556 212.97 47.21C212.299 47.602 211.714 48.1259 211.25 48.75V48.75Z" fill="#4F4641"/>
<path d="M257.7 49.78C257.62 49.91 257.48 50.1 257.29 50.35C256.93 50.7777 256.538 51.1788 256.12 51.55C255.547 52.0823 254.932 52.5673 254.28 53C253.519 53.5028 252.696 53.9029 251.83 54.19C250.867 54.5359 249.853 54.7151 248.83 54.72C247.664 54.7228 246.508 54.5092 245.42 54.09C242.974 53.3232 240.908 51.6582 239.64 49.43C238.535 47.1124 238.307 44.4725 239 42C239.514 39.9131 240.344 37.9168 241.46 36.08C242.578 34.1487 243.921 32.3563 245.46 30.74C246.84 29.2804 248.423 28.0275 250.16 27.02C251.468 26.1749 253.004 25.7524 254.56 25.81C255.267 25.8144 255.965 25.9733 256.604 26.2756C257.243 26.5779 257.808 27.0162 258.26 27.56C258.447 27.819 258.709 28.0145 259.01 28.12C259.315 28.2277 259.643 28.2519 259.96 28.19C260.919 27.9504 261.902 27.8196 262.89 27.8C263.061 27.7971 263.226 27.8618 263.35 27.98C263.413 28.0367 263.462 28.1063 263.495 28.184C263.528 28.2617 263.543 28.3457 263.54 28.43C263.543 28.5128 263.527 28.5953 263.494 28.6714C263.462 28.7474 263.412 28.8153 263.35 28.87C263.236 28.9846 263.082 29.0493 262.92 29.05C261.762 29.0645 260.612 29.2532 259.51 29.61C259.363 29.6436 259.235 29.7311 259.149 29.8553C259.064 29.9794 259.029 30.131 259.05 30.28C258.918 31.7365 258.46 33.1447 257.71 34.4C256.944 35.7915 255.927 37.029 254.71 38.05C253.823 38.9187 252.666 39.4585 251.43 39.58C251.087 39.6145 250.742 39.5558 250.43 39.41C250.118 39.2734 249.853 39.0472 249.67 38.76C249.19 37.98 249.36 36.85 250.17 35.4C251.686 32.8928 253.867 30.8541 256.47 29.51C256.624 29.4304 256.755 29.3121 256.85 29.1665C256.945 29.021 257 28.8533 257.01 28.68C257.036 28.5105 257.016 28.337 256.951 28.1784C256.885 28.0198 256.778 27.882 256.64 27.78C255.959 27.3392 255.171 27.0905 254.36 27.06C253.004 27.0376 251.674 27.432 250.55 28.19C248.982 29.1167 247.546 30.2502 246.28 31.56C244.823 33.0681 243.554 34.747 242.5 36.56C241.414 38.3338 240.614 40.2674 240.13 42.29C239.963 43.0437 239.856 43.8094 239.81 44.58C239.772 45.3721 239.839 46.1657 240.01 46.94C240.178 47.7598 240.479 48.5468 240.9 49.27C241.39 50.0667 242.024 50.7653 242.77 51.33C243.681 52.0239 244.692 52.5736 245.77 52.96C246.609 53.2903 247.499 53.4762 248.4 53.51C249.176 53.5539 249.955 53.4831 250.71 53.3C251.403 53.1137 252.074 52.8522 252.71 52.52C253.272 52.2296 253.811 51.8953 254.32 51.52C254.744 51.1765 255.145 50.8057 255.52 50.41C255.9 50.01 256.15 49.73 256.29 49.56L256.61 49.14C256.654 49.0693 256.712 49.0088 256.781 48.9622C256.85 48.9157 256.928 48.8843 257.01 48.87C257.091 48.854 257.174 48.8546 257.255 48.8718C257.336 48.889 257.413 48.9224 257.48 48.97C257.548 49.0138 257.606 49.071 257.65 49.1381C257.695 49.2051 257.726 49.2807 257.74 49.36C257.778 49.5002 257.764 49.6495 257.7 49.78V49.78ZM251.43 38.27C252.43 38.27 253.57 37.55 254.87 36.15C256.094 34.8978 256.997 33.3674 257.5 31.69C257.544 31.5587 257.545 31.4166 257.502 31.285C257.458 31.1533 257.374 31.0393 257.26 30.96C257.151 30.8757 257.018 30.8299 256.88 30.8299C256.742 30.8299 256.609 30.8757 256.5 30.96C254.385 32.1674 252.607 33.8867 251.33 35.96C251.073 36.373 250.888 36.8258 250.78 37.3C250.7 37.7 250.71 37.96 250.78 38.07C250.85 38.18 251.11 38.29 251.43 38.27V38.27Z" fill="#4F4641"/>
<path d="M279.51 47.91C279.594 47.907 279.678 47.9225 279.756 47.9553C279.834 47.9881 279.903 48.0375 279.96 48.1C280.078 48.2181 280.144 48.3781 280.144 48.545C280.144 48.7118 280.078 48.8719 279.96 48.99C278.317 50.5491 276.355 51.733 274.21 52.46C272.224 53.2131 270.124 53.6223 268 53.67C267.089 53.7197 266.18 53.5481 265.35 53.17C265.016 52.9879 264.716 52.7513 264.46 52.47C264.249 52.2337 264.102 51.9483 264.03 51.64C263.972 51.3767 263.935 51.1091 263.92 50.84C263.894 50.5574 263.921 50.2726 264 50C264.11 49.69 264.2 49.45 264.28 49.28C264.36 49.11 264.45 48.9 264.58 48.64C264.58 48.55 264.58 48.49 264.46 48.48C264.364 48.4879 264.272 48.5188 264.19 48.57C263.327 49.0484 262.346 49.2737 261.36 49.22C260.906 49.2376 260.454 49.1486 260.04 48.96C259.882 49.0199 259.708 49.0199 259.55 48.96C259.433 48.9065 259.337 48.8156 259.277 48.7015C259.217 48.5874 259.197 48.4567 259.22 48.33C258.978 48.0385 258.804 47.6969 258.71 47.33C258.51 46.6754 258.528 45.9738 258.76 45.33C259.005 44.6983 259.437 44.1571 260 43.78C260.67 43.38 261.2 43.36 261.58 43.73C261.96 44.1 261.94 45.47 261.06 47.45C261.06 47.53 261.06 47.64 261.13 47.78C261.156 47.8366 261.196 47.8852 261.247 47.9205C261.298 47.9557 261.358 47.9763 261.42 47.98C262.34 47.9839 263.245 47.7423 264.04 47.28C264.224 47.1691 264.414 47.0689 264.61 46.98C264.797 46.9215 264.994 46.8978 265.19 46.91C265.434 46.9207 265.669 47.0082 265.86 47.16C265.96 47.2335 266.042 47.328 266.101 47.437C266.159 47.5459 266.193 47.6664 266.2 47.79C266.22 48.014 266.189 48.2396 266.11 48.45C266.04 48.63 265.93 48.89 265.77 49.21C265.432 49.7394 265.229 50.3438 265.18 50.97C265.197 51.2122 265.281 51.4449 265.423 51.6425C265.564 51.8401 265.757 51.9949 265.98 52.09C266.468 52.3183 267.001 52.4345 267.54 52.43C268.395 52.4483 269.249 52.3813 270.09 52.23C271.105 52.0579 272.107 51.8174 273.09 51.51C274.193 51.1636 275.255 50.701 276.26 50.13C277.276 49.5717 278.214 48.8825 279.05 48.08C279.176 47.9663 279.341 47.9055 279.51 47.91V47.91ZM259.93 46.78C260.218 46.1715 260.443 45.5348 260.6 44.88C260.322 45.1028 260.113 45.3987 259.994 45.7345C259.876 46.0702 259.854 46.4323 259.93 46.78V46.78Z" fill="#4F4641"/>
<path d="M279.15 46C279.008 46.0092 278.868 45.9651 278.757 45.8763C278.646 45.7875 278.572 45.6604 278.55 45.52C278.502 45.383 278.508 45.233 278.565 45.0997C278.622 44.9664 278.728 44.8595 278.86 44.8C279.31 44.578 279.717 44.2765 280.06 43.91C280.18 43.7906 280.341 43.7224 280.51 43.72C280.592 43.7196 280.672 43.7353 280.748 43.7662C280.823 43.797 280.892 43.8425 280.95 43.9C281.074 44.0101 281.149 44.1646 281.16 44.33C281.165 44.4136 281.151 44.4973 281.12 44.5751C281.089 44.6529 281.041 44.7228 280.98 44.78C280.536 45.2348 280.023 45.6162 279.46 45.91C279.368 45.9698 279.26 46.0011 279.15 46V46ZM294.06 47.71C294.228 47.7087 294.389 47.7733 294.51 47.89C294.571 47.9482 294.619 48.0182 294.651 48.0955C294.684 48.1729 294.701 48.256 294.7 48.34C294.7 48.5057 294.64 48.6657 294.53 48.79C294.34 48.98 294.09 49.22 293.78 49.5C293.47 49.78 292.92 50.24 292.11 50.87C291.339 51.4744 290.534 52.0352 289.7 52.55C288.803 53.0862 287.85 53.5254 286.86 53.86C285.878 54.2287 284.839 54.4249 283.79 54.44C282.348 54.4736 280.937 54.0151 279.79 53.14C279.336 52.8278 278.987 52.3849 278.79 51.87C278.609 51.4015 278.521 50.9022 278.53 50.4C278.556 49.9126 278.637 49.4296 278.77 48.96C278.864 48.5931 278.981 48.2325 279.12 47.88C279.21 47.67 279.28 47.5 279.35 47.37C279.436 47.231 279.572 47.1306 279.73 47.09C279.804 47.0578 279.884 47.0412 279.965 47.0412C280.046 47.0412 280.126 47.0578 280.2 47.09C280.273 47.1262 280.338 47.1768 280.392 47.2386C280.445 47.3004 280.485 47.3723 280.51 47.45C280.543 47.5223 280.559 47.6007 280.559 47.68C280.559 47.7593 280.543 47.8377 280.51 47.91L280.35 48.26C280.238 48.5209 280.141 48.788 280.06 49.06C279.945 49.4143 279.868 49.7796 279.83 50.15C279.803 50.5071 279.84 50.8661 279.94 51.21C280.026 51.5642 280.235 51.8763 280.53 52.09C281.217 52.615 282.025 52.9589 282.88 53.09C283.71 53.2101 284.554 53.1728 285.37 52.98C286.217 52.77 287.039 52.4682 287.82 52.08C288.586 51.7134 289.324 51.2923 290.03 50.82C290.66 50.39 291.27 49.93 291.86 49.45C292.45 48.97 292.86 48.61 293.1 48.38L293.58 47.91C293.642 47.847 293.717 47.799 293.8 47.7695C293.884 47.7401 293.972 47.73 294.06 47.74V47.71Z" fill="#4F4641"/>
<path d="M309.55 47.57C309.632 47.5684 309.713 47.5836 309.789 47.6146C309.864 47.6455 309.933 47.6916 309.99 47.75C310.049 47.8087 310.096 47.879 310.127 47.9564C310.158 48.0338 310.172 48.1167 310.17 48.2C310.172 48.366 310.111 48.5267 310 48.65C308.423 50.1765 306.584 51.4062 304.57 52.28C302.627 53.2406 300.497 53.7661 298.33 53.82C297.926 53.8225 297.521 53.7991 297.12 53.75C296.334 53.687 295.575 53.433 294.91 53.01C294.244 52.5943 293.691 52.0207 293.3 51.34C293.261 51.2727 293.235 51.1982 293.225 51.121C293.215 51.0438 293.22 50.9653 293.24 50.89C293.283 50.7303 293.382 50.5916 293.52 50.5C293.589 50.4547 293.666 50.4242 293.747 50.4104C293.828 50.3966 293.91 50.3999 293.99 50.42C294.072 50.4377 294.15 50.4716 294.218 50.5197C294.287 50.5678 294.345 50.6291 294.39 50.7C294.891 51.3877 295.625 51.8688 296.456 52.053C297.286 52.2371 298.156 52.1116 298.9 51.7C299.061 51.6138 299.201 51.4912 299.306 51.3419C299.412 51.1927 299.482 51.0208 299.51 50.84C299.557 50.6619 299.554 50.4742 299.501 50.2977C299.448 50.1213 299.347 49.9629 299.21 49.84C298.942 49.5501 298.636 49.2978 298.3 49.09C297.639 48.6996 297.066 48.175 296.62 47.55C296.591 47.4971 296.549 47.4521 296.499 47.4189C296.448 47.3858 296.39 47.3656 296.33 47.36C296.274 47.3519 296.217 47.3567 296.163 47.3741C296.11 47.3914 296.061 47.4208 296.02 47.46L294.19 49.19C294.11 49.2681 294.009 49.3224 293.9 49.3471C293.79 49.3718 293.676 49.3659 293.57 49.33C293.459 49.307 293.358 49.2522 293.278 49.1722C293.198 49.0923 293.143 48.9907 293.12 48.88C293.094 48.7658 293.1 48.6467 293.137 48.5356C293.174 48.4246 293.241 48.3258 293.33 48.25L297 44.76C297.419 44.2647 297.896 43.8215 298.42 43.44C298.483 43.391 298.556 43.3552 298.633 43.3346C298.71 43.314 298.791 43.309 298.87 43.32C299.032 43.3397 299.182 43.4179 299.29 43.54C299.344 43.5984 299.385 43.6682 299.409 43.7443C299.434 43.8204 299.441 43.9009 299.43 43.98C299.418 44.1379 299.35 44.2864 299.24 44.4L297.92 45.63C297.715 45.8633 297.595 46.1595 297.58 46.47C297.587 46.6109 297.623 46.7488 297.687 46.8746C297.751 47.0004 297.84 47.1113 297.95 47.2C298.283 47.4885 298.634 47.7557 299 48C299.49 48.2859 299.924 48.6586 300.28 49.1C300.546 49.4814 300.704 49.9267 300.74 50.39C300.783 50.8502 300.689 51.3129 300.47 51.72C300.434 51.7731 300.415 51.8358 300.415 51.9C300.415 51.9642 300.434 52.0269 300.47 52.08C300.507 52.1363 300.561 52.1786 300.624 52.2004C300.688 52.2221 300.757 52.222 300.82 52.2C303.915 51.4736 306.76 49.9339 309.06 47.74C309.122 47.6749 309.199 47.6256 309.285 47.596C309.37 47.5665 309.461 47.5576 309.55 47.57V47.57Z" fill="#4F4641"/>
<path d="M325.07 47.69C325.153 47.6888 325.236 47.7041 325.313 47.735C325.39 47.7659 325.461 47.8118 325.52 47.87C325.584 47.9262 325.635 47.9955 325.669 48.0731C325.704 48.1508 325.721 48.235 325.72 48.32C325.72 48.4048 325.702 48.4886 325.667 48.5661C325.633 48.6435 325.583 48.713 325.52 48.77C325.296 49.0191 325.059 49.2561 324.81 49.48C324.52 49.76 323.97 50.22 323.18 50.84C322.429 51.4382 321.645 51.9925 320.83 52.5C319.964 53.0173 319.054 53.4557 318.11 53.81C317.19 54.1791 316.211 54.379 315.22 54.4C314.537 54.405 313.859 54.2829 313.22 54.04C312.452 53.7079 311.767 53.2103 311.214 52.5828C310.661 51.9553 310.253 51.2134 310.02 50.41C309.283 48.1168 309.025 45.697 309.26 43.3C309.243 43.1767 309.183 43.0634 309.09 42.98C309.044 42.9407 308.989 42.9122 308.93 42.8967C308.871 42.8811 308.81 42.8788 308.75 42.89L306.68 43.04L304.86 43.19L303.45 43.28L302.45 43.34H302.09H302.04C301.956 43.3476 301.872 43.3373 301.793 43.3097C301.713 43.2821 301.641 43.2379 301.58 43.18C301.52 43.1233 301.473 43.0551 301.44 42.9794C301.407 42.9038 301.39 42.8224 301.39 42.74C301.388 42.571 301.449 42.4073 301.56 42.28C301.613 42.218 301.679 42.1686 301.753 42.1357C301.828 42.1028 301.909 42.0872 301.99 42.09H302.38L303.38 42.02L304.84 41.91L306.75 41.77L308.92 41.61C309.21 41.61 309.38 41.36 309.45 40.94C309.59 39.94 309.78 38.94 310.01 38.03C310.24 37.12 310.51 36.18 310.81 35.32C311.049 34.5662 311.385 33.8467 311.81 33.18C312.067 32.7014 312.502 32.3425 313.02 32.18C313.66 32.07 314.17 32.39 314.54 33.18C314.782 34.1186 314.754 35.1064 314.46 36.03C314.112 37.6677 313.648 39.2785 313.07 40.85C313.033 40.9431 313.033 41.0469 313.07 41.14C313.079 41.1975 313.107 41.2504 313.15 41.29C313.189 41.3017 313.231 41.3017 313.27 41.29C316.937 41.0633 319.58 40.95 321.2 40.95C321.283 40.9485 321.365 40.9646 321.441 40.9974C321.516 41.0302 321.584 41.0788 321.64 41.14C321.756 41.2593 321.82 41.4189 321.82 41.585C321.82 41.7511 321.756 41.9106 321.64 42.03C321.584 42.0912 321.516 42.1398 321.441 42.1726C321.365 42.2053 321.283 42.2215 321.2 42.22C318.7 42.22 315.913 42.34 312.84 42.58C312.737 42.5723 312.635 42.5895 312.54 42.63C312.465 42.6851 312.409 42.7619 312.38 42.85C311.98 44.0233 311.38 45.6167 310.58 47.63C310.98 50.4567 311.98 52.1867 313.58 52.82C314.064 52.9953 314.575 53.0833 315.09 53.08C315.63 53.0805 316.168 53.0098 316.69 52.87C317.246 52.7062 317.791 52.5057 318.32 52.27C318.861 52.025 319.388 51.7513 319.9 51.45C320.38 51.16 320.9 50.84 321.35 50.45C321.8 50.06 322.25 49.78 322.6 49.45C322.95 49.12 323.27 48.88 323.6 48.6C323.93 48.32 324.13 48.11 324.25 47.99C324.338 47.9146 324.421 47.8345 324.5 47.75C324.582 47.6932 324.678 47.658 324.777 47.6475C324.877 47.637 324.978 47.6516 325.07 47.69V47.69ZM310.51 44.69C310.65 44.69 310.83 44.39 311.05 43.8C311.27 43.21 311.32 42.8 311.23 42.74C311.132 42.6839 311.02 42.6587 310.907 42.6676C310.795 42.6765 310.688 42.7192 310.6 42.79C310.485 42.9657 310.423 43.1703 310.42 43.38C310.391 43.6726 310.391 43.9674 310.42 44.26C310.4 44.53 310.44 44.67 310.51 44.67V44.69ZM310.82 40.94C310.75 41.31 310.82 41.49 310.99 41.49H311.37C311.48 41.4877 311.585 41.4444 311.665 41.3685C311.744 41.2926 311.793 41.1897 311.8 41.08C313.26 36.82 313.847 34.3933 313.56 33.8C313.547 33.754 313.522 33.7127 313.486 33.6808C313.451 33.6489 313.407 33.6278 313.36 33.62C313.32 33.6041 313.277 33.6013 313.235 33.6121C313.194 33.6229 313.157 33.6467 313.13 33.68C312.558 34.4812 312.134 35.3788 311.88 36.33C311.382 37.823 311.027 39.3599 310.82 40.92V40.94Z" fill="#4F4641"/>
<path d="M341.45 47.4C341.536 47.4001 341.622 47.4178 341.701 47.4523C341.78 47.4867 341.851 47.5369 341.91 47.6C341.972 47.6575 342.02 47.7273 342.053 47.8048C342.086 47.8823 342.102 47.9659 342.1 48.05C342.103 48.1328 342.087 48.2153 342.055 48.2914C342.022 48.3674 341.972 48.4353 341.91 48.49C340.95 49.4514 339.851 50.2637 338.65 50.9C337.554 51.4975 336.379 51.9385 335.16 52.21C334.099 52.4433 333.016 52.5606 331.93 52.56C331.007 52.5652 330.088 52.4406 329.2 52.19C329.175 52.1805 329.149 52.176 329.122 52.1769C329.095 52.1778 329.069 52.184 329.045 52.1952C329.021 52.2064 328.999 52.2223 328.981 52.242C328.963 52.2617 328.949 52.2849 328.94 52.31C328.738 52.7773 328.407 53.1772 327.985 53.4625C327.563 53.7477 327.069 53.9065 326.56 53.92C326.044 53.9236 325.536 53.7889 325.09 53.53C324.504 53.2621 324.04 52.7838 323.79 52.19C323.538 51.593 323.513 50.9241 323.72 50.31C323.932 49.4392 324.374 48.6414 325 48C325.477 47.4292 326.16 47.0698 326.9 47V47C326.983 46.9985 327.065 47.0147 327.141 47.0474C327.217 47.0802 327.285 47.1288 327.34 47.19C327.398 47.2479 327.443 47.3166 327.474 47.3921C327.505 47.4676 327.52 47.5484 327.52 47.63C327.521 47.7112 327.505 47.7917 327.472 47.8659C327.44 47.9402 327.391 48.0064 327.33 48.06C327.271 48.1217 327.199 48.1705 327.12 48.2032C327.041 48.2359 326.956 48.2518 326.87 48.25C326.62 48.25 326.25 48.5 325.79 49C325.356 49.46 325.034 50.0146 324.85 50.62C324.781 50.7863 324.745 50.9647 324.745 51.145C324.745 51.3253 324.781 51.5037 324.85 51.67C324.914 51.8344 325.011 51.9841 325.134 52.1096C325.258 52.2352 325.407 52.334 325.57 52.4C325.837 52.6146 326.178 52.715 326.519 52.6795C326.86 52.6439 327.173 52.4752 327.39 52.21C327.71 51.86 327.78 51.61 327.59 51.47C327.165 51.1808 326.867 50.739 326.759 50.2362C326.651 49.7334 326.741 49.2083 327.01 48.77C327.63 47.72 328.26 47.37 328.88 47.77C329.053 47.8906 329.197 48.0484 329.3 48.2319C329.404 48.4153 329.466 48.6197 329.48 48.83C329.585 49.3784 329.585 49.9416 329.48 50.49C329.465 50.5631 329.466 50.6385 329.483 50.7111C329.501 50.7837 329.534 50.8516 329.58 50.91C329.621 50.9734 329.673 51.0281 329.735 51.071C329.797 51.1139 329.867 51.1442 329.94 51.16C331.967 51.5113 334.049 51.3532 336 50.7C337.889 50.0774 339.603 49.0149 341 47.6C341.054 47.534 341.123 47.4815 341.201 47.4468C341.28 47.4121 341.365 47.3961 341.45 47.4V47.4ZM328.31 50.31C328.377 49.9204 328.394 49.5239 328.36 49.13L328.19 49.4C328.095 49.5408 328.052 49.7109 328.07 49.88C328.079 49.9641 328.105 50.0455 328.146 50.1194C328.188 50.1933 328.243 50.2581 328.31 50.31V50.31Z" fill="#4F4641"/>
<path d="M356.42 48C356.504 47.997 356.588 48.0125 356.666 48.0453C356.744 48.0781 356.813 48.1275 356.87 48.19C356.988 48.3137 357.053 48.479 357.05 48.65C357.051 48.7321 357.033 48.8133 356.999 48.8877C356.964 48.9621 356.913 49.0278 356.85 49.08C355.137 50.7333 352.247 51.42 348.18 51.14C346.229 50.9815 344.303 50.5989 342.44 50C342.368 49.9624 342.286 49.9466 342.205 49.9545C342.124 49.9624 342.047 49.9937 341.984 50.0446C341.92 50.0954 341.873 50.1636 341.847 50.241C341.822 50.3183 341.819 50.4013 341.84 50.48C341.84 50.88 341.92 51.37 341.98 51.95C342.08 53.04 342.16 53.95 342.22 54.78C342.28 55.61 342.34 56.46 342.39 57.42C342.44 58.38 342.46 59.19 342.45 59.88C342.44 60.57 342.4 61.26 342.33 61.96C342.28 62.5497 342.169 63.1327 342 63.7C341.875 64.1279 341.683 64.533 341.43 64.9C341.218 65.2161 340.914 65.4602 340.56 65.6C340.438 65.6434 340.31 65.667 340.18 65.67C339.902 65.6735 339.633 65.5696 339.43 65.38C338.967 64.7378 338.728 63.9613 338.75 63.17C338.667 61.8527 338.703 60.5306 338.86 59.22C339.02 57.7 339.24 56.15 339.53 54.56C339.82 52.97 340.15 51.42 340.53 49.93V49.83C340.47 49.4121 340.47 48.9879 340.53 48.57C340.553 48.4692 340.598 48.3748 340.662 48.2935C340.726 48.2122 340.807 48.1461 340.9 48.1C340.919 47.9864 340.968 47.8796 341.04 47.79V47.79C342.373 43.2233 343.707 40.5567 345.04 39.79C345.227 39.6722 345.437 39.596 345.657 39.5667C345.876 39.5373 346.099 39.5555 346.31 39.62C346.515 39.6628 346.703 39.7625 346.853 39.9076C347.004 40.0526 347.11 40.2372 347.16 40.44C347.23 40.9861 347.132 41.5406 346.88 42.03C346.543 42.7982 346.12 43.5261 345.62 44.2C345.06 44.97 344.53 45.66 344.04 46.26C343.55 46.86 343.04 47.46 342.49 48.05C342.32 48.23 342.24 48.37 342.27 48.49C342.3 48.61 342.43 48.7 342.69 48.8C343.62 49.0889 344.569 49.3128 345.53 49.47C346.742 49.6727 347.964 49.8096 349.19 49.88C350.478 49.9593 351.771 49.8549 353.03 49.57C354.106 49.3644 355.108 48.874 355.93 48.15C355.995 48.0891 356.073 48.044 356.158 48.018C356.243 47.9919 356.332 47.9858 356.42 48V48ZM340.23 64.39C340.5 64.39 340.72 63.6 340.9 61.93C341.08 60.2462 341.16 58.5533 341.14 56.86C341.14 55.15 341.04 54.3 340.88 54.3C340.72 54.3 340.6 54.82 340.43 55.86C340.26 56.9 340.13 58.05 340.02 59.3C339.91 60.55 339.88 61.7 339.9 62.76C339.92 63.82 340 64.36 340.23 64.39ZM345.68 40.89C344.918 41.7596 344.266 42.7202 343.74 43.75C343.03 44.95 342.8 45.51 343.04 45.41C343.162 45.3203 343.273 45.2163 343.37 45.1C343.87 44.5912 344.316 44.0315 344.7 43.43C345.069 42.8508 345.403 42.2497 345.7 41.63C345.95 41.11 346.03 40.82 345.93 40.77C345.887 40.757 345.84 40.7577 345.797 40.7721C345.754 40.7864 345.717 40.8136 345.69 40.85L345.68 40.89Z" fill="#4F4641"/>
<path d="M375.14 48.38C375.222 48.3805 375.303 48.3987 375.377 48.4332C375.451 48.4677 375.517 48.5178 375.57 48.58C375.678 48.7083 375.735 48.8722 375.73 49.04C375.727 49.1224 375.707 49.2032 375.671 49.2773C375.634 49.3513 375.583 49.417 375.52 49.47L375 50C374.77 50.2 374.35 50.53 373.74 51C373.13 51.47 372.51 51.85 371.89 52.22C371.178 52.6308 370.44 52.9949 369.68 53.31C368.894 53.6531 368.072 53.908 367.23 54.07C366.409 54.2056 365.571 54.2056 364.75 54.07C363.901 53.9569 363.088 53.6563 362.37 53.19C361.706 52.7677 361.154 52.1914 360.76 51.51C360.71 51.4177 360.637 51.3403 360.547 51.2858C360.458 51.2313 360.355 51.2017 360.25 51.2C360.144 51.1852 360.037 51.2019 359.941 51.2482C359.845 51.2945 359.764 51.3682 359.71 51.46C359.192 52.2652 358.574 53.0011 357.87 53.65C357.379 54.1548 356.729 54.476 356.03 54.56V54.56C355.74 54.5416 355.46 54.4448 355.22 54.28C354.973 54.1241 354.784 53.8926 354.68 53.62C354.44 53.0601 354.335 52.4517 354.373 51.8438C354.411 51.2359 354.592 50.6454 354.9 50.12C355.421 49.022 356.18 48.0543 357.123 47.2878C358.066 46.5213 359.169 45.9754 360.35 45.69C360.457 45.6586 360.572 45.6579 360.679 45.688C360.787 45.718 360.884 45.7776 360.96 45.86C361.042 45.9381 361.099 46.0381 361.126 46.148C361.153 46.2579 361.147 46.3732 361.11 46.48C361.078 46.5883 361.017 46.6861 360.934 46.7634C360.852 46.8407 360.75 46.8947 360.64 46.92C359.644 47.1507 358.714 47.6055 357.92 48.25C357.11 48.8854 356.454 49.6956 356 50.62C355.78 50.9773 355.644 51.3799 355.603 51.7974C355.561 52.2149 355.615 52.6364 355.76 53.03C355.86 53.19 355.93 53.27 355.98 53.27C356.25 53.44 356.78 52.95 357.56 51.78C358.367 50.572 359.076 49.3012 359.68 47.98C359.726 47.8467 359.82 47.7355 359.945 47.6688C360.069 47.6021 360.214 47.5846 360.35 47.62C360.485 47.6351 360.612 47.6957 360.708 47.7921C360.804 47.8884 360.865 48.0146 360.88 48.15C360.88 48.23 360.88 48.34 360.94 48.47C360.991 48.7239 361.058 48.9744 361.14 49.22C361.247 49.562 361.377 49.8962 361.53 50.22C361.699 50.5755 361.907 50.911 362.15 51.22C362.395 51.553 362.696 51.8406 363.04 52.07C363.655 52.4724 364.359 52.7195 365.09 52.79C365.822 52.8765 366.562 52.8359 367.28 52.67C368.036 52.4906 368.772 52.2395 369.48 51.92C370.171 51.6183 370.839 51.2674 371.48 50.87C372.04 50.52 372.6 50.14 373.14 49.74C373.68 49.34 374.06 49.06 374.26 48.89C374.414 48.7652 374.561 48.6317 374.7 48.49C374.828 48.4 374.985 48.3608 375.14 48.38Z" fill="#4F4641"/>
<path d="M395.18 47.91C395.263 47.9085 395.345 47.9247 395.421 47.9574C395.496 47.9902 395.564 48.0388 395.62 48.1C395.737 48.2206 395.801 48.3822 395.8 48.55C395.8 48.6324 395.783 48.7138 395.75 48.7894C395.717 48.8651 395.67 48.9333 395.61 48.99C393.971 50.5489 392.012 51.7329 389.87 52.46C387.871 53.2159 385.757 53.6251 383.62 53.67C382.713 53.7188 381.807 53.5473 380.98 53.17C380.645 52.9905 380.343 52.7536 380.09 52.47C379.872 52.2386 379.724 51.9512 379.66 51.64C379.597 51.3776 379.56 51.1096 379.55 50.84C379.547 50.5563 379.598 50.2747 379.7 50.01L379.98 49.29C380.05 49.12 380.15 48.91 380.28 48.65C380.33 48.56 380.28 48.5 380.16 48.49C380.068 48.4998 379.979 48.5306 379.9 48.58C379.033 49.0582 378.049 49.2834 377.06 49.23C376.606 49.2476 376.154 49.1586 375.74 48.97C375.586 49.0293 375.415 49.0293 375.26 48.97C375.141 48.9182 375.043 48.8279 374.981 48.7137C374.92 48.5995 374.898 48.4679 374.92 48.34C374.677 48.0505 374.506 47.7079 374.42 47.34C374.215 46.6861 374.233 45.9828 374.47 45.34C374.686 44.7042 375.095 44.1518 375.64 43.76C376.32 43.36 376.84 43.34 377.23 43.71C377.62 44.08 377.58 45.45 376.7 47.43C376.687 47.4868 376.686 47.5457 376.699 47.6027C376.711 47.6597 376.735 47.7134 376.77 47.76C376.796 47.816 376.837 47.864 376.888 47.8991C376.939 47.9343 376.998 47.9553 377.06 47.96C377.98 47.964 378.885 47.7223 379.68 47.26C379.866 47.1467 380.06 47.0464 380.26 46.96C380.444 46.9007 380.637 46.8769 380.83 46.89C381.077 46.9006 381.315 46.988 381.51 47.14C381.608 47.214 381.689 47.3089 381.746 47.4179C381.803 47.5268 381.835 47.6471 381.84 47.77C381.863 47.9932 381.836 48.2187 381.76 48.43C381.69 48.61 381.57 48.87 381.41 49.19C381.072 49.7194 380.869 50.3238 380.82 50.95C380.842 51.1923 380.928 51.4244 381.071 51.6215C381.213 51.8187 381.407 51.9736 381.63 52.07C382.118 52.2983 382.651 52.4145 383.19 52.41C384.041 52.4286 384.892 52.3616 385.73 52.21C386.745 52.0379 387.747 51.7974 388.73 51.49C389.833 51.1436 390.895 50.681 391.9 50.11C392.919 49.5567 393.858 48.867 394.69 48.06C394.828 47.949 395.004 47.8952 395.18 47.91V47.91ZM375.6 46.78C375.884 46.1697 376.108 45.5334 376.27 44.88C375.989 45.0997 375.776 45.3954 375.657 45.7321C375.539 46.0687 375.519 46.4324 375.6 46.78V46.78Z" fill="#4F4641"/>
<path d="M394.82 46C394.68 45.9958 394.545 45.9456 394.436 45.8572C394.327 45.7687 394.25 45.647 394.217 45.5106C394.184 45.3743 394.197 45.2309 394.254 45.1025C394.31 44.9741 394.407 44.8678 394.53 44.8C394.98 44.578 395.387 44.2765 395.73 43.91C395.846 43.7912 396.004 43.7229 396.17 43.72C396.338 43.7187 396.499 43.7833 396.62 43.9C396.741 44.0112 396.813 44.1658 396.82 44.33C396.825 44.4136 396.811 44.4973 396.78 44.5751C396.749 44.6529 396.701 44.7228 396.64 44.78C396.2 45.2351 395.691 45.6166 395.13 45.91C395.037 45.9682 394.93 45.9994 394.82 46V46ZM409.72 47.71C409.888 47.7087 410.049 47.7733 410.17 47.89C410.233 47.9467 410.282 48.0163 410.315 48.094C410.348 48.1717 410.363 48.2557 410.36 48.34C410.36 48.5057 410.3 48.6657 410.19 48.79L409.45 49.5C409.14 49.78 408.59 50.24 407.78 50.87C407.005 51.4745 406.197 52.0353 405.36 52.55C404.466 53.0862 403.517 53.5254 402.53 53.86C401.544 54.2288 400.502 54.425 399.45 54.44C398.008 54.4744 396.597 54.0158 395.45 53.14C394.99 52.8342 394.639 52.3892 394.45 51.87C394.266 51.402 394.174 50.9028 394.18 50.4C394.235 49.923 394.342 49.4535 394.5 49C394.65 48.49 394.76 48.13 394.85 47.92C394.94 47.71 395.02 47.54 395.08 47.41C395.168 47.273 395.303 47.1733 395.46 47.13C395.534 47.0978 395.614 47.0812 395.695 47.0812C395.776 47.0812 395.856 47.0978 395.93 47.13C396.08 47.2029 396.195 47.3323 396.25 47.49C396.282 47.5625 396.299 47.6408 396.299 47.72C396.299 47.7992 396.282 47.8775 396.25 47.95C396.25 48.03 396.16 48.15 396.09 48.3C395.983 48.5615 395.889 48.8286 395.81 49.1C395.691 49.453 395.614 49.8189 395.58 50.19C395.546 50.5465 395.579 50.9063 395.68 51.25C395.773 51.6008 395.981 51.9105 396.27 52.13C396.961 52.655 397.772 52.9988 398.63 53.13C399.456 53.25 400.298 53.2127 401.11 53.02C401.957 52.8114 402.779 52.5096 403.56 52.12C404.329 51.7533 405.071 51.3322 405.78 50.86C406.41 50.43 407.02 49.97 407.6 49.49C408.18 49.01 408.6 48.65 408.84 48.42L409.32 47.95C409.422 47.8314 409.565 47.7562 409.72 47.74V47.71Z" fill="#4F4641"/>
<path d="M61.3901 51.57C57.0601 60.57 47.3901 63.94 45.1201 64.63C41.6601 66.1434 38.0256 67.2217 34.3001 67.84C34.2033 67.8543 34.1045 67.8343 34.0208 67.7836C33.9372 67.7328 33.8739 67.6544 33.8418 67.5619C33.8098 67.4694 33.8111 67.3686 33.8455 67.277C33.8799 67.1854 33.9451 67.1086 34.0301 67.06C35.1015 66.449 36.1397 65.7814 37.1401 65.06C47.7801 57.45 49.2201 42.19 40.6601 32.3C32.1001 22.41 21.0001 13.38 22.1001 5.85C22.3237 4.65512 22.8351 3.53273 23.5901 2.58C24.2643 1.78461 25.1013 1.14312 26.0446 0.698818C26.9879 0.254513 28.0156 0.0177358 29.0582 0.00446615C30.1008 -0.00880352 31.1341 0.201743 32.0885 0.621896C33.0428 1.04205 33.8958 1.66203 34.5901 2.44C38.4701 6.62 50.5001 14.16 58.9101 27.26C67.3201 40.36 61.3901 51.57 61.3901 51.57Z" fill="#6FA4A3"/>
<path d="M6.14004 83.06C13.04 90.29 23.24 90.53 25.64 90.47C29.4232 90.8518 33.2393 90.7611 37 90.2C37.099 90.1846 37.1893 90.1343 37.2544 90.0582C37.3196 89.9821 37.3554 89.8852 37.3554 89.785C37.3554 89.6848 37.3196 89.5879 37.2544 89.5118C37.1893 89.4357 37.099 89.3854 37 89.37C35.7977 89.1319 34.6092 88.8281 33.44 88.46C21 84.49 14.88 70.43 20 58.38C25.12 46.33 32.79 34.3 29.44 27.47C28.8524 26.4027 28.0153 25.4935 27 24.82C26.1146 24.2706 25.1216 23.9177 24.0881 23.7851C23.0545 23.6525 22.0046 23.7434 21.0092 24.0515C20.0138 24.3596 19.0961 24.8778 18.3182 25.571C17.5403 26.2643 16.9203 27.1165 16.5 28.07C14.09 33.25 5.00004 44.13 1.00004 59.18C-2.99996 74.23 6.14004 83.06 6.14004 83.06Z" fill="#F8D1C4"/>
<path d="M36.41 84.26C39.9999 84.26 42.91 81.3499 42.91 77.76C42.91 74.1702 39.9999 71.26 36.41 71.26C32.8202 71.26 29.91 74.1702 29.91 77.76C29.91 81.3499 32.8202 84.26 36.41 84.26Z" fill="#F8D1C4"/>
<path d="M99.05 78.7C98.94 76.7 98.81 74.18 98.83 72.35H98.76C98.26 74.07 97.65 75.91 96.91 77.93L94.31 85.07H92.87L90.49 78.07C89.79 75.99 89.2 74.07 88.79 72.35C88.79 74.18 88.63 76.65 88.5 78.85L88.11 85.16H86.26L87.26 70.45H89.69L92.2 77.56C92.81 79.37 93.31 80.99 93.68 82.56H93.75C94.12 81.07 94.64 79.46 95.29 77.56L97.91 70.45H100.33L101.25 85.16H99.42L99.05 78.7Z" fill="#6FA4A3"/>
<path d="M105.33 80.23C105.287 80.7223 105.353 81.218 105.522 81.6823C105.691 82.1465 105.961 82.5679 106.311 82.9169C106.66 83.2658 107.083 83.5338 107.547 83.7019C108.012 83.8701 108.508 83.9343 109 83.89C110.001 83.9209 110.997 83.7368 111.92 83.35L112.25 84.72C111.141 85.1885 109.944 85.4135 108.74 85.38C105.49 85.38 103.55 83.24 103.55 80.05C103.55 76.86 105.42 74.36 108.55 74.36C112 74.36 112.91 77.36 112.91 79.36C112.907 79.6609 112.887 79.9613 112.85 80.26L105.33 80.23ZM111 78.85C111 77.63 110.5 75.73 108.34 75.73C106.4 75.73 105.54 77.52 105.34 78.85H111ZM111.46 70.04L108.79 73.16H107.42L109.3 70L111.46 70.04Z" fill="#6FA4A3"/>
<path d="M124.31 69.67V82.43C124.31 83.37 124.31 84.43 124.4 85.16H122.68L122.59 83.32C122.247 83.9686 121.728 84.5076 121.094 84.8754C120.459 85.2433 119.733 85.425 119 85.4C116.44 85.4 114.48 83.24 114.48 80.03C114.48 76.52 116.64 74.36 119.21 74.36C119.831 74.3324 120.449 74.4696 121.001 74.7576C121.552 75.0456 122.018 75.4742 122.35 76V76V69.7L124.31 69.67ZM122.39 78.9C122.394 78.6278 122.367 78.3562 122.31 78.09C122.169 77.4577 121.817 76.8922 121.312 76.4868C120.806 76.0815 120.178 75.8604 119.53 75.86C117.53 75.86 116.37 77.61 116.37 79.94C116.37 82.08 117.37 83.85 119.49 83.85C120.151 83.8484 120.792 83.6202 121.305 83.2035C121.818 82.7867 122.173 82.2066 122.31 81.56C122.368 81.2872 122.395 81.0088 122.39 80.73V78.9Z" fill="#6FA4A3"/>
<path d="M129.64 71.63C129.64 71.9456 129.515 72.2483 129.291 72.4714C129.068 72.6946 128.766 72.82 128.45 72.82C128.134 72.82 127.832 72.6946 127.609 72.4714C127.385 72.2483 127.26 71.9456 127.26 71.63C127.256 71.4713 127.284 71.3134 127.343 71.1659C127.402 71.0185 127.49 70.8845 127.602 70.7723C127.715 70.66 127.849 70.5718 127.996 70.5129C128.143 70.4541 128.301 70.4259 128.46 70.43C128.618 70.4242 128.776 70.4514 128.923 70.51C129.07 70.5685 129.203 70.657 129.315 70.7699C129.426 70.8828 129.512 71.0176 129.568 71.1657C129.624 71.3138 129.648 71.4719 129.64 71.63V71.63ZM127.5 85.16V74.6H129.42V85.16H127.5Z" fill="#6FA4A3"/>
<path d="M140.13 84.76C139.189 85.1892 138.164 85.4011 137.13 85.38C136.416 85.4237 135.701 85.3137 135.034 85.0575C134.366 84.8013 133.761 84.4049 133.26 83.8949C132.758 83.385 132.372 82.7734 132.127 82.1015C131.882 81.4296 131.784 80.713 131.84 80C131.804 79.2485 131.926 78.4978 132.199 77.7966C132.472 77.0955 132.889 76.4597 133.424 75.9305C133.959 75.4013 134.599 74.9907 135.303 74.7253C136.007 74.4598 136.759 74.3456 137.51 74.39C138.428 74.3797 139.338 74.5637 140.18 74.93L139.74 76.42C139.052 76.0638 138.284 75.8916 137.51 75.92C135.09 75.92 133.78 77.71 133.78 79.92C133.734 80.4266 133.794 80.9374 133.959 81.4189C134.123 81.9004 134.387 82.3419 134.733 82.7146C135.079 83.0873 135.5 83.3828 135.968 83.5819C136.436 83.781 136.941 83.8792 137.45 83.87C138.263 83.8729 139.067 83.6917 139.8 83.34L140.13 84.76Z" fill="#6FA4A3"/>
<path d="M148.23 85.16L148.07 83.83H148C147.625 84.3295 147.137 84.7325 146.575 85.0055C146.013 85.2786 145.394 85.4138 144.77 85.4C144.357 85.4318 143.942 85.3777 143.551 85.2412C143.16 85.1047 142.802 84.8888 142.498 84.607C142.195 84.3252 141.953 83.9836 141.788 83.6038C141.623 83.224 141.539 82.8141 141.54 82.4C141.54 79.85 143.81 78.46 147.89 78.48V78.26C147.931 77.9332 147.898 77.6014 147.793 77.2893C147.687 76.9773 147.512 76.6932 147.281 76.4584C147.05 76.2236 146.769 76.0441 146.459 75.9336C146.149 75.823 145.817 75.7842 145.49 75.82C144.519 75.8212 143.567 76.0911 142.74 76.6L142.3 75.34C143.346 74.7092 144.548 74.3836 145.77 74.4C149 74.4 149.77 76.6 149.77 78.72V82.67C149.755 83.5166 149.812 84.363 149.94 85.2L148.23 85.16ZM147.94 79.77C145.85 79.77 143.47 80.1 143.47 82.15C143.448 82.3951 143.479 82.6421 143.561 82.874C143.644 83.1058 143.776 83.317 143.948 83.4929C144.12 83.6688 144.328 83.8053 144.558 83.8928C144.788 83.9804 145.035 84.0169 145.28 84C145.839 84.0168 146.388 83.8539 146.847 83.5353C147.306 83.2167 147.65 82.7591 147.83 82.23C147.901 82.0344 147.938 81.8281 147.94 81.62V79.77Z" fill="#6FA4A3"/>
<path d="M165.2 78.26H159.49V83.56H165.86V85.16H157.59V70.45H165.53V72H159.53V76.65H165.24L165.2 78.26Z" fill="#6FA4A3"/>
<path d="M168.26 77.45C168.26 76.36 168.26 75.45 168.17 74.6H169.87L169.98 76.34H170C170.343 75.7195 170.85 75.205 171.466 74.8524C172.081 74.4998 172.781 74.3226 173.49 74.34C174.95 74.34 177.22 75.21 177.22 78.83V85.14H175.3V79.07C175.3 77.37 174.66 75.95 172.85 75.95C172.115 75.9787 171.421 76.2942 170.916 76.8289C170.411 77.3636 170.136 78.0748 170.15 78.81V85.16H168.23L168.26 77.45Z" fill="#6FA4A3"/>
<path d="M189.49 69.67V82.43C189.49 83.37 189.49 84.43 189.58 85.16H187.85L187.76 83.32C187.416 83.9702 186.896 84.5102 186.259 84.8781C185.623 85.2461 184.895 85.4269 184.16 85.4C181.61 85.4 179.64 83.24 179.64 80.03C179.64 76.52 181.8 74.36 184.38 74.36C185.001 74.3324 185.619 74.4696 186.171 74.7576C186.722 75.0456 187.188 75.4742 187.52 76V76V69.7L189.49 69.67ZM187.57 78.9C187.575 78.6272 187.545 78.3549 187.48 78.09C187.343 77.4576 186.993 76.8913 186.489 76.4856C185.985 76.0798 185.357 75.859 184.71 75.86C182.71 75.86 181.55 77.61 181.55 79.94C181.55 82.08 182.55 83.85 184.67 83.85C185.329 83.8461 185.968 83.6169 186.479 83.2003C186.99 82.7838 187.343 82.205 187.48 81.56C187.546 81.2884 187.576 81.0094 187.57 80.73V78.9Z" fill="#6FA4A3"/>
<path d="M202.23 79.79C202.23 83.69 199.53 85.4 196.97 85.4C194.11 85.4 191.91 83.3 191.91 79.96C191.91 76.43 194.22 74.36 197.15 74.36C200.08 74.36 202.23 76.56 202.23 79.79ZM193.85 79.9C193.85 82.21 195.18 83.96 197.06 83.96C198.94 83.96 200.27 82.23 200.27 79.85C200.27 78.07 199.37 75.85 197.1 75.85C194.83 75.85 193.85 77.89 193.85 79.9Z" fill="#6FA4A3"/>
<path d="M212.18 84.76C211.239 85.1892 210.214 85.4011 209.18 85.38C208.466 85.4237 207.751 85.3137 207.084 85.0575C206.416 84.8013 205.811 84.4049 205.31 83.8949C204.808 83.385 204.422 82.7734 204.177 82.1015C203.932 81.4296 203.834 80.713 203.89 80C203.854 79.2485 203.976 78.4978 204.249 77.7966C204.522 77.0955 204.939 76.4597 205.474 75.9305C206.009 75.4013 206.649 74.9907 207.353 74.7253C208.057 74.4598 208.809 74.3456 209.56 74.39C210.475 74.3784 211.382 74.5625 212.22 74.93L211.79 76.42C211.102 76.0638 210.334 75.8916 209.56 75.92C207.14 75.92 205.83 77.71 205.83 79.92C205.784 80.4266 205.844 80.9374 206.009 81.4189C206.173 81.9004 206.437 82.3419 206.783 82.7146C207.129 83.0873 207.55 83.3828 208.018 83.5819C208.487 83.781 208.991 83.8792 209.5 83.87C210.313 83.8729 211.117 83.6917 211.85 83.34L212.18 84.76Z" fill="#6FA4A3"/>
<path d="M214.43 77.89C214.43 76.65 214.43 75.58 214.34 74.6H216L216.07 76.67H216.15C216.331 76.0246 216.713 75.4533 217.239 75.0383C217.766 74.6232 218.41 74.3858 219.08 74.36C219.262 74.3573 219.443 74.3775 219.62 74.42V76.23C219.406 76.1869 219.188 76.1668 218.97 76.17C218.315 76.1966 217.691 76.461 217.216 76.9137C216.742 77.3664 216.448 77.9765 216.39 78.63C216.341 78.9276 216.314 79.2284 216.31 79.53V85.16H214.41L214.43 77.89Z" fill="#6FA4A3"/>
<path d="M223.79 71.63C223.79 71.9456 223.665 72.2483 223.442 72.4714C223.218 72.6946 222.916 72.82 222.6 72.82C222.284 72.82 221.982 72.6946 221.759 72.4714C221.535 72.2483 221.41 71.9456 221.41 71.63C221.406 71.4713 221.434 71.3134 221.493 71.1659C221.552 71.0185 221.64 70.8845 221.752 70.7723C221.865 70.66 221.999 70.5718 222.146 70.5129C222.293 70.4541 222.451 70.4259 222.61 70.43C222.768 70.4242 222.926 70.4514 223.073 70.51C223.22 70.5685 223.354 70.657 223.465 70.7699C223.576 70.8828 223.662 71.0176 223.718 71.1657C223.774 71.3138 223.798 71.4719 223.79 71.63V71.63ZM221.65 85.16V74.6H223.57V85.16H221.65Z" fill="#6FA4A3"/>
<path d="M226.76 77.45C226.76 76.36 226.76 75.45 226.67 74.6H228.37L228.48 76.34C228.826 75.7195 229.335 75.2052 229.952 74.8527C230.568 74.5002 231.27 74.323 231.98 74.34C233.44 74.34 235.71 75.21 235.71 78.83V85.14H233.79V79.07C233.79 77.37 233.15 75.95 231.34 75.95C230.605 75.9786 229.911 76.2942 229.406 76.8289C228.901 77.3636 228.626 78.0748 228.64 78.81V85.16H226.72L226.76 77.45Z" fill="#6FA4A3"/>
<path d="M248.42 79.79C248.42 83.69 245.72 85.4 243.17 85.4C240.31 85.4 238.1 83.3 238.1 79.96C238.1 76.43 240.42 74.36 243.34 74.36C246.26 74.36 248.42 76.56 248.42 79.79ZM240.05 79.9C240.05 82.21 241.38 83.96 243.25 83.96C245.12 83.96 246.46 82.23 246.46 79.85C246.46 78.07 245.57 75.85 243.3 75.85C241.03 75.85 240.05 77.89 240.05 79.9V79.9Z" fill="#6FA4A3"/>
<path d="M250.85 69.67H252.77V85.16H250.85V69.67Z" fill="#6FA4A3"/>
<path d="M265.55 79.79C265.55 83.69 262.85 85.4 260.29 85.4C257.44 85.4 255.23 83.3 255.23 79.96C255.23 76.43 257.54 74.36 260.47 74.36C263.4 74.36 265.55 76.56 265.55 79.79ZM257.17 79.9C257.17 82.21 258.51 83.96 260.38 83.96C262.25 83.96 263.59 82.23 263.59 79.85C263.59 78.07 262.69 75.85 260.42 75.85C258.15 75.85 257.17 77.89 257.17 79.9Z" fill="#6FA4A3"/>
<path d="M277.07 74.6C277.07 75.36 276.99 76.21 276.99 77.5V83.63C276.99 86.05 276.51 87.53 275.48 88.45C274.403 89.3378 273.034 89.7908 271.64 89.72C270.412 89.7496 269.199 89.4454 268.13 88.84L268.61 87.38C269.547 87.9363 270.62 88.2235 271.71 88.21C273.71 88.21 275.11 87.21 275.11 84.52V83.35C274.755 83.9134 274.257 84.3729 273.667 84.6819C273.077 84.991 272.415 85.1387 271.75 85.11C269.13 85.11 267.25 82.89 267.25 79.96C267.25 76.39 269.59 74.36 272.01 74.36C272.676 74.3211 273.338 74.4725 273.921 74.7966C274.504 75.1207 274.982 75.604 275.3 76.19H275.35L275.43 74.6H277.07ZM275.07 78.76C275.082 78.4659 275.045 78.1719 274.96 77.89C274.792 77.3101 274.44 76.801 273.956 76.44C273.472 76.0789 272.884 75.8858 272.28 75.89C270.44 75.89 269.13 77.44 269.13 79.89C269.13 81.97 270.18 83.69 272.25 83.69C272.85 83.684 273.432 83.4868 273.912 83.1271C274.393 82.7675 274.746 82.264 274.92 81.69C275.016 81.3652 275.066 81.0287 275.07 80.69V78.76Z" fill="#6FA4A3"/>
<path d="M282.18 71.63C282.18 71.9456 282.055 72.2483 281.831 72.4714C281.608 72.6946 281.306 72.82 280.99 72.82C280.674 72.82 280.372 72.6946 280.148 72.4714C279.925 72.2483 279.8 71.9456 279.8 71.63C279.796 71.4713 279.824 71.3134 279.883 71.1659C279.942 71.0185 280.03 70.8845 280.142 70.7723C280.255 70.66 280.388 70.5718 280.536 70.5129C280.683 70.4541 280.841 70.4259 281 70.43C281.158 70.4242 281.316 70.4514 281.463 70.51C281.61 70.5685 281.743 70.657 281.854 70.7699C281.965 70.8828 282.052 71.0176 282.108 71.1657C282.164 71.3138 282.188 71.4719 282.18 71.63V71.63ZM280 85.16V74.6H282V85.16H280Z" fill="#6FA4A3"/>
<path d="M284.89 83.19C285.649 83.6691 286.523 83.9351 287.42 83.96C288.81 83.96 289.47 83.26 289.47 82.39C289.47 81.52 288.92 80.97 287.47 80.39C285.58 79.72 284.68 78.67 284.68 77.39C284.68 75.69 286.05 74.3 288.32 74.3C289.26 74.2907 290.185 74.5323 291 75L290.52 76.4C289.87 76.0007 289.123 75.7895 288.36 75.79C287.23 75.79 286.59 76.44 286.59 77.23C286.59 78.02 287.23 78.49 288.59 79.02C290.42 79.71 291.36 80.63 291.36 82.2C291.36 84.06 289.92 85.37 287.41 85.37C286.365 85.3919 285.331 85.1439 284.41 84.65L284.89 83.19Z" fill="#6FA4A3"/>
<path d="M296.1 71.56V74.56H298.85V76.02H296.1V81.71C296.1 83.02 296.47 83.71 297.54 83.71C297.914 83.7178 298.288 83.674 298.65 83.58L298.74 85.02C298.196 85.2183 297.619 85.31 297.04 85.29C296.657 85.3129 296.273 85.2524 295.916 85.1125C295.559 84.9727 295.236 84.7569 294.97 84.48C294.382 83.6908 294.114 82.7085 294.22 81.73V76.06H292.59V74.6H294.22V72.07L296.1 71.56Z" fill="#6FA4A3"/>
<path d="M306.86 85.16L306.7 83.83H306.64C306.265 84.3295 305.777 84.7325 305.215 85.0055C304.653 85.2786 304.034 85.4138 303.41 85.4C302.997 85.4318 302.582 85.3777 302.191 85.2412C301.8 85.1047 301.442 84.8888 301.138 84.607C300.835 84.3252 300.593 83.9836 300.428 83.6038C300.263 83.224 300.179 82.8141 300.18 82.4C300.18 79.85 302.45 78.46 306.53 78.48V78.26C306.571 77.9332 306.538 77.6014 306.433 77.2893C306.327 76.9773 306.152 76.6932 305.921 76.4584C305.69 76.2236 305.409 76.0441 305.099 75.9336C304.789 75.823 304.457 75.7842 304.13 75.82C303.159 75.8212 302.207 76.0911 301.38 76.6L300.94 75.34C301.986 74.7092 303.188 74.3836 304.41 74.4C307.64 74.4 308.41 76.6 308.41 78.72V82.67C308.395 83.5166 308.452 84.363 308.58 85.2L306.86 85.16ZM306.57 79.77C304.48 79.77 302.1 80.1 302.1 82.15C302.078 82.3951 302.109 82.6421 302.191 82.874C302.274 83.1058 302.406 83.317 302.578 83.4929C302.75 83.6688 302.958 83.8053 303.188 83.8928C303.418 83.9804 303.665 84.0169 303.91 84C304.469 84.0168 305.018 83.8539 305.477 83.5353C305.936 83.2167 306.28 82.7591 306.46 82.23C306.531 82.0344 306.568 81.8281 306.57 81.62V79.77Z" fill="#6FA4A3"/>
<path d="M316.22 70.63C317.423 70.4278 318.641 70.3308 319.86 70.34C321.343 70.2276 322.815 70.6616 324 71.56C324.422 71.951 324.755 72.4287 324.976 72.9602C325.197 73.4918 325.301 74.0647 325.28 74.64C325.309 75.2121 325.224 75.7842 325.03 76.3232C324.836 76.8622 324.537 77.3574 324.15 77.78C323.547 78.3388 322.838 78.7702 322.065 79.0486C321.292 79.327 320.47 79.4465 319.65 79.4C319.14 79.4122 318.63 79.3686 318.13 79.27V85.16H316.23L316.22 70.63ZM318.12 77.72C318.635 77.8359 319.162 77.8863 319.69 77.87C321.98 77.87 323.38 76.76 323.38 74.73C323.38 72.7 322 71.85 319.91 71.85C319.31 71.8309 318.709 71.8812 318.12 72V77.72Z" fill="#6FA4A3"/>
<path d="M328.29 80.23C328.248 80.7177 328.313 81.2088 328.479 81.6692C328.646 82.1295 328.91 82.5482 329.255 82.8963C329.599 83.2443 330.015 83.5135 330.473 83.685C330.932 83.8566 331.422 83.9265 331.91 83.89C332.911 83.9209 333.907 83.7367 334.83 83.35L335.16 84.72C334.05 85.1873 332.854 85.4123 331.65 85.38C328.39 85.38 326.45 83.24 326.45 80.05C326.45 76.86 328.33 74.36 331.45 74.36C334.89 74.36 335.81 77.36 335.81 79.36C335.804 79.6611 335.781 79.9616 335.74 80.26L328.29 80.23ZM333.91 78.85C333.91 77.63 333.41 75.73 331.25 75.73C329.31 75.73 328.46 77.52 328.31 78.85H333.91Z" fill="#6FA4A3"/>
<path d="M347.27 69.67V82.43C347.27 83.37 347.27 84.43 347.35 85.16H345.63L345.54 83.32C345.196 83.9702 344.676 84.5102 344.039 84.8781C343.403 85.2461 342.675 85.4269 341.94 85.4C339.39 85.4 337.42 83.24 337.42 80.03C337.42 76.52 339.58 74.36 342.16 74.36C342.782 74.3324 343.399 74.4696 343.951 74.7576C344.502 75.0456 344.968 75.4742 345.3 76H345.35V69.7L347.27 69.67ZM345.35 78.9C345.355 78.6272 345.325 78.3549 345.26 78.09C345.123 77.4576 344.773 76.8913 344.269 76.4856C343.765 76.0798 343.137 75.859 342.49 75.86C340.49 75.86 339.33 77.61 339.33 79.94C339.33 82.08 340.33 83.85 342.45 83.85C343.109 83.8461 343.748 83.6169 344.259 83.2003C344.77 82.7838 345.123 82.205 345.26 81.56C345.326 81.2884 345.356 81.0094 345.35 80.73V78.9Z" fill="#6FA4A3"/>
<path d="M352.59 71.63C352.59 71.9456 352.465 72.2483 352.241 72.4714C352.018 72.6946 351.716 72.82 351.4 72.82C351.084 72.82 350.782 72.6946 350.559 72.4714C350.335 72.2483 350.21 71.9456 350.21 71.63C350.206 71.4713 350.234 71.3134 350.293 71.1659C350.352 71.0185 350.44 70.8845 350.552 70.7723C350.665 70.66 350.798 70.5718 350.946 70.5129C351.093 70.4541 351.251 70.4259 351.41 70.43C351.568 70.4242 351.726 70.4514 351.873 70.51C352.02 70.5685 352.153 70.657 352.264 70.7699C352.375 70.8828 352.462 71.0176 352.518 71.1657C352.574 71.3138 352.598 71.4719 352.59 71.63V71.63ZM350.45 85.16V74.6H352.37V85.16H350.45Z" fill="#6FA4A3"/>
<path d="M361.41 85.16L361.25 83.83H361.19C360.819 84.3234 360.336 84.7226 359.782 84.9953C359.228 85.268 358.618 85.4066 358 85.4C357.587 85.4318 357.172 85.3777 356.781 85.2412C356.39 85.1047 356.032 84.8888 355.728 84.607C355.425 84.3252 355.183 83.9836 355.018 83.6038C354.853 83.224 354.769 82.8141 354.77 82.4C354.77 79.85 357.04 78.46 361.12 78.48V78.26C361.161 77.9332 361.128 77.6014 361.023 77.2893C360.917 76.9773 360.742 76.6932 360.511 76.4584C360.28 76.2235 359.999 76.0441 359.689 75.9336C359.379 75.823 359.047 75.7842 358.72 75.82C357.749 75.8212 356.797 76.0911 355.97 76.6L355.53 75.34C356.576 74.7092 357.778 74.3836 359 74.4C362.23 74.4 363 76.6 363 78.72V82.67C362.985 83.5166 363.042 84.363 363.17 85.2L361.41 85.16ZM361.12 79.77C359.03 79.77 356.65 80.1 356.65 82.15C356.628 82.3951 356.659 82.6421 356.741 82.874C356.824 83.1058 356.956 83.317 357.128 83.4929C357.3 83.6688 357.508 83.8053 357.738 83.8928C357.968 83.9804 358.215 84.0169 358.46 84C359.019 84.0133 359.568 83.8465 360.025 83.5242C360.483 83.2019 360.824 82.7412 361 82.21C361.071 82.0144 361.108 81.8081 361.11 81.6L361.12 79.77ZM362.12 70.04L359.46 73.16H358.09L360 70L362.12 70.04Z" fill="#6FA4A3"/>
<path d="M368.3 71.56V74.56H371.05V76.02H368.3V81.71C368.3 83.02 368.67 83.71 369.74 83.71C370.114 83.7178 370.488 83.674 370.85 83.58L370.94 85.02C370.396 85.2183 369.819 85.31 369.24 85.29C368.857 85.3109 368.474 85.2495 368.117 85.1097C367.76 84.97 367.437 84.7553 367.17 84.48C366.586 83.6894 366.321 82.7072 366.43 81.73V76.06H364.79V74.6H366.43V72.07L368.3 71.56Z" fill="#6FA4A3"/>
<path d="M373.21 77.89C373.21 76.65 373.21 75.58 373.12 74.6H374.81L374.87 76.67H375C375.179 76.0254 375.559 75.4544 376.084 75.0393C376.608 74.6241 377.251 74.3863 377.92 74.36C378.105 74.358 378.29 74.3781 378.47 74.42V76.23C378.253 76.1874 378.031 76.1673 377.81 76.17C377.155 76.1947 376.532 76.4587 376.058 76.9121C375.584 77.3654 375.293 77.9766 375.24 78.63C375.182 78.9266 375.152 79.2279 375.15 79.53V85.16H373.25L373.21 77.89Z" fill="#6FA4A3"/>
<path d="M382.57 71.63C382.57 71.9456 382.445 72.2483 382.222 72.4714C381.998 72.6946 381.696 72.82 381.38 72.82C381.064 72.82 380.762 72.6946 380.539 72.4714C380.315 72.2483 380.19 71.9456 380.19 71.63C380.186 71.4713 380.214 71.3134 380.273 71.1659C380.332 71.0185 380.42 70.8845 380.532 70.7723C380.645 70.66 380.779 70.5718 380.926 70.5129C381.073 70.4541 381.231 70.4259 381.39 70.43C381.548 70.4242 381.706 70.4514 381.853 70.51C382 70.5685 382.134 70.657 382.245 70.7699C382.356 70.8828 382.442 71.0176 382.498 71.1657C382.554 71.3138 382.579 71.4719 382.57 71.63V71.63ZM380.43 85.16V74.6H382.35V85.16H380.43Z" fill="#6FA4A3"/>
<path d="M393.07 84.76C392.128 85.1856 391.104 85.3974 390.07 85.38C389.356 85.4237 388.641 85.3137 387.974 85.0575C387.306 84.8013 386.701 84.4049 386.2 83.8949C385.698 83.385 385.312 82.7734 385.067 82.1015C384.822 81.4296 384.724 80.713 384.78 80C384.744 79.2485 384.866 78.4978 385.139 77.7966C385.412 77.0955 385.829 76.4597 386.364 75.9305C386.899 75.4013 387.539 74.9907 388.243 74.7253C388.947 74.4598 389.699 74.3456 390.45 74.39C391.365 74.3793 392.272 74.5634 393.11 74.93L392.67 76.42C391.986 76.0624 391.221 75.8901 390.45 75.92C388.03 75.92 386.72 77.71 386.72 79.92C386.674 80.4258 386.734 80.9356 386.898 81.4165C387.061 81.8973 387.324 82.3383 387.67 82.7108C388.015 83.0834 388.435 83.3791 388.902 83.5788C389.368 83.7785 389.872 83.8778 390.38 83.87C391.196 83.8713 392.003 83.6903 392.74 83.34L393.07 84.76Z" fill="#6FA4A3"/>
<path d="M401.16 85.16L401 83.83H400.93C400.557 84.3293 400.07 84.7324 399.51 85.0055C398.95 85.2786 398.333 85.4138 397.71 85.4C397.297 85.4317 396.882 85.3777 396.491 85.2412C396.1 85.1047 395.742 84.8888 395.438 84.607C395.135 84.3252 394.893 83.9836 394.728 83.6038C394.563 83.2239 394.479 82.8141 394.48 82.4C394.48 79.85 396.75 78.46 400.83 78.48V78.26C400.871 77.9332 400.838 77.6013 400.732 77.2893C400.627 76.9773 400.452 76.6932 400.221 76.4584C399.99 76.2235 399.709 76.0441 399.399 75.9335C399.089 75.823 398.757 75.7842 398.43 75.82C397.459 75.8196 396.506 76.0897 395.68 76.6L395.24 75.34C396.286 74.7082 397.488 74.3825 398.71 74.4C401.94 74.4 402.71 76.6 402.71 78.72V82.67C402.698 83.5169 402.759 84.3632 402.89 85.2L401.16 85.16ZM400.88 79.77C398.78 79.77 396.41 80.1 396.41 82.15C396.388 82.3951 396.419 82.6421 396.501 82.8739C396.584 83.1058 396.716 83.317 396.888 83.4929C397.06 83.6688 397.268 83.8053 397.498 83.8928C397.728 83.9804 397.974 84.0169 398.22 84C398.778 84.0136 399.326 83.8495 399.784 83.5313C400.242 83.2131 400.588 82.7574 400.77 82.23C400.841 82.0344 400.878 81.8281 400.88 81.62V79.77Z" fill="#6FA4A3"/>
</g>
<defs>
<clipPath id="clip0">
<rect width="410.36" height="90.73" fill="white"/>
</clipPath>
</defs>
</svg>
