<?xml version="1.0" encoding="utf-8"?>
<!-- Generator: Adobe Illustrator 24.0.1, SVG Export Plug-In . SVG Version: 6.00 Build 0)  -->
<svg version="1.1" id="Layer_1" xmlns="http://www.w3.org/2000/svg" xmlns:xlink="http://www.w3.org/1999/xlink" x="0px" y="0px"
	 viewBox="0 0 37.5 37.5" style="enable-background:new 0 0 37.5 37.5;" xml:space="preserve">
<style type="text/css">
	.st0{fill:#59B7B5;}
</style>
<g>
	<g>
		<path class="st0" d="M32.1,12.6l-1.3-2.7V0.3c0-0.1-0.1-0.3-0.3-0.3H7C6.9,0,6.8,0.1,6.8,0.3v9.7l-1.3,2.7c-1.2,2.3-1.2,5.1,0,7.4
			l1.2,2.5l-1.2,2.8c-1.2,2.7-1.2,5.8,0,8.6L7,37.3c0,0.1,0.1,0.2,0.2,0.2h23c0.1,0,0.2-0.1,0.2-0.2l1.5-3.5c1.2-2.7,1.2-5.8,0-8.6
			l-1.2-2.8l1.2-2.5C33.2,17.7,33.2,14.9,32.1,12.6z M29.7,20.8l-0.4,0.7c-4.7,0-8.8,2.9-10.6,7.1c-1.8-4.3-5.9-7.1-10.6-7.1
			l-0.4-0.7H29.7z M8.2,23.3c4.4,0,8.2,3,9.3,7.3c0.2,0.8,0.3,1.7,0.3,2.5v2.7H8.2l-1.1-2.6c-1-2.3-1-4.9,0-7.2L8.2,23.3z
			 M19.6,35.8v-2.7c0-0.8,0.1-1.7,0.3-2.5c1.1-4.2,4.9-7.2,9.3-7.3l1.1,2.6c1,2.3,1,4.9,0,7.2l-1.1,2.6H19.6z M30.5,19.1H7
			c-0.9-1.8-0.9-4,0-5.8l1.5-3c0,0,0-0.1,0-0.1V1.7H29v8.5c0,0,0,0.1,0,0.1l1.5,3C31.4,15.1,31.4,17.3,30.5,19.1z"/>
		<path class="st0" d="M19.4,13h-1.2c-0.1,0-0.3,0.1-0.3,0.3v1.2c0,0.1,0.1,0.3,0.3,0.3h1.2c0.1,0,0.3-0.1,0.3-0.3v-1.2
			C19.6,13.1,19.5,13,19.4,13z"/>
		<path class="st0" d="M3.9,11.1H3l0.4-0.4c0.3-0.3,0.3-0.9,0-1.2s-0.9-0.3-1.2,0l-1.9,1.9c-0.3,0.3-0.3,0.9,0,1.2l1.8,1.8
			c0.2,0.2,0.4,0.3,0.6,0.3s0.4-0.1,0.6-0.3c0.2-0.2,0.3-0.4,0.3-0.6c0-0.2-0.1-0.4-0.3-0.6L3,12.8h1c0.5,0,0.9-0.4,0.9-0.9
			S4.4,11.1,3.9,11.1z"/>
		<path class="st0" d="M37.2,11.4l-1.8-1.9c-0.3-0.3-0.9-0.3-1.2,0c-0.3,0.3-0.3,0.9,0,1.2l0.4,0.4h-1c-0.5,0-0.9,0.4-0.9,0.9
			s0.4,0.9,0.9,0.9h1l-0.4,0.4c-0.2,0.2-0.3,0.4-0.3,0.6c0,0.2,0.1,0.4,0.3,0.6c0.2,0.2,0.4,0.3,0.6,0.3c0.2,0,0.5-0.1,0.6-0.3
			l1.8-1.8C37.6,12.2,37.6,11.7,37.2,11.4z"/>
	</g>
</g>
</svg>
