<?xml version="1.0" encoding="utf-8"?>
<!-- Generator: Adobe Illustrator 24.0.1, SVG Export Plug-In . SVG Version: 6.00 Build 0)  -->
<svg version="1.1" id="Layer_1" xmlns="http://www.w3.org/2000/svg" xmlns:xlink="http://www.w3.org/1999/xlink" x="0px" y="0px"
	 viewBox="0 0 41 40" style="enable-background:new 0 0 41 40;" xml:space="preserve">
<style type="text/css">
	.st0{fill:#58B7B6;}
</style>
<path class="st0" d="M6.3,27.5c-0.8-1.3-1.1-2.7-1-4.2c0.2-1.5,0.9-2.9,1.9-3.9c2.6-2.5,6.9-2.5,9.5,0c0.7,0.7,1.3,1.5,1.6,2.5
	c0.9,0.3,1.8,0.8,2.5,1.5c0.1,0.1,0.1,0.1,0.2,0.2c1.2,1.2,1.8,2.9,1.8,4.6c0,1.7-0.7,3.3-2,4.5c-1.1,1.1-2.5,1.7-4,1.9
	c-1.5,0.2-3-0.2-4.3-1l-6.1,5.9c-0.2,0.2-0.4,0.3-0.6,0.3c-0.2,0-0.5-0.1-0.6-0.3l-4.9-4.8c-0.1-0.1-0.2-0.2-0.2-0.3
	C0,34.3,0,34.2,0,34c0-0.1,0-0.2,0.1-0.4c0-0.1,0.1-0.2,0.2-0.3L6.3,27.5z M5.9,37.6l6-5.8c0.2-0.2,0.4-0.2,0.6-0.3
	c0.2,0,0.4,0.1,0.6,0.2c1,0.8,2.1,1.1,3.4,1.1c1.2-0.1,2.4-0.6,3.2-1.4c0.9-0.8,1.4-2,1.4-3.2c0-1.2-0.4-2.4-1.3-3.3
	c0,0-0.1-0.1-0.1-0.1c-0.6-0.6-1.4-1-2.2-1.2c-0.2,0-0.3-0.1-0.4-0.2c-0.1-0.1-0.2-0.3-0.2-0.4c-0.2-0.8-0.7-1.5-1.3-2.1
	c-1.9-1.9-5-1.9-7,0c-0.8,0.8-1.4,1.9-1.4,3.1C7.1,25,7.5,26.1,8.2,27c0.2,0.2,0.2,0.4,0.2,0.6c0,0.2-0.1,0.5-0.3,0.6L2.2,34
	L5.9,37.6z"/>
<path class="st0" d="M19.3,17.1c-0.1-0.1-0.1-0.1-0.2-0.2c-1.2-1.2-1.8-2.9-1.8-4.6c0-1.7,0.7-3.3,2-4.5c1.1-1.1,2.5-1.7,4-1.9
	c1.5-0.2,3,0.2,4.3,1l6.9-6.7C34.7,0.1,34.9,0,35.1,0c0.2,0,0.5,0.1,0.6,0.3L40.7,5c0.1,0.1,0.2,0.2,0.2,0.3C41,5.5,41,5.6,41,5.7
	c0,0.1,0,0.2-0.1,0.4c0,0.1-0.1,0.2-0.2,0.3L33.9,13c0.8,1.3,1.1,2.7,1,4.2c-0.2,1.5-0.9,2.9-1.9,3.9c-1.3,1.2-3,1.9-4.7,1.9
	c-1.8,0-3.5-0.7-4.8-1.9c-0.7-0.7-1.3-1.5-1.6-2.5C20.9,18.4,20,17.8,19.3,17.1L19.3,17.1z M23.4,17.7c0.2,0.8,0.7,1.5,1.3,2.1
	c1.9,1.9,5,1.9,7,0c0.8-0.8,1.4-1.9,1.4-3.1c0.1-1.2-0.3-2.3-1.1-3.2c-0.2-0.2-0.2-0.4-0.2-0.6c0-0.2,0.1-0.5,0.3-0.6l6.8-6.5
	l-3.6-3.5l-6.8,6.6C28.2,8.9,28,9,27.8,9c-0.2,0-0.4-0.1-0.6-0.2c-1-0.8-2.1-1.1-3.4-1.1c-1.2,0.1-2.4,0.6-3.2,1.4
	c-0.4,0.4-0.8,0.9-1,1.5c-0.2,0.6-0.4,1.2-0.4,1.8c0,0.6,0.1,1.2,0.3,1.8c0.2,0.6,0.5,1.1,1,1.5c0,0,0.1,0.1,0.1,0.1
	c0.6,0.6,1.4,1,2.2,1.2c0.2,0,0.3,0.1,0.4,0.2C23.3,17.4,23.4,17.5,23.4,17.7L23.4,17.7z"/>
</svg>
