<?xml version="1.0" encoding="utf-8"?>
<!-- Generator: Adobe Illustrator 24.0.1, SVG Export Plug-In . SVG Version: 6.00 Build 0)  -->
<svg version="1.1" id="Layer_1" xmlns="http://www.w3.org/2000/svg" xmlns:xlink="http://www.w3.org/1999/xlink" x="0px" y="0px"
	 viewBox="0 0 45 27" style="enable-background:new 0 0 45 27;" xml:space="preserve">
<style type="text/css">
	.st0{fill:#58B7B6;}
</style>
<g>
	<path class="st0" d="M17.8,8.2l-0.2-0.1V7.8c0-0.2,0-0.3,0-0.5c0-3.9-3.2-7.1-7.1-7.1S3.4,3.4,3.4,7.3c0,0.1,0,0.3,0,0.5v0.3l0,0.1
		c-1.9,1-3.2,2.9-3.2,5v1.4c0,0.2,0.1,0.4,0.3,0.5s0.4,0.1,0.6,0l3.1-2.3l-0.7-0.9l-2.2,1.6V13c0.1-1.5,0.9-2.8,2.1-3.6l0.3-0.2
		l0.1,0.3c0,0.1,0,0.1,0,0.1C4,10,4.1,10.2,4.2,10.4l0.1,0.2c0.1,0.3,0.3,0.5,0.4,0.7l0.1,0.1v0.1C5,11.7,5.2,11.8,5.3,12
		c0,0.1,0.1,0.1,0.2,0.2h0.1c0.2,0.2,0.3,0.3,0.5,0.5l0,0l0.1,0.1c0.4,0.3,0.8,0.6,1.2,0.8l0.9,0.5H4.5c-1,0-1.8,0.7-2.1,1.6
		l-1.3,4.5c-0.1,0.2,0,0.4,0.1,0.5s0.3,0.2,0.5,0.2H2v3.4L1.3,27h1.2L3,24.5v-0.1v-3.5h2.1v3.5l-1,2.6h1.2l0.8-2h9l0.8,2h1.2l-1-2.7
		v-3.4h2.1v3.5v0.1l0.6,2.4H20l-0.6-2.6v-3.5h0.3c0.2,0,0.4-0.1,0.5-0.2c0.1-0.2,0.1-0.3,0.1-0.5L19,15.6c-0.3-0.9-1.1-1.6-2.1-1.6
		h-3.8l0.9-0.5c0.4-0.2,0.8-0.5,1.2-0.8l0.2-0.1c0.2-0.1,0.3-0.3,0.4-0.4l0,0c0-0.1,0.1-0.1,0.2-0.2c0.2-0.2,0.3-0.4,0.5-0.6v-0.1
		l0.1-0.1c0.1-0.2,0.3-0.4,0.4-0.7l0.1-0.2c0.1-0.2,0.2-0.5,0.3-0.8c0,0,0,0,0-0.1l0.1-0.3l0.3,0.1c1.3,0.8,2,2.1,2.1,3.6v0.5
		l-2.2-1.6L17,12.8l3.1,2.3c0.2,0.1,0.4,0.2,0.6,0c0.2-0.1,0.3-0.3,0.3-0.5v-1.4C20.9,11.1,19.7,9.1,17.8,8.2z M5.1,19.8H2.4L3.5,16
		c0.1-0.5,0.5-0.8,1-0.8h0.7L5.1,19.8L5.1,19.8z M16,15.2h0.7c0.5,0,0.9,0.3,1,0.8l1.1,3.8H16V15.2z M13,20.1c0.3,0,0.6-0.3,0.6-0.6
		v-4.3h1.3v8.6H6.3v-8.6h1.3v4.3c0,0.3,0.3,0.6,0.6,0.6H13z M8.7,19v-3.2L9,15.9c1,0.4,2.1,0.4,3.1,0l0.3-0.1V19H8.7z M16.5,8.1
		c0,0.1,0,0.2,0,0.3c-0.1,0.3-0.1,0.6-0.3,0.9v0.1c-0.1,0.3-0.2,0.6-0.4,0.8l-0.1,0.2c-0.1,0.2-0.3,0.5-0.5,0.7
		c0,0.1-0.1,0.1-0.1,0.1c-0.2,0.3-0.5,0.5-0.7,0.7c-0.5,0.4-1,0.7-1.5,0.9c-0.2,0.1-0.4,0.3-0.4,0.5v1l-0.1,0.1
		c-0.5,0.4-1.2,0.6-1.8,0.6s-1.3-0.2-1.8-0.6l-0.1-0.1v-1c0-0.2-0.1-0.4-0.4-0.5c-0.5-0.2-1.1-0.5-1.5-0.9c-0.3-0.2-0.5-0.5-0.7-0.7
		c0,0,0,0-0.1-0.1c-0.2-0.3-0.4-0.5-0.5-0.7l-0.1-0.1C5.3,10,5.2,9.7,5,9.5V9.3C4.9,9,4.8,8.7,4.7,8.4V8.3V8.2V7.9H8
		c1.3,0,2.5-0.5,3.4-1.4l1.4-1.4L13,5.4c0.7,1.3,1.9,2.1,3.3,2.4h0.2V8.1z M16.1,6.6c-1.3-0.3-2.2-1.3-2.5-2.6V3.9
		c0-0.2-0.2-0.3-0.4-0.4c-0.2-0.1-0.4,0-0.5,0.1l-2,2C9.9,6.4,9,6.8,8,6.8H4.7V6.5c0.4-2.9,3-5.1,5.9-5.1s5.4,2.1,5.9,5l0.1,0.4
		L16.1,6.6z"/>
	<path class="st0" d="M44,20.9c0.2,0,0.4-0.1,0.5-0.2c0.1-0.2,0.1-0.3,0.1-0.5l-1.3-4.5c-0.3-0.9-1.1-1.6-2.1-1.6h-3.8l0.9-0.5
		c2.4-1.2,3.8-3.6,3.8-6.3c0-3.9-3.2-7.1-7.1-7.1s-7.1,3.2-7.1,7.1c0,2.7,1.5,5.1,3.8,6.3l0.9,0.5h-3.8c-1,0-1.8,0.7-2.1,1.6
		l-1.3,4.5c0,0.2,0,0.4,0.1,0.5s0.3,0.2,0.5,0.2h0.3v3.5L26,26.8c0,0.1,0,0.1,0,0.2h1.1l0,0l0.3-2.5c0,0,0,0,0-0.1v-3.5h2.1v3.5
		L29.2,27h1.1l0.3-2h8.8l0.3,2h1.1l-0.4-2.6v-3.5h2.1v3.5c0,0,0,0,0,0.1L43,27l0,0h1.1c0-0.1,0-0.1,0-0.2l-0.4-2.4v-3.5H44z
		 M29.6,19.8h-2.8l1.1-3.8c0.1-0.5,0.5-0.8,1-0.8h0.7C29.6,15.2,29.6,19.8,29.6,19.8z M29.1,6.5c0.4-2.9,3-5.1,5.9-5.1
		s5.4,2.1,5.9,5L41,6.8l-0.4-0.1C39.3,6.3,38.3,5.3,38,4V3.9c0-0.2-0.2-0.3-0.4-0.4c-0.2-0.1-0.4,0-0.5,0.1l-2,2
		c-0.7,0.7-1.6,1-2.6,1L29.1,6.5L29.1,6.5z M29.1,8.2V7.9h3.4c1.3,0,2.5-0.5,3.4-1.4l1.4-1.4l0.2,0.3c0.7,1.3,1.9,2.1,3.3,2.4H41V8
		c-0.3,2.1-1.7,3.9-3.7,4.8c-0.2,0.1-0.4,0.3-0.4,0.5v0.9L35,14.9l-1.9-0.6v-0.9c0-0.2-0.1-0.4-0.4-0.5C30.8,12,29.4,10.3,29.1,8.2z
		 M30.7,15.2h1.8l1.4,0.5l-1.5,1.5L30.7,16V15.2z M39.3,23.9h-3.8v-5.7h-1.1v5.7h-3.8v-6.5l1.6,1c0.2,0.2,0.5,0.1,0.7-0.1l2-2l2,2
		c0.2,0.2,0.5,0.2,0.7,0.1l1.6-1L39.3,23.9L39.3,23.9z M39.3,16l-1.8,1.2L36,15.7l1.5-0.5h1.8V16z M40.5,19.8v-4.6h0.6
		c0.5,0,0.9,0.3,1,0.8l1.1,3.8H40.5z"/>
</g>
</svg>
