<svg width="490" height="703" viewBox="0 0 490 703" fill="none" xmlns="http://www.w3.org/2000/svg">
<path d="M489.997 323.276C488.757 400.132 450.338 451.159 386.146 484.245C350.244 502.752 311.952 515.68 272.157 523.466C268.729 524.14 263.687 526.419 261.773 521.87C260.032 517.731 264.955 516.163 267.726 514.668C366.627 461.215 388.289 325.409 301.049 236.31C266.769 201.301 232.325 166.182 202.431 127.107C188.409 108.782 175.6 89.6912 170.923 66.3701C166.41 43.8695 175.937 20.2749 194.627 8.52315C213.9 -3.60237 242.518 -3.16475 259.211 12.252C306.719 56.1044 359.625 94.0399 402.584 142.879C432.214 176.576 460.23 211.402 476.641 253.924C485.475 276.834 489.724 300.666 489.997 323.276Z" fill="#70A4A3"/>
<path d="M230.994 701.355C191.39 699.577 151.476 699.486 113.577 685.008C50.561 660.931 14.6768 614.744 2.96154 548.82C-6.97591 492.933 9.59866 441.623 30.3397 391.142C51.7006 339.139 81.0845 291.531 111.654 244.652C122.01 228.77 128.338 210.454 142.788 196.997C170.613 171.078 217.31 182.793 230.265 218.732C239.382 244.023 231.942 267.553 224.795 291.029C213.909 326.804 196.733 360.045 181.134 393.878C167.896 422.587 152.187 450.357 145.359 481.573C133.288 536.694 145.66 586.217 180.623 630.371C205.722 662.07 239.181 679.456 277.728 688.4C281.475 689.266 286.471 688.865 285.915 694.335C285.486 698.565 281.119 698.766 277.618 698.757C262.037 698.711 246.757 703.853 230.994 701.355Z" fill="#F7D0C4"/>
<path d="M331.271 601.853C330.998 629.003 308.215 651.896 281.538 651.823C253.358 651.75 229.517 628.21 229.754 600.704C230 572.834 253.969 549.613 281.94 550.133C309.537 550.652 331.563 573.755 331.271 601.853Z" fill="#F7D1C4"/>
</svg>
